<svg xmlns="http://www.w3.org/2000/svg" viewBox="0 0 530.97 356.98"><defs><style>.cls-1{fill:#ffd719;}.cls-2{fill:#fff;}.cls-3{fill:#723d1d;}.cls-4{fill:#579baa;}.cls-5{fill:#74cee2;}.cls-6{fill:#ebeff0;}</style></defs><title>Artboard 1</title><g id="goal2"><path class="cls-1" d="M70.51,14l8.67,108.7c.26,3.21,5.3,3.24,5,0L75.55,14c-.26-3.21-5.3-3.24-5,0Z"/><path class="cls-1" d="M77.28,16.43c11.87-1.51,24.4-2.84,35.09,5.39,5.45,4.2,10.09,10.66,15.49,15,9.91,8,21.52,8.3,32.66,8.43l67.16.8L209.8,67.48l31.45,34.91c-34.46-4.94-70.59,23.25-102.77,3.27-9.77-6.07-18.33-16.24-28.07-22.45s-21.81-7.74-30,2.67q-3.67-35.54-5.16-71.53"/><path class="cls-2" d="M104.73,45.23c-1.76-4-6.27-5.66-10.42-4.9-4.65.86-7.8,4.65-8.91,9.11-1.05,4.25-1.12,11.14,2.58,14.2,4.35,3.59,9.48-.14,12.38-3.65L95.6,58.73a4.77,4.77,0,0,1-1.69,5.05c-2.72,2.47,1.32,6.5,4,4a10.47,10.47,0,0,0,3.15-10.6c-.47-2-3.4-2.92-4.77-1.26S92,60.7,90.8,56.87a12.43,12.43,0,0,1,.45-7.08c1.32-3.41,6.62-6.1,8.56-1.68,1.47,3.35,6.39.45,4.93-2.88Z"/><path class="cls-2" d="M93.23,56.85a19.28,19.28,0,0,1,8.84,3.79c1.24.94,3.18.18,3.9-1a2.92,2.92,0,0,0-1-3.9,22.83,22.83,0,0,0-10.2-4.37,2.94,2.94,0,0,0-3.51,2,2.87,2.87,0,0,0,2,3.51Z"/><path class="cls-2" d="M126.33,54.47c-3-4.59-9.37-5-13.46-1.56-5.1,4.25-3.1,11.75,1.88,15.15,5.2,3.54,13.56,1.85,15.51-4.65,1.43-4.76-1.66-13.64-7.88-10.19-3.21,1.78-.34,6.71,2.88,4.93-1,.54-.61-.47-.57.89,0,.46.2.92.21,1.4a3.24,3.24,0,0,1-1.5,3c-2.33,1.59-5.35.59-6.93-1.55-1.25-1.68-1.34-3.91.62-5,1.3-.75,3.39-1,4.31.46,2,3.07,6.93.22,4.93-2.88Z"/><path class="cls-2" d="M143.27,56.73c-6.4,3.64-11.55,9.87-15.29,16.12-1.89,3.16,3,6,4.93,2.88,3.24-5.42,7.69-10.91,13.25-14.07,3.19-1.82.32-6.75-2.88-4.93Z"/><path class="cls-2" d="M142.48,60.85c0,5.59-.36,11.18-.39,16.77,0,3.67,5.69,3.68,5.7,0,0-5.59.36-11.18.39-16.77,0-3.67-5.69-3.68-5.7,0Z"/><path class="cls-2" d="M132,70.34c1.84,3.34,7,5.1,10.62,4.74a2.93,2.93,0,0,0,2.85-2.85,2.87,2.87,0,0,0-2.85-2.85,7.81,7.81,0,0,1-3.43-.5,4.73,4.73,0,0,1-2.26-1.41c-1.77-3.22-6.7-.34-4.93,2.88Z"/><path class="cls-2" d="M159.47,61.55l-8.22,14.37a2.89,2.89,0,0,0,2.46,4.29L174.29,82c3.66.32,3.64-5.39,0-5.7l-20.59-1.78,2.46,4.29,8.22-14.37c1.83-3.19-3.1-6.07-4.93-2.88Z"/><path class="cls-2" d="M193.65,69.81c3.79-5.14,7.91,5.65,3.56,9.34-2.85,2.42-7.81,2.38-11.18,4.07-3.17,1.59-1.36,6,1.68,6.2a40.77,40.77,0,0,1,16.47,4.84c3.78,2,7.15-3.74,3.36-5.74a48.92,48.92,0,0,0-19.83-5.75l1.68,6.2c4.4-2.2,9.55-1.83,13.17-5.63,3-3.2,3.9-8.06,3.11-12.29-1.76-9.44-11.89-12.57-17.76-4.6-2.54,3.45,3.23,6.77,5.74,3.36Z"/><path class="cls-3" d="M94.56,281.71l7.39,52s-4.43,5.32-8-.3c-1.48-11.23-7.1-51.14-7.1-51.14Z"/><path class="cls-4" d="M67.65,130.45,48.14,252.25l20.1,31.53H92.93c37.31,0,67.55-36.33,67.55-81.15s-30.24-81.15-67.55-81.15L71,122.37Z"/><path class="cls-3" d="M62.63,281.59,33.36,346.93s-6.21,3.84-5.62-3.25c3.55-7.39,28.08-65,28.08-65S58.49,276.86,62.63,281.59Z"/><ellipse class="cls-5" cx="75.19" cy="203.08" rx="67.55" ry="80.71"/><path class="cls-6" d="M74.45,266.34c28.69,0,52-28.51,52-63.56s-23.34-63.56-52-63.56-52,28.51-52,63.56S45.76,266.34,74.45,266.34Z"/><path class="cls-5" d="M74.45,248.6c9.36,0,18.36-4.4,25.34-12.38,7.68-8.79,11.91-20.61,11.91-33.3s-4.23-24.51-11.91-33.3c-7-8-16-12.38-25.34-12.38s-18.36,4.4-25.34,12.38c-7.68,8.79-11.91,20.61-11.91,33.3s4.23,24.51,11.91,33.3C56.1,244.21,65.09,248.6,74.45,248.6Z"/><path class="cls-6" d="M74.45,230.57c5,0,10.08-2.33,14.21-6.55a31,31,0,0,0,0-42.17c-4.13-4.23-9.18-6.55-14.21-6.55s-10.08,2.33-14.21,6.55a31,31,0,0,0,0,42.17C64.38,228.24,69.42,230.57,74.45,230.57Z"/><path class="cls-5" d="M74.75,214.31a8.93,8.93,0,0,0,4.62-1.86,11.39,11.39,0,0,0,0-19,8.92,8.92,0,0,0-4.61-1.86,8.93,8.93,0,0,0-4.62,1.86,11.39,11.39,0,0,0,0,19A8.92,8.92,0,0,0,74.75,214.31Z"/><path class="cls-3" d="M141.86,344.68l-29.27-65.33s-6.21-3.84-5.62,3.25c3.55,7.39,28.08,65,28.08,65S137.72,349.41,141.86,344.68Z"/></g><g id="goal3"><path class="cls-1" d="M353.64,14.68l8.67,108.7c.26,3.21,5.3,3.24,5,0l-8.67-108.7c-.26-3.21-5.3-3.24-5,0Z"/><path class="cls-1" d="M360.41,17.14c11.87-1.51,24.4-2.84,35.09,5.39,5.45,4.2,10.09,10.66,15.49,15,9.91,8,21.52,8.3,32.66,8.43l67.16.8L492.93,68.18l31.45,34.91c-34.46-4.94-70.59,23.25-102.77,3.27-9.77-6.07-18.33-16.24-28.07-22.45s-21.81-7.74-30,2.67Q359.9,51,358.41,15"/><path class="cls-2" d="M387.86,45.93c-1.76-4-6.27-5.66-10.42-4.9-4.65.86-7.8,4.65-8.91,9.11-1.05,4.25-1.12,11.14,2.58,14.2,4.35,3.59,9.48-.14,12.38-3.65l-4.77-1.26A4.77,4.77,0,0,1,377,64.49c-2.72,2.47,1.32,6.5,4,4a10.47,10.47,0,0,0,3.15-10.6c-.47-2-3.4-2.92-4.77-1.26s-4.33,4.75-5.53.91a12.43,12.43,0,0,1,.45-7.08c1.32-3.41,6.62-6.1,8.56-1.68,1.47,3.35,6.39.45,4.93-2.88Z"/><path class="cls-2" d="M376.36,57.55a19.28,19.28,0,0,1,8.84,3.79c1.24.94,3.18.18,3.9-1a2.92,2.92,0,0,0-1-3.9A22.83,22.83,0,0,0,377.87,52a2.94,2.94,0,0,0-3.51,2,2.87,2.87,0,0,0,2,3.51Z"/><path class="cls-2" d="M409.46,55.18c-3-4.59-9.37-5-13.46-1.56-5.1,4.25-3.1,11.75,1.88,15.15,5.2,3.54,13.56,1.85,15.51-4.65,1.43-4.76-1.66-13.64-7.88-10.19-3.21,1.78-.34,6.71,2.88,4.93-1,.54-.61-.47-.57.89,0,.46.2.92.21,1.4a3.24,3.24,0,0,1-1.5,3c-2.33,1.59-5.35.59-6.93-1.55-1.25-1.68-1.34-3.91.62-5,1.3-.75,3.39-1,4.31.46,2,3.07,6.93.22,4.93-2.88Z"/><path class="cls-2" d="M426.4,57.43c-6.4,3.64-11.55,9.87-15.29,16.12-1.89,3.16,3,6,4.93,2.88,3.24-5.42,7.69-10.91,13.25-14.07,3.19-1.82.32-6.75-2.88-4.93Z"/><path class="cls-2" d="M425.61,61.55c0,5.59-.36,11.18-.39,16.77,0,3.67,5.69,3.68,5.7,0,0-5.59.36-11.18.39-16.77,0-3.67-5.69-3.68-5.7,0Z"/><path class="cls-2" d="M415.15,71c1.84,3.34,7,5.1,10.62,4.74a2.93,2.93,0,0,0,2.85-2.85,2.87,2.87,0,0,0-2.85-2.85,7.81,7.81,0,0,1-3.43-.5,4.73,4.73,0,0,1-2.26-1.41c-1.77-3.22-6.7-.34-4.93,2.88Z"/><path class="cls-2" d="M442.6,62.25l-8.22,14.37a2.89,2.89,0,0,0,2.46,4.29l20.59,1.78c3.66.32,3.64-5.39,0-5.7l-20.59-1.78,2.46,4.29,8.22-14.37c1.83-3.19-3.1-6.07-4.93-2.88Z"/><path class="cls-2" d="M471.94,65.38c4.64.69,9.21,1.59,13.76,2.71l-.6-4.57q-5.83,3.53-11.87,6.69c-1.8.94-1.43,3.3,0,4.32,3.26,2.33,8,.81,9.26,6,1.85,7.57-11.85,12.87-12.76,4.61-.35-3.16-5.35-3.2-5,0,1.18,10.62,14.64,11.71,20.46,3.94a11.44,11.44,0,0,0,1.44-11.72,11.64,11.64,0,0,0-3.93-4.71c-2.1-1.46-5-1.06-6.95-2.43v4.32q6-3.16,11.87-6.69a2.53,2.53,0,0,0-.6-4.57c-4.55-1.12-9.13-2-13.76-2.71-3.15-.47-4.51,4.35-1.33,4.82Z"/><path class="cls-3" d="M374.85,281.71l7.39,52s-4.43,5.32-8-.3c-1.48-11.23-7.1-51.14-7.1-51.14Z"/><path class="cls-4" d="M347.94,130.45l-19.51,121.8,20.1,31.53h24.69c37.31,0,67.55-36.33,67.55-81.15s-30.24-81.15-67.55-81.15l-21.93.89Z"/><path class="cls-3" d="M342.92,281.59l-29.27,65.33s-6.21,3.84-5.62-3.25c3.55-7.39,28.08-65,28.08-65S338.78,276.86,342.92,281.59Z"/><ellipse class="cls-5" cx="355.48" cy="203.08" rx="67.55" ry="80.71"/><path class="cls-6" d="M354.74,266.34c28.69,0,52-28.51,52-63.56s-23.34-63.56-52-63.56-52,28.51-52,63.56S326.05,266.34,354.74,266.34Z"/><path class="cls-5" d="M354.74,248.6c9.36,0,18.36-4.4,25.34-12.38,7.68-8.79,11.91-20.61,11.91-33.3s-4.23-24.51-11.91-33.3c-7-8-16-12.38-25.34-12.38s-18.36,4.4-25.34,12.38c-7.68,8.79-11.91,20.61-11.91,33.3s4.23,24.51,11.91,33.3C336.39,244.21,345.38,248.6,354.74,248.6Z"/><path class="cls-6" d="M354.74,230.57c5,0,10.08-2.33,14.21-6.55a31,31,0,0,0,0-42.17c-4.13-4.23-9.18-6.55-14.21-6.55s-10.08,2.33-14.21,6.55a31,31,0,0,0,0,42.17C344.67,228.24,349.71,230.57,354.74,230.57Z"/><path class="cls-5" d="M355,214.31a8.93,8.93,0,0,0,4.62-1.86,11.39,11.39,0,0,0,0-19,6.65,6.65,0,0,0-9.23,0,11.39,11.39,0,0,0,0,19A8.92,8.92,0,0,0,355,214.31Z"/><path class="cls-3" d="M422.15,344.68l-29.27-65.33s-6.21-3.84-5.62,3.25c3.55,7.39,28.08,65,28.08,65S418,349.41,422.15,344.68Z"/></g></svg>