<svg id="Layer_1" data-name="Layer 1" xmlns="http://www.w3.org/2000/svg" xmlns:xlink="http://www.w3.org/1999/xlink" viewBox="0 0 500 188.01"><defs><style>.cls-1{fill:#ffd719;}.cls-2{fill:#fff;}.cls-3{fill:#723d1d;}.cls-4{fill:#579baa;}.cls-5{fill:#74cee2;}.cls-6{fill:#ebeff0;}</style></defs><title>timeManagementArtboard 48</title><path class="cls-1" d="M204.78,30l4,49.92c.12,1.48,2.43,1.49,2.32,0L207.1,30c-.12-1.48-2.43-1.49-2.32,0Z"/><path class="cls-1" d="M207.89,31.12c5.45-.69,11.21-1.3,16.12,2.48,2.5,1.93,4.63,4.9,7.11,6.9,4.55,3.67,9.88,3.81,15,3.87l30.85.37-8.21,9.83,14.44,16c-15.83-2.27-32.42,10.68-47.2,1.5-4.49-2.79-8.42-7.46-12.89-10.31s-10-3.55-13.76,1.23Q207.66,46.69,207,30.16"/><path class="cls-2" d="M220.5,44.35a4.27,4.27,0,0,0-4.79-2.25,5.35,5.35,0,0,0-4.09,4.19c-.48,2-.51,5.12,1.19,6.52,2,1.65,4.35-.06,5.69-1.68l-2.19-.58a2.19,2.19,0,0,1-.77,2.32c-1.25,1.14.61,3,1.85,1.85a4.81,4.81,0,0,0,1.45-4.87,1.32,1.32,0,0,0-2.19-.58c-.68.83-2,2.18-2.54.42a5.71,5.71,0,0,1,.2-3.25c.6-1.57,3-2.8,3.93-.77.68,1.54,2.94.21,2.26-1.32Z"/><path class="cls-2" d="M215.22,49.68a8.86,8.86,0,0,1,4.06,1.74,1.32,1.32,0,0,0,1.79-.47,1.34,1.34,0,0,0-.47-1.79,10.49,10.49,0,0,0-4.69-2,1.35,1.35,0,0,0-1.61.92,1.32,1.32,0,0,0,.92,1.61Z"/><path class="cls-2" d="M230.42,48.59a4.18,4.18,0,0,0-6.18-.72c-2.34,2-1.42,5.4.87,7s6.23.85,7.12-2.14c.66-2.19-.76-6.26-3.62-4.68-1.47.82-.15,3.08,1.32,2.26-.44.25-.28-.21-.26.41,0,.21.09.42.1.64a1.49,1.49,0,0,1-.69,1.4,2.36,2.36,0,0,1-3.18-.71,1.54,1.54,0,0,1,2.26-2.1c.91,1.41,3.18.1,2.26-1.32Z"/><path class="cls-2" d="M238.2,49.63a20.62,20.62,0,0,0-7,7.4,1.31,1.31,0,0,0,2.26,1.32,18,18,0,0,1,6.08-6.46,1.31,1.31,0,0,0-1.32-2.26Z"/><path class="cls-2" d="M237.84,51.52c0,2.57-.17,5.13-.18,7.7a1.31,1.31,0,0,0,2.62,0c0-2.57.17-5.13.18-7.7a1.31,1.31,0,0,0-2.62,0Z"/><path class="cls-2" d="M233,55.88c.84,1.53,3.21,2.34,4.88,2.18a1.35,1.35,0,0,0,1.31-1.31,1.32,1.32,0,0,0-1.31-1.31,3.59,3.59,0,0,1-1.58-.23,2.17,2.17,0,0,1-1-.65c-.81-1.48-3.08-.16-2.26,1.32Z"/><path class="cls-2" d="M245.64,51.84l-3.78,6.6a1.33,1.33,0,0,0,1.13,2l9.46.82c1.68.15,1.67-2.48,0-2.62L243,57.79l1.13,2,3.78-6.6a1.31,1.31,0,0,0-2.26-1.32Z"/><path class="cls-2" d="M261.34,55.63c1.74-2.36,3.63,2.59,1.63,4.29-1.31,1.11-3.59,1.09-5.13,1.87s-.62,2.75.77,2.85a18.73,18.73,0,0,1,7.56,2.22c1.74.92,3.28-1.72,1.54-2.64a22.47,22.47,0,0,0-9.11-2.64l.77,2.85c2-1,4.39-.84,6-2.59a6.53,6.53,0,0,0,1.43-5.64c-.81-4.34-5.46-5.78-8.16-2.11-1.17,1.59,1.48,3.11,2.64,1.54Z"/><path class="cls-3" d="M215.83,153l3.39,23.9s-2,2.44-3.67-.14c-.68-5.16-3.26-23.49-3.26-23.49Z"/><path class="cls-4" d="M203.47,83.49l-9,55.94,9.23,14.48h11.34c17.13,0,31-16.69,31-37.27s-13.89-37.27-31-37.27L205,79.78Z"/><path class="cls-3" d="M201.16,152.9l-13.44,30s-2.85,1.77-2.58-1.49c1.63-3.39,12.9-29.87,12.9-29.87S199.26,150.73,201.16,152.9Z"/><ellipse class="cls-5" cx="206.93" cy="116.84" rx="31.02" ry="37.07"/><path class="cls-6" d="M206.6,145.9c13.18,0,23.9-13.1,23.9-29.19s-10.72-29.19-23.9-29.19-23.9,13.1-23.9,29.19S193.42,145.9,206.6,145.9Z"/><path class="cls-5" d="M206.6,137.75a15.5,15.5,0,0,0,11.64-5.68,24.11,24.11,0,0,0,0-30.59,14.75,14.75,0,0,0-23.27,0,24.11,24.11,0,0,0,0,30.59A15.5,15.5,0,0,0,206.6,137.75Z"/><path class="cls-6" d="M206.6,129.47a9.24,9.24,0,0,0,6.53-3,14.26,14.26,0,0,0,0-19.37,8.58,8.58,0,0,0-13.05,0,14.26,14.26,0,0,0,0,19.37A9.24,9.24,0,0,0,206.6,129.47Z"/><path class="cls-5" d="M206.73,122a4.1,4.1,0,0,0,2.12-.86,5.23,5.23,0,0,0,0-8.74,3.06,3.06,0,0,0-4.24,0,5.23,5.23,0,0,0,0,8.74A4.1,4.1,0,0,0,206.73,122Z"/><path class="cls-3" d="M237.55,181.88l-13.44-30s-2.85-1.77-2.58,1.49c1.63,3.39,12.9,29.87,12.9,29.87S235.65,184.05,237.55,181.88Z"/><path class="cls-1" d="M313.38,30.32l4,49.92c.12,1.48,2.43,1.49,2.32,0l-4-49.92c-.12-1.48-2.43-1.49-2.32,0Z"/><path class="cls-1" d="M316.49,31.44c5.45-.69,11.21-1.3,16.12,2.48,2.5,1.93,4.63,4.9,7.11,6.9,4.55,3.67,9.88,3.81,15,3.87l30.85.37-8.21,9.83,14.44,16c-15.83-2.27-32.42,10.68-47.2,1.5-4.49-2.79-8.42-7.46-12.89-10.31s-10-3.55-13.76,1.23Q316.25,47,315.57,30.48"/><path class="cls-2" d="M329.1,44.67a4.27,4.27,0,0,0-4.79-2.25,5.35,5.35,0,0,0-4.09,4.19c-.48,2-.51,5.12,1.19,6.52,2,1.65,4.35-.06,5.69-1.68l-2.19-.58a2.19,2.19,0,0,1-.77,2.32c-1.25,1.14.61,3,1.85,1.85a4.81,4.81,0,0,0,1.45-4.87,1.32,1.32,0,0,0-2.19-.58c-.68.83-2,2.18-2.54.42a5.71,5.71,0,0,1,.2-3.25c.6-1.57,3-2.8,3.93-.77.68,1.54,2.94.21,2.26-1.32Z"/><path class="cls-2" d="M323.81,50a8.86,8.86,0,0,1,4.06,1.74,1.32,1.32,0,0,0,1.79-.47,1.34,1.34,0,0,0-.47-1.79,10.49,10.49,0,0,0-4.69-2,1.35,1.35,0,0,0-1.61.92,1.32,1.32,0,0,0,.92,1.61Z"/><path class="cls-2" d="M339,48.92a4.18,4.18,0,0,0-6.18-.72c-2.34,2-1.42,5.4.87,7s6.23.85,7.12-2.14c.66-2.19-.76-6.26-3.62-4.68-1.47.82-.15,3.08,1.32,2.26-.44.25-.28-.21-.26.41,0,.21.09.42.1.64a1.49,1.49,0,0,1-.69,1.4,2.36,2.36,0,0,1-3.18-.71,1.54,1.54,0,0,1,2.26-2.1c.91,1.41,3.18.1,2.26-1.32Z"/><path class="cls-2" d="M346.79,50a20.62,20.62,0,0,0-7,7.4A1.31,1.31,0,0,0,342,58.68a18,18,0,0,1,6.08-6.46A1.31,1.31,0,0,0,346.79,50Z"/><path class="cls-2" d="M346.43,51.84c0,2.57-.17,5.13-.18,7.7a1.31,1.31,0,0,0,2.62,0c0-2.57.17-5.13.18-7.7a1.31,1.31,0,0,0-2.62,0Z"/><path class="cls-2" d="M341.63,56.2c.84,1.53,3.21,2.34,4.88,2.18a1.35,1.35,0,0,0,1.31-1.31,1.32,1.32,0,0,0-1.31-1.31,3.59,3.59,0,0,1-1.58-.23,2.17,2.17,0,0,1-1-.65c-.81-1.48-3.08-.16-2.26,1.32Z"/><path class="cls-2" d="M354.23,52.16l-3.78,6.6a1.33,1.33,0,0,0,1.13,2l9.46.82c1.68.15,1.67-2.48,0-2.62l-9.46-.82,1.13,2,3.78-6.6a1.31,1.31,0,0,0-2.26-1.32Z"/><path class="cls-2" d="M367.71,53.6c2.13.32,4.23.73,6.32,1.25l-.27-2.1q-2.68,1.62-5.45,3.07a1.16,1.16,0,0,0,0,2c1.5,1.07,3.51.22,4.22,2.62,1,3.55-5.27,6.19-5.87,1.94-.2-1.46-2.42-.84-2.21.61.67,4.79,6.87,4.84,9.37,1.49a5.27,5.27,0,0,0,.56-5.55,5.48,5.48,0,0,0-1.67-2c-1-.7-2.34-.5-3.24-1.14v2q2.78-1.45,5.45-3.07a1.16,1.16,0,0,0-.27-2.1c-2.09-.51-4.19-.93-6.32-1.25-1.45-.22-2.07,2-.61,2.21Z"/><path class="cls-3" d="M323.12,153l3.39,23.9s-2,2.44-3.67-.14c-.68-5.16-3.26-23.49-3.26-23.49Z"/><path class="cls-4" d="M310.76,83.49l-9,55.94L311,153.91h11.34c17.13,0,31-16.69,31-37.27s-13.89-37.27-31-37.27l-10.07.41Z"/><path class="cls-3" d="M308.45,152.9l-13.44,30s-2.85,1.77-2.58-1.49c1.63-3.39,12.9-29.87,12.9-29.87S306.55,150.73,308.45,152.9Z"/><ellipse class="cls-5" cx="314.22" cy="116.84" rx="31.02" ry="37.07"/><path class="cls-6" d="M313.89,145.9c13.18,0,23.9-13.1,23.9-29.19s-10.72-29.19-23.9-29.19S290,100.61,290,116.71,300.71,145.9,313.89,145.9Z"/><path class="cls-5" d="M313.89,137.75a15.5,15.5,0,0,0,11.64-5.68,24.11,24.11,0,0,0,0-30.59,14.75,14.75,0,0,0-23.27,0,24.11,24.11,0,0,0,0,30.59A15.5,15.5,0,0,0,313.89,137.75Z"/><path class="cls-6" d="M313.89,129.47a9.24,9.24,0,0,0,6.53-3,14.26,14.26,0,0,0,0-19.37,8.58,8.58,0,0,0-13.05,0,14.26,14.26,0,0,0,0,19.37A9.24,9.24,0,0,0,313.89,129.47Z"/><path class="cls-5" d="M314,122a4.1,4.1,0,0,0,2.12-.86,5.23,5.23,0,0,0,0-8.74,3.06,3.06,0,0,0-4.24,0,5.23,5.23,0,0,0,0,8.74A4.1,4.1,0,0,0,314,122Z"/><path class="cls-3" d="M344.84,181.88l-13.44-30s-2.85-1.77-2.58,1.49c1.63,3.39,12.9,29.87,12.9,29.87S342.94,184.05,344.84,181.88Z"/><path class="cls-1" d="M421.58,31.26l4,49.92c.12,1.48,2.43,1.49,2.32,0l-4-49.92c-.12-1.48-2.43-1.49-2.32,0Z"/><path class="cls-1" d="M424.69,32.38c5.45-.69,11.21-1.3,16.12,2.48,2.5,1.93,4.63,4.9,7.11,6.9,4.55,3.67,9.88,3.81,15,3.87l30.85.37-8.21,9.83,14.44,16c-15.83-2.27-32.42,10.68-47.2,1.5-4.49-2.79-8.42-7.46-12.89-10.31s-10-3.55-13.76,1.23Q424.46,48,423.77,31.42"/><path class="cls-2" d="M437.3,45.61a4.27,4.27,0,0,0-4.79-2.25,5.35,5.35,0,0,0-4.09,4.19c-.48,2-.51,5.12,1.19,6.52,2,1.65,4.35-.06,5.69-1.68l-2.19-.58a2.19,2.19,0,0,1-.77,2.32c-1.25,1.14.61,3,1.85,1.85a4.81,4.81,0,0,0,1.45-4.87,1.32,1.32,0,0,0-2.19-.58c-.68.83-2,2.18-2.54.42a5.71,5.71,0,0,1,.2-3.25c.6-1.57,3-2.8,3.93-.77.68,1.54,2.94.21,2.26-1.32Z"/><path class="cls-2" d="M432,50.94a8.86,8.86,0,0,1,4.06,1.74,1.32,1.32,0,0,0,1.79-.47,1.34,1.34,0,0,0-.47-1.79,10.49,10.49,0,0,0-4.69-2,1.35,1.35,0,0,0-1.61.92,1.32,1.32,0,0,0,.92,1.61Z"/><path class="cls-2" d="M447.22,49.86a4.18,4.18,0,0,0-6.18-.72c-2.34,2-1.42,5.4.87,7s6.23.85,7.12-2.14c.66-2.19-.76-6.26-3.62-4.68-1.47.82-.15,3.08,1.32,2.26-.44.25-.28-.21-.26.41,0,.21.09.42.1.64a1.49,1.49,0,0,1-.69,1.4,2.36,2.36,0,0,1-3.18-.71,1.54,1.54,0,0,1,2.26-2.1c.91,1.41,3.18.1,2.26-1.32Z"/><path class="cls-2" d="M455,50.89a20.62,20.62,0,0,0-7,7.4,1.31,1.31,0,0,0,2.26,1.32,18,18,0,0,1,6.08-6.46A1.31,1.31,0,0,0,455,50.89Z"/><path class="cls-2" d="M454.64,52.78c0,2.57-.17,5.13-.18,7.7a1.31,1.31,0,0,0,2.62,0c0-2.57.17-5.13.18-7.7a1.31,1.31,0,0,0-2.62,0Z"/><path class="cls-2" d="M449.83,57.14c.84,1.53,3.21,2.34,4.88,2.18A1.35,1.35,0,0,0,456,58a1.32,1.32,0,0,0-1.31-1.31,3.59,3.59,0,0,1-1.58-.23,2.17,2.17,0,0,1-1-.65c-.81-1.48-3.08-.16-2.26,1.32Z"/><path class="cls-2" d="M462.44,53.1l-3.78,6.6a1.33,1.33,0,0,0,1.13,2l9.46.82c1.68.15,1.67-2.48,0-2.62l-9.46-.82,1.13,2,3.78-6.6a1.31,1.31,0,0,0-2.26-1.32Z"/><path class="cls-2" d="M478.26,54.29c1.25,0,1.28-.26,1,1-.2.83-.3,1.7-.46,2.54l-1.06,5.94c-.27,1.51,2,2.16,2.32.64.6-3.37,1.63-6.93,1.84-10.34.13-2.16-1.85-2.28-3.6-2.22-1.54.05-1.55,2.46,0,2.4Z"/><path class="cls-2" d="M473.69,66.32a72.83,72.83,0,0,1,10.11.44c1.53.17,1.52-2.23,0-2.4a72.83,72.83,0,0,0-10.11-.44,1.2,1.2,0,0,0,0,2.4Z"/><path class="cls-3" d="M431.71,153l3.39,23.9s-2,2.44-3.67-.14c-.68-5.16-3.26-23.49-3.26-23.49Z"/><path class="cls-4" d="M419.36,83.49l-9,55.94,9.23,14.48H431c17.13,0,31-16.69,31-37.27S448.1,79.37,431,79.37l-10.07.41Z"/><path class="cls-3" d="M417,152.9l-13.44,30s-2.85,1.77-2.58-1.49c1.63-3.39,12.9-29.87,12.9-29.87S415.15,150.73,417,152.9Z"/><ellipse class="cls-5" cx="422.82" cy="116.84" rx="31.02" ry="37.07"/><path class="cls-6" d="M422.48,145.9c13.18,0,23.9-13.1,23.9-29.19s-10.72-29.19-23.9-29.19-23.9,13.1-23.9,29.19S409.3,145.9,422.48,145.9Z"/><path class="cls-5" d="M422.48,137.75a15.5,15.5,0,0,0,11.64-5.68,24.11,24.11,0,0,0,0-30.59,14.75,14.75,0,0,0-23.27,0,24.11,24.11,0,0,0,0,30.59A15.5,15.5,0,0,0,422.48,137.75Z"/><path class="cls-6" d="M422.48,129.47a9.24,9.24,0,0,0,6.53-3,14.26,14.26,0,0,0,0-19.37,8.58,8.58,0,0,0-13.05,0,14.26,14.26,0,0,0,0,19.37A9.24,9.24,0,0,0,422.48,129.47Z"/><path class="cls-5" d="M422.62,122a4.1,4.1,0,0,0,2.12-.86,5.23,5.23,0,0,0,0-8.74,3.06,3.06,0,0,0-4.24,0,5.23,5.23,0,0,0,0,8.74A4.1,4.1,0,0,0,422.62,122Z"/><path class="cls-3" d="M453.44,181.88l-13.44-30s-2.85-1.77-2.58,1.49c1.63,3.39,12.9,29.87,12.9,29.87S451.54,184.05,453.44,181.88Z"/><image width="314" height="352" transform="scale(0.53)" xlink:href="../../page69-objects_03.png"/></svg>