<svg id="Layer_1" data-name="Layer 1" xmlns="http://www.w3.org/2000/svg" xmlns:xlink="http://www.w3.org/1999/xlink" viewBox="0 0 605 601.88"><defs><style>.cls-1,.cls-13,.cls-22,.cls-23,.cls-25,.cls-28,.cls-3,.cls-31,.cls-32,.cls-33{fill:none;}.cls-2{fill:#e5b09b;}.cls-23,.cls-3{stroke:#b2e2f0;}.cls-13,.cls-21,.cls-22,.cls-23,.cls-24,.cls-25,.cls-28,.cls-3,.cls-31,.cls-32,.cls-33{stroke-miterlimit:10;}.cls-3{stroke-width:0.82px;}.cls-4{fill:#c7ebf3;}.cls-5{fill:#050e2a;}.cls-6{fill:#091330;}.cls-7{fill:#ace2ee;}.cls-8{fill:#e4beb1;}.cls-9{fill:#231f20;}.cls-10{fill:#efc8b7;}.cls-11,.cls-21,.cls-24{fill:#ffd3c0;}.cls-12{fill:#492e20;}.cls-13,.cls-21,.cls-22,.cls-24,.cls-25,.cls-28,.cls-32,.cls-33{stroke:#e5b09b;}.cls-13{stroke-width:0.3px;}.cls-14{clip-path:url(#clip-path);}.cls-15,.cls-18{fill:#fff;}.cls-16{fill:#494d55;}.cls-17{fill:#080a09;}.cls-18{opacity:0.73;}.cls-19{clip-path:url(#clip-path-2);}.cls-20{fill:#720000;}.cls-21{stroke-width:0.46px;}.cls-22{stroke-width:0.23px;}.cls-23{stroke-width:0.92px;}.cls-24{stroke-width:0.41px;}.cls-25{stroke-width:0.2px;}.cls-26{fill:#00011f;}.cls-27{fill:#1a1a1a;}.cls-28{stroke-width:0.29px;}.cls-29{clip-path:url(#clip-path-3);}.cls-30{clip-path:url(#clip-path-4);}.cls-31{stroke:#bbbdbf;stroke-width:1.35px;}.cls-32{stroke-width:0.81px;}.cls-33{stroke-width:0.68px;}.cls-34{fill:#d61a69;}</style><clipPath id="clip-path"><path class="cls-1" d="M165.82,189.11s-.32-3.61-7.62-3.65a6.58,6.58,0,0,0-4.57,2s2.57.4,5,.71S165.82,189.11,165.82,189.11Z"/></clipPath><clipPath id="clip-path-2"><path class="cls-1" d="M184.11,193.39s.23-3.42-5.6-4.23a5.15,5.15,0,0,0-3.92,1.36s2,.65,3.93,1.2S184.11,193.39,184.11,193.39Z"/></clipPath><clipPath id="clip-path-3"><path class="cls-1" d="M438.09,180.82s.62-3.23,7.23-2.6a6,6,0,0,1,3.95,2.2,12.49,12.49,0,0,1-4.36,1A54.16,54.16,0,0,1,438.09,180.82Z"/></clipPath><clipPath id="clip-path-4"><path class="cls-1" d="M419.33,181s.55-3.26,6-2.7a4.8,4.8,0,0,1,3.25,2.17,9.15,9.15,0,0,1-3.63,1.1A37,37,0,0,1,419.33,181Z"/></clipPath></defs><title>timeManagementArtboard 23</title><path class="cls-2" d="M418.85,366.61a13.53,13.53,0,0,0-3.27-3.28l2.46.05Z"/><path class="cls-3" d="M412.68,285.29c7.68.51,12.05,2.4,13.69,9.8s.34,15.92-.72,22.05-5.31,32.75-5.79,34.61a58.67,58.67,0,0,0-.9,6.16"/><path class="cls-4" d="M178,216.54s14.78,4.81,17.53,13.45,3.67,10.15,3.6,16.46.28,17.26.28,17.26l.86,28.58-22-15.15s-3.38-11.11-3.66-13.24-2.46-40.49-3.29-41.5S174.89,216.05,178,216.54Z"/><path d="M145.23,568.23l-.19,7.95a2.51,2.51,0,0,0-.78,2c0,1.39-1.95,4.57,0,5S161,584.72,161,584.72l1.17-1.59s4.29,1,5.07,1.19a56.25,56.25,0,0,0,15.2,2.78c7.79.2,20.46.6,19.88-1.59s-1.17-5.17-2.14-6.75-1.36-1.79-3.51-2-9.55-1.19-10.91-2.38-6-4.37-7.79-6-5.85-4.77-6.63-4.77-3.12,3-3.7,3.77-6.63,2.38-8.77,2.38S145.23,568.23,145.23,568.23Z"/><path class="cls-5" d="M164.18,350.69c-.19-2-3-32.72-4.37-37.83s-22.31,2.35-25,3.39c-2,.76-14.56,12.59-21,18.75l-6.65-7.77s-4.47,20.18,10.46,47.44L120,379c.84,2.77,1.64,5.21,2.38,7.11,4.78,12.25,13.92,34.1,15.12,37.17,1,2.56,3.92,12.24,5.39,17.62,10.63,6.55,31,14.08,36.67-1.29-.52-8.17-.79-13.5-2-18.56C174.85,409.36,164.37,352.73,164.18,350.69Z"/><path class="cls-5" d="M143.14,428.91c0,3-.05,5.57-.13,7-.22,4-2.47,24.4-3.82,35.26s-.12,38.3,1,51-2,52.26,9.11,51c0,0,3.38,1,10.64-.95s12-6.29,11.87-8.68c-.31-6-4.5-38.31-3.48-46.46s2.28-39.83,4-46.7c1.57-6.36,5.9-17.58,7.36-30.74C169.24,420.84,153.3,419.8,143.14,428.91Z"/><path class="cls-6" d="M146.81,358.36c.27-2.07,4.24-33.12,4-38.5s-22.29-2.75-25.11-2.32c-2.08.31-17,9.17-24.64,13.8l-4.79-9.22s-8.78,19-.17,49.41l1.36,4.8c.21,2.94.46,5.54.77,7.59,2,13.24,6.12,37,6.62,40.29.41,2.76,1.15,13,1.4,18.7,8.94,8.92,27,23.93,35.94,10,1.29-8.22,2.32-16.48,2.28-21.76C144.39,419,146.55,360.43,146.81,358.36Z"/><path d="M116.86,571.87s6,3.77,7.69,6.56,3.84,7.35,6.41,8.94,6.41,6.75,6.83,7.35a6.82,6.82,0,0,1,.64,2.19s1.07.79.64,1.79-4.91,3.38-11.53,3.18-19.22-2.78-21.78-4.57a23.22,23.22,0,0,1-4.7-4.77s-4.48-.4-5.34-2.38.85-12.71.85-12.71l1.28-3Z"/><path class="cls-4" d="M164.37,341c-1.43,2.59-2.9,2.52-5.42,3.6s-9.95.55-15.37.23-19.42-2.62-22.85-4a33.94,33.94,0,0,1-8.9-5.71c-.86-1-4.82-.62-5.87-.68a35.76,35.76,0,0,1-7-.71c-2.64-.44-5.89-.79-5.71-3.33s6.75-28.08,7.57-30.32,6.22-36.65,6.22-36.65c-7.45-44.41-8.12-53.75-8.12-53.75,2.56-1.23,20.95-5.73,22.91-5.81s11.26-1.35,11.26-1.35l40.68,10.64c-.18-1.18,11.2,7,11.5,16,.11,3.46-1.18,30.9-2.33,33.87Z"/><path class="cls-7" d="M120.33,336.5c-2.68-3.29-8.83-35.81-9.15-43.11s.34-18-.59-24.51-6.15-27.38-6.15-27.38l-.11.3c.48,6.2,1.33,13.37,2.72,21.64,0,0-5.39,34.41-6.22,36.65s-7.4,27.79-7.57,30.32,3.07,2.88,5.71,3.33a35.69,35.69,0,0,0,7,.71c1.05.06,5-.3,5.88.68a33.93,33.93,0,0,0,8.9,5.71,21.08,21.08,0,0,0,2.38.71A22,22,0,0,0,120.33,336.5Z"/><path class="cls-8" d="M171.88,208s-.67,5.78-.74,6c-2.78,3.42-7,8.55-7.58,9.27a14.77,14.77,0,0,1-3.3,2.4L134,205.46l16.59-14.71L152,201l2-.14,1.92,4.87,8.79-3.24Z"/><path class="cls-9" d="M156.58,219.2l8.71.43s2.93,10,2.73,11.51-9.38.16-10.72-1.8S156.58,219.2,156.58,219.2Z"/><path class="cls-7" d="M140.92,198.12,162.87,221s-8.45,5.91-9.07,8.57-23.59-26.19-23.59-26.19S137,198.63,140.92,198.12Z"/><path class="cls-7" d="M161.91,222.16l7.34-5.37s5.41,0,7.21,4.89c-4.82,7.3-5.23,8.42-5.23,8.42S166,222.67,161.91,222.16Z"/><path class="cls-9" d="M160.48,229s-2.74,35.39-2.56,40-3.39,58-3.7,59.28S165.6,336,165.6,336l5.85-8.67s-5-97.91-5.18-98.87S160.48,229,160.48,229Z"/><path class="cls-4" d="M97.47,209.24s-17.15,38.61-21.35,54.39c.68,13.95,14.09,25.89,24.39,11.37s34-47.09,34-47.09S116.47,206.45,97.47,209.24Z"/><path class="cls-10" d="M143.24,176.4s-1.31-1.5-2.07-1.2-2.57,3.91-2.7,6.32,0,4-.19,5a13.62,13.62,0,0,0,.49,5.24c.55,1.19,1.55,3.46,2.73,3.73s2.31.93,2.29-.39a24.29,24.29,0,0,1,.09-2.83c.06-.4,1.75-7.47,1.3-9.36S143.24,176.4,143.24,176.4Z"/><path class="cls-10" d="M191,182.31a3.5,3.5,0,0,1,1.11,3.71c-.56,2.56-.8,3.54-1,5.14a20,20,0,0,1-1.57,5.47c-.68,1.23-.8,3.54-1.9,3.49s-1.85.15-1.26-2.61,2.93-12.38,2.93-12.38Z"/><path class="cls-10" d="M189.69,187.6s1.52-4.36,1.55-2.42a21,21,0,0,1-.1,2.93"/><path class="cls-11" d="M189.93,180s-2.38,15-2.48,15.69S184,206.6,183,208.29s-6.64,9.13-7.39,10.14-6.41,6-10.58,5.33-11.41-4.83-13.42-7.14-7.38-9.75-7.87-12.76a74.67,74.67,0,0,1-.53-8.6l1.4-18.18s5.91-13.39,6.57-13.71,15-3.41,15.38-3.35,15.1,2.39,15.57,2.66,9.83,5.22,9.84,5.93S189.93,180,189.93,180Z"/><path class="cls-12" d="M189.09,170s1.94-1.56,2.15-3.05-.93-3.58-.8-4.48.57-2.66.7-3.56a4.49,4.49,0,0,0-.24-2.67c-.45-1.18-5.25-6.82-7.32-8.73s-3.8-4.08-7-4.72-5.84-1.82-7-.47l-1.44,1.63s1.16-.35-1.69-.23-1.55.19-3.63-.2-4.68-.65-5.39.07-1,2.29-2.65,3-3.37.85-4.66,1.38-4,3.81-4.24,5-3,10.75-3.4,12.11-1.49,7.1-1.29,7.84,3,7,3.06,7.93a10.69,10.69,0,0,1,.25,4.09c-.33,2.39-.32,3.81,0,4.78s1.38.29,1.38.29a22.22,22.22,0,0,1,.95-4.64,13.88,13.88,0,0,0,1.33-5.2c.08-2-1.22-2.2.28-3.51s2-.44,2.72-2.77.15-4.75,1.85-6,1.89-4.1,4.68-3.72a76.87,76.87,0,0,0,9.83.85c2.45-.07,1.37,1.1,5.46.86s4.85-.55,6.38.07a17,17,0,0,0,3.7,1.12c.9.12.41,0,1.36,1.2S186.29,170.38,189.09,170Z"/><path class="cls-12" d="M190,156.18a13.28,13.28,0,0,1,3.16,4.29,17.64,17.64,0,0,1,.93,3.58c.23,1.25.92,1.45.24,5.61s-.39,5-1,6.26a9.8,9.8,0,0,0-1.12,3,14.68,14.68,0,0,1-.6,3.57c-.46,1.15-1.61,2.11-2,3.18a17.2,17.2,0,0,0-.84,3.84,25.84,25.84,0,0,1-.87,4.85c-.31.77-.49,1.35-.49,1.35s1.31-13.11,1.63-14,.72-1.52.3-2.19-1.44-.61-1.28-2.51,1.43-4.47,1.21-5.82-.47-.27-.45-3.31S190,156.18,190,156.18Z"/><path class="cls-13" d="M143.9,185.52s-.73-5-1.56-6.31-.81-2.24-1.39-1.71-.94,3.83-1.17,4.81-.38,2-.5,2.87"/><path class="cls-2" d="M142.7,190.53a21.12,21.12,0,0,0,0-2.64,5.32,5.32,0,0,1-.18-1.65c0-.91-.45-1.89-1-1.15a2.5,2.5,0,0,0-.44,2.48,12.38,12.38,0,0,1,.49,2.3C141.72,190.29,142.24,191,142.7,190.53Z"/><path class="cls-2" d="M188.56,195.77a5.92,5.92,0,0,1,.73-2.33,3,3,0,0,0,.53-2.36c-.1-.72-1.11.66-1.19,1.26s-1,4.13-1,4.13Z"/><path class="cls-2" d="M163.33,200.4c1.31.88,2.79,1.38,4.08,2.27a3.36,3.36,0,0,0,2.91.76,4.44,4.44,0,0,0,1.3-.55c.18-.11.44-.4.64-.45s-.57.1-.06.08c1.09-.06,1.77.44,2.8-.19.38-.24-.18-.39-.42-.24-.94.58-1.57-.17-2.39,0a2,2,0,0,0-.25.09c-.91.25-1,.75-2.17.77-1.42,0-1.95-.86-3.08-1.45a28.41,28.41,0,0,1-2.83-1.37c-.2-.14-.81.15-.52.35Z"/><path class="cls-12" d="M176.44,179.89l4.95,2.41s4,2.71,4.06,3.13.27,1.18.27,1.18a13.91,13.91,0,0,1-3.57-1.92c-2-1.46-4-2.57-5-3.27A1.5,1.5,0,0,1,176.44,179.89Z"/><path class="cls-12" d="M168.14,178.51l-7-.59s-6.16.18-6.53.5-1.12.86-1.12.86a22.33,22.33,0,0,0,5.15.27c3.2-.15,6-.07,7.57-.14S168.14,178.51,168.14,178.51Z"/><g class="cls-14"><path class="cls-15" d="M165.82,189.11s-.32-3.61-7.62-3.65a6.58,6.58,0,0,0-4.57,2s2.53.36,5,.68S165.82,189.11,165.82,189.11Z"/><ellipse class="cls-16" cx="161.73" cy="188.02" rx="2.75" ry="2.48" transform="translate(-31.97 342.89) rotate(-87.94)"/><ellipse class="cls-17" cx="161.74" cy="187.81" rx="1.03" ry="0.93" transform="translate(-31.76 342.7) rotate(-87.94)"/><ellipse class="cls-18" cx="162.82" cy="187.09" rx="0.69" ry="0.62" transform="translate(-30 343.08) rotate(-87.94)"/></g><path class="cls-2" d="M165.82,189.14s-.6-3.1-6.32-3.58a7.45,7.45,0,0,0-5.87,1.9c-.23-.55,1.77-2.59,5.89-2.53S165.75,187.28,165.82,189.14Z"/><g class="cls-19"><path class="cls-15" d="M184.11,193.39s.23-3.42-5.6-4.23a5.15,5.15,0,0,0-3.92,1.36s2,.61,3.9,1.17S184.11,193.39,184.11,193.39Z"/><ellipse class="cls-16" cx="180.99" cy="191.93" rx="2.6" ry="2" transform="translate(-39.39 336.93) rotate(-80.02)"/><ellipse class="cls-17" cx="181.02" cy="191.73" rx="0.98" ry="0.75" transform="translate(-39.17 336.8) rotate(-80.02)"/><ellipse class="cls-18" cx="181.98" cy="191.18" rx="0.65" ry="0.5" transform="matrix(0.17, -0.98, 0.98, 0.17, -37.83, 337.29)"/></g><path class="cls-2" d="M184.11,193.41s-.06-3-4.57-4a5.54,5.54,0,0,0-5,1.16c-.11-.54,1.76-2.24,5.05-1.74S184.3,191.67,184.11,193.41Z"/><path class="cls-20" d="M158.19,209.75a63.62,63.62,0,0,0,8,1.08c3.73.23,4.66,2,4.66,2a4.64,4.64,0,0,0,.35-3.11,3.39,3.39,0,0,0-1.15-1.8l-4-1.08-4.22,1Z"/><path class="cls-15" d="M160.62,208.33s-.06.69,1.12.62a44.44,44.44,0,0,1,5.63,0c.82.17,3.45,1.1,3.45,1.1l-.19-1.37a14.55,14.55,0,0,0-2-1.2,27.49,27.49,0,0,0-3.52-.33C164.68,207.21,160.62,208.33,160.62,208.33Z"/><path class="cls-2" d="M168.81,207.24a8.49,8.49,0,0,0-1.72-.85,21.27,21.27,0,0,0-5.47,1.32c-1.22.56-3.55,2-3.55,2s6.75-2.26,8.09-1.92,2.65.49,3.11.58c1.17.24,2.09,2.69,2.09,2.69s.1-3.71-1-4A2.7,2.7,0,0,0,168.81,207.24Z"/><path class="cls-6" d="M105.57,433.51c-.26,2.94-.53,5.54-.73,6.94-.57,4-4.56,24.09-6.83,34.8s-3.42,38.15-3.42,50.87-2.85,57.56,6.26,51.54c0,0,1.71,1.34,9.11,0s12,0,12-6-.57-40.16,1.14-48.19,5.69-39.49,8-46.18c2.11-6.2,9.26-16.74,11.85-29.73C134.13,428,116.46,425.32,105.57,433.51Z"/><path class="cls-21" d="M137.95,211.89l3.72-6.2s5.11-4.63,6.57-9.62,1.57-7.23,2.47-9.73,4.22-5.74,5.3-7.33,4.44-4.12,5.05-5.56.65-3-.2-3.5-3.11.77-3.66,1.38a30.8,30.8,0,0,1-4,3.51,12.76,12.76,0,0,0-2.81,1.92c-.32.49-4,4.09-4,4.09s4-4.32,4.72-5.3,7.52-7.34,7.52-7.34,2.1-2.11,2.54-2.6,1.27-2.3.3-2.82a3,3,0,0,0-2.93-.18c-.91.52-6.08,4.1-6.51,4.59s-2.84,1.45-3.61,2.32-4.09,4-5.24,6.39c1.65-3.72,5.42-7.33,6.67-7.87a68.31,68.31,0,0,0,9-6.84c.32-.6.33-2.36-.28-2.79a3,3,0,0,0-3.51,0c-1.58,1-9.74,5.36-10.29,6a29.3,29.3,0,0,0-3.07,3.57c-.2.6-2.89,4.5-2.89,4.5s4-7.49,5.8-8.88,10.17-8.08,10.17-8.08,1.06-3.92-5-.88A47.7,47.7,0,0,0,138.65,162a34.89,34.89,0,0,0-2.66,4.48s-2.41-3.13-3.65-2.36a8.31,8.31,0,0,0-.25,3.64,15.19,15.19,0,0,1-1.07,3.69c-.54.73-.45,4.35-.75,5.19A73,73,0,0,0,128,184a32,32,0,0,0,.69,5.81,22.5,22.5,0,0,1,.33,5.59c-.28,1.19-2.2,6.44-2.47,7.75S124.37,211.64,137.95,211.89Z"/><path class="cls-22" d="M136,166.49l-4,8.3s-1.36.66-1.51,4.18"/><path class="cls-22" d="M135.92,177.37s-.85,1.45,2.12,2.22c-.45,2.37.79,3.58,2.3,3.37,1.27,1.8,1.66,4.46,4.71,4.52"/><path class="cls-21" d="M191.16,214.44l-1.64-7s-2.46-5.6-2.46-6.55a156,156,0,0,1,2.73-15.43c.82-2.59,1.77-5.05,1.91-6s-1.23-6.14-1.37-6.55-2.87-4.91-3.82-6.55a20.75,20.75,0,0,1-2-6c0-.82,1.23-1.5,1.23-1.5s-1.37-2.32.27-3.14l1.64-.82a2.55,2.55,0,0,1,2.73-1.09c1.37,1.09,6.69,8.05,6.69,8.05s2.32,6,2.59,7.1,1.37,4.51,1.77,5.6,1.91,3.69,1.91,5.19-.55,5.87-.55,6.42-1.09,10.65-1.09,11.74,0,5.46.14,7.1,1.23,6.69,1.5,8.33S197,217.71,191.16,214.44Z"/><path class="cls-2" d="M188.3,204.2a15.16,15.16,0,0,0,4.23,3l-2.73.41Z"/><path class="cls-22" d="M185.7,158.87s5.32,7,6,8.05,3.55,3,3.69,4.37,3,10.1,3,10.1,1.64.14,1.5,3.41"/><path class="cls-22" d="M188.16,155.32s7.78,9.15,8.19,9.83a36,36,0,0,1,1.37,4.1c.27.82,2.73,7.1,2.73,7.92s1.5,2,1.09,5.05"/><path class="cls-4" d="M189.82,213.82s8.59,1.73,13.5-.47l1.33.47s7.5,28.76,8.22,30.19,10,28.94,10,31.8-2.32,8.93-2.86,9.82-.89,6.25-9.47,7.15-13.75-.36-17-8.22-3.39-17.51-3.39-24.47-.36-37.16-.18-39.3A65.7,65.7,0,0,0,189.82,213.82Z"/><path class="cls-23" d="M210.54,292.78c-8.57.89-13.75-.36-17-8.22s-3.39-17.51-3.39-24.47-.36-37.16-.18-39.3a65.7,65.7,0,0,0-.18-7"/><path class="cls-4" d="M141.88,206.76s-9.53-2.54-13.3-7l-1.52-.09s-20.67,26.69-22,27.87-23.2,25.79-24.53,28.76-1.87,10.31-1.76,11.48-2,6.9,6,11.57,13.63,5.62,20.42-1.17,11.44-16.76,14.67-24,17.57-38.55,18.39-40.86A42.36,42.36,0,0,1,141.88,206.76Z"/><path class="cls-23" d="M128.58,199.79l-1.52-.09s-20.67,26.69-22,27.87-23.2,25.79-24.53,28.76"/><path class="cls-23" d="M84.69,279.38c8,4.67,13.63,5.62,20.42-1.17s11.44-16.76,14.67-24,17.57-38.55,18.39-40.86a42.36,42.36,0,0,1,3.72-6.58s-9.53-2.54-13.3-7"/><path class="cls-7" d="M182.61,229.86s-.69,32.83,2.07,41.55,12.17,17.68,12.17,17.68l1.15,1.38-18.36-12.17Z"/><path class="cls-7" d="M418.45,358.42s-7.15-3.17-11.86-2.2l-1.07-.67s-1-26.52-1.32-27.91-3.12-27.16-2.56-29.66,3.75-7.34,4.39-8,2-5.28,9.64-4.4,11.92,3,13.2,10.45-.43,15.92-1.78,22-6.88,32.46-7.46,34.29A58.67,58.67,0,0,0,418.45,358.42Z"/><path class="cls-7" d="M415.45,222.44s-9.51,3.17-12.68,20.38.91,28.75.91,28.75L413.86,239Z"/><path class="cls-24" d="M417.4,357.62l.08,6.39s1.06,5.36.87,6.19A139.31,139.31,0,0,1,413,383.11c-1.22,2.1-2.53,4.06-2.83,4.87s-.12,5.59-.08,6,1.55,4.84,2.06,6.45a18.53,18.53,0,0,1,.62,5.63c-.16.71-1.36,1.07-1.36,1.07s.74,2.29-.85,2.68l-1.59.4a2.28,2.28,0,0,1-2.59.42c-1-1.22-4.27-8.32-4.27-8.32s-.86-5.69-.89-6.69-.32-4.19-.46-5.22-1-3.58-.66-4.89,1.61-5,1.72-5.49,3-9.07,3.23-10,1.06-4.76,1.26-6.21.22-6.07.3-7.55S412.92,353.63,417.4,357.62Z"/><path class="cls-25" d="M411.4,407.11s-3.29-7.1-3.68-8.18-2.51-3.31-2.37-4.52-.66-9.39-.66-9.39-1.4-.44-.65-3.27"/><path class="cls-25" d="M408.57,409.73s-5-9.48-5.24-10.16a32.15,32.15,0,0,1-.4-3.83c-.08-.77-1-6.72-.85-7.43s-.91-2.08,0-4.61"/><path class="cls-7" d="M425.21,293c4.72-15.88,6.42-25.16,6.42-25.16l-24-36.69L403,272.5s-2,22.67-1.45,25.08.44,5.71,4.39,8.91,9.47,5.95,11.82,5.28S425.21,293,425.21,293Z"/><path class="cls-7" d="M425.56,286.61,410.48,250.5s10.5,31.95,7.21,57.88C424,292.18,426.08,289.64,425.56,286.61Z"/><path d="M449.79,558.53l.2,7.62a2.33,2.33,0,0,1,.82,1.91c0,1.33,2,4.38,0,4.77s-17.62,1.52-17.62,1.52L432,572.82s-4.51,1-5.33,1.14a64.16,64.16,0,0,1-16,2.67c-8.2.19-21.52.57-20.9-1.52s1.23-5,2.25-6.48,1.43-1.72,3.69-1.91,10-1.14,11.47-2.29,6.35-4.19,8.2-5.72,6.15-4.57,7-4.57,3.28,2.86,3.89,3.62,7,2.29,9.22,2.29S449.79,558.53,449.79,558.53Z"/><path d="M472.6,570.21s-5.74,3.62-7.38,6.29-3.69,7.05-6.15,8.58-6.15,6.48-6.56,7.05a6.54,6.54,0,0,0-.61,2.1s-1,.76-.61,1.72,4.71,3.24,11.06,3,18.44-2.67,20.9-4.38a22.28,22.28,0,0,0,4.51-4.57s4.3-.38,5.12-2.29-.82-12.2-.82-12.2l-1.23-2.86Z"/><path class="cls-6" d="M449.38,562.21s-27.32-3.12-29.51-5.62,3.82-18.12,3.82-25,1.64-42.48,0-50.6-2.73-22.49-3.82-28.74-5.46-47.48-5.46-54.35-2.19-48.1-1.09-55.6-1.72-11.6,7-12.85,30.14,3.48,30.14,3.48l27.32,12.49-25.14,105s-1.09,25.61-1.09,30,1.09,31.24,1.09,34.36S449.38,558.46,449.38,562.21Z"/><path class="cls-26" d="M449.11,479.92s-8-34-9.47-42.46-8.61-56.09-5.73-64.07,8.48,3.83,8.48,3.83l13,68.3-2.88,15-.76,22.23Z"/><path class="cls-27" d="M476.32,334.34s11,16.32,7.2,45.59-3.84,25-3.84,25L464.8,367Z"/><path class="cls-6" d="M488.17,577.82s-1.64,1.25-8.74,0-11.47,0-11.47-5.62.55-37.48-1.09-45-5.46-36.86-7.65-43.1-11.47-31.24-13.11-42.48-12-65-12.57-66.84-8.74-30-9.29-35,20.76-5.62,23.5-5.62,30.05,11.24,30.05,11.24,5.46,33.73,5.46,46.23-.55,35-.55,38.11,1.09,16.24,1.64,20,4.37,22.49,6.56,32.48,3.28,35.61,3.28,47.48S496.92,583.45,488.17,577.82Z"/><path class="cls-4" d="M412.9,342.36c1,2.65,2.43,2.77,4.69,4.13s9.38,1.83,14.58,2.22,18.8,0,22.24-.8a32.56,32.56,0,0,0,9.21-4.27c.94-.82,4.67,0,5.67.12A34.31,34.31,0,0,0,476,344c2.57-.08,5.7,0,5.86-2.42s-2.75-27.57-3.24-29.81-1.12-35.65-1.12-35.65c12.88-41.25,14.74-50,14.74-50-2.27-1.51-19.16-8.18-21-8.51s-10.53-2.75-10.53-2.75l-40.06,4.8c.32-1.1-11.56,5.19-13,13.7-.56,3.28-1.57,27.24-.87,30.22Z"/><path class="cls-8" d="M426.11,209.71s-.12,5.58-.08,5.83c2.19,3.62,5.56,9,6,9.8.6,1.06,2.58,5.25,2.58,5.25l24.06-12.1L458,190.87l-3.52,9.44L444,205.24l-2.46,4.38-7.93-4.23Z"/><path class="cls-7" d="M455.35,343.84c3-2.77,13.07-32.89,14.32-39.78s2-17.19,3.76-23.22,9.42-25.23,9.42-25.23l.07.3c-1.26,5.83-3,12.54-5.41,20.21,0,0,.63,33.42,1.12,35.65s3.4,27.38,3.24,29.81-3.3,2.34-5.86,2.42a34.24,34.24,0,0,1-6.71-.23c-1-.08-4.73-.94-5.67-.12a32.55,32.55,0,0,1-9.21,4.27,20.23,20.23,0,0,1-2.35.36A21.06,21.06,0,0,1,455.35,343.84Z"/><path class="cls-9" d="M436.71,222.29l-8.33-.73s-4.08,9.09-4.1,10.58,8.89,1.38,10.43-.31S436.71,222.29,436.71,222.29Z"/><path class="cls-7" d="M458.89,207.47,432.83,222s6.36,9.61,6.27,12.23,26.85-16.76,26.85-16.76S462.44,208.93,458.89,207.47Z"/><path class="cls-7" d="M433,221.76l-6.28-6.07s-5.14-.7-7.49,3.71c3.63,7.57,3.87,8.69,3.87,8.69S429.08,221.71,433,221.76Z"/><path class="cls-9" d="M431.71,231.13s-2,34-2.79,38.38-4.35,55.58-4.22,56.83-11.82,5.8-11.82,5.8l-4.43-9s17.58-92.42,17.83-93.31S431.71,231.13,431.71,231.13Z"/><path class="cls-27" d="M472.62,415.5c.56,0,2.9-1.07,1.65-1.07-.56,0-2.9,1.07-1.65,1.07Z"/><path class="cls-10" d="M461.27,173.84s1.53-1.16,2.17-.73,1.66,4.17,1.32,6.47-.73,3.72-.8,4.78a13.07,13.07,0,0,1-1.48,4.83c-.74,1-2.13,3-3.29,3s-2.35.43-2.07-.81a23.31,23.31,0,0,0,.47-2.68c0-.39-.2-7.36.59-9S461.27,173.84,461.27,173.84Z"/><path class="cls-10" d="M415.2,170.16a3.36,3.36,0,0,0-1.76,3.27c0,2.52.06,3.48,0,5a19.23,19.23,0,0,0,.42,5.44c.4,1.28.06,3.48,1.11,3.65s1.71.5,1.69-2.21-.36-12.2-.36-12.2Z"/><path class="cls-10" d="M415.44,175.39s-.58-4.39-1-2.58a20.11,20.11,0,0,0-.47,2.77"/><path class="cls-11" d="M416.68,168.22s-.66,14.55-.71,15.23,1.12,10.9,1.78,12.68,4.48,9.86,5,11,4.87,6.89,8.92,7.06,11.66-2.33,14-4.11,8.82-7.74,9.87-10.47a71.65,71.65,0,0,0,2.17-8l2.2-17.35s-3-13.73-3.52-14.15S442.94,154,442.56,154s-14.65-.67-15.14-.51-10.25,3-10.39,3.67S416.68,168.22,416.68,168.22Z"/><path class="cls-12" d="M419.42,158.93s-1.52-1.84-1.43-3.28,1.56-3.18,1.62-4.05,0-2.61,0-3.48a4.3,4.3,0,0,1,.74-2.46c.65-1,6.25-5.39,8.56-6.79s4.36-3.1,7.45-3.09,5.84-.58,6.71.92l1,1.81s-1-.55,1.64.11,1.42.48,3.45.52,4.52.3,5.05,1.1.52,2.35,1.91,3.31,3,1.45,4.11,2.2,3,4.35,3,5.51.75,10.68.86,12,0,7-.3,7.62-4.16,6-4.41,6.86a10.26,10.26,0,0,0-1,3.8c-.15,2.31-.43,3.65-1,4.48s-1.35,0-1.35,0a21.32,21.32,0,0,0,0-4.54,13.32,13.32,0,0,1-.24-5.14c.32-1.91,1.57-1.83.41-3.36s-1.78-.79-2-3.13.78-4.49-.57-6-1-4.22-3.68-4.4a73.75,73.75,0,0,1-9.4-1.1c-2.28-.54-1.5.77-5.3-.25s-4.45-1.45-6-1.17a16.34,16.34,0,0,1-3.7.34c-.87-.06-.38-.12-1.51.87S422,159.87,419.42,158.93Z"/><path class="cls-12" d="M421.24,145.8a12.75,12.75,0,0,0-3.8,3.42,16.92,16.92,0,0,0-1.56,3.18c-.46,1.13-1.14,1.18-1.31,5.23s-.6,4.79-.3,6.07a9.4,9.4,0,0,1,.48,3,14.08,14.08,0,0,0-.13,3.47c.21,1.17,1.11,2.3,1.23,3.37a16.5,16.5,0,0,1,0,3.77,24.8,24.8,0,0,0-.12,4.73c.14.78.2,1.37.2,1.37s1.31-12.58,1.17-13.46-.38-1.57.14-2.12,1.47-.29,1.68-2.11-.48-4.48,0-5.7.49-.16,1.07-3S421.24,145.8,421.24,145.8Z"/><path class="cls-28" d="M458.88,182.29s1.65-4.53,2.69-5.62,1.19-2,1.63-1.34.14,3.78.17,4.75,0,1.93-.09,2.8"/><path class="cls-2" d="M459,187.23a20.26,20.26,0,0,1,.55-2.48,5.11,5.11,0,0,0,.49-1.51c.15-.86.79-1.69,1.12-.89a2.4,2.4,0,0,1-.06,2.41,11.87,11.87,0,0,0-.91,2.07C460,187.2,459.39,187.74,459,187.23Z"/><path class="cls-2" d="M414.92,183.28a5.68,5.68,0,0,0-.23-2.34,2.89,2.89,0,0,1,0-2.32c.24-.66.91.83.87,1.41s.12,4.07.12,4.07Z"/><path class="cls-2" d="M437.4,192.15c-1,.41-2.06.4-3.07.71-1.4.43-2.14,1.36-3.67.57-.52-.27-.87-.88-1.36-1.09-.82-.35-1.4.47-2.37-.49-.18-.17-.78.07-.59.26.77.77,1.54.33,2.42.64.65.23,1.5,1.44,2.71,1.53s1.8-.55,2.77-.88,2.3-.5,3.42-.95c.41-.17,0-.43-.26-.31Z"/><path class="cls-15" d="M437.47,201.2a9.61,9.61,0,0,1-9.36,0,4.24,4.24,0,0,1-2.12-2.51,60,60,0,0,0,10.39.2l4.68-1.38A46.47,46.47,0,0,1,437.47,201.2Z"/><path class="cls-12" d="M428.82,174.33l-5.07-1.46s-4.59-.63-4.91-.37-1,.67-1,.67a13.35,13.35,0,0,0,3.78.92c2.4.28,4.48.71,5.63.85A1.44,1.44,0,0,0,428.82,174.33Z"/><path class="cls-12" d="M437,174.68l6.51-1.61s5.86-.76,6.26-.51,1.19.64,1.19.64a21.43,21.43,0,0,1-4.84,1c-3.06.35-5.73.84-7.2,1S437,174.68,437,174.68Z"/><g class="cls-29"><path class="cls-15" d="M438.09,180.82s.62-3.23,7.23-2.6a6,6,0,0,1,3.95,2.2,12.49,12.49,0,0,1-4.36,1A54.16,54.16,0,0,1,438.09,180.82Z"/><ellipse class="cls-16" cx="443.56" cy="179.74" rx="2.5" ry="2.25" transform="matrix(0.07, -1, 1, 0.07, 235.25, 610.63)"/><ellipse class="cls-17" cx="443.57" cy="179.56" rx="0.94" ry="0.84" transform="translate(235.45 610.46) rotate(-86.26)"/><ellipse class="cls-18" cx="442.66" cy="178.81" rx="0.62" ry="0.56" transform="translate(235.34 608.85) rotate(-86.26)"/></g><path class="cls-2" d="M438.09,180.84s.83-2.75,6-2.65a6.77,6.77,0,0,1,5.13,2.26c.26-.48-1.36-2.5-5.09-2.83S438.33,179.17,438.09,180.84Z"/><path class="cls-2" d="M441.3,197.36a26,26,0,0,1-5.51,2.15,24.09,24.09,0,0,1-6.06.1c-.91-.17-3-.75-3.74-.9a20.51,20.51,0,0,1,3.37-.87,5.51,5.51,0,0,0,2,.63c1,0,1.19-.54,1.87-.5S440.52,197.41,441.3,197.36Z"/><path class="cls-2" d="M419.33,181s.72-2.78,5.07-2.74a5.14,5.14,0,0,1,4.26,2.22c.22-.48-1.11-2.5-4.22-2.79S419.55,179.31,419.33,181Z"/><g class="cls-30"><path class="cls-15" d="M419.33,181s.55-3.26,6-2.7a4.8,4.8,0,0,1,3.25,2.17,9.15,9.15,0,0,1-3.63,1.1A37,37,0,0,1,419.33,181Z"/><ellipse class="cls-16" cx="424.19" cy="179.84" rx="2.52" ry="2.12" transform="translate(217.05 591.39) rotate(-86.26)"/><ellipse class="cls-17" cx="424.33" cy="179.8" rx="0.94" ry="0.8" transform="translate(217.23 591.49) rotate(-86.26)"/><ellipse class="cls-18" cx="423.35" cy="178.9" rx="0.63" ry="0.53" transform="translate(217.2 589.67) rotate(-86.26)"/></g><path class="cls-4" d="M492.09,226l11,15.49,4.48,19.6a195.83,195.83,0,0,1-6.32,29.36c-18.5,1-27-20.81-27-20.81Z"/><path class="cls-31" d="M498,243.14s3.55-.83,4.84,2"/><path class="cls-7" d="M524.45,263.51s-6.37,13.53-8.64,15.79-10,10.57-14.69,11.06c-12,1.24-14.32-8.5-10.52-17s11.23-3.66,17.85-8.52C513.43,261.21,523.88,260,524.45,263.51Z"/><path class="cls-8" d="M525.54,245.23s-.49,21.28-6.86,26.22c-3.68,2.85-9.89,2.22-14.81.7a14.53,14.53,0,0,1-3.41-3.62c-.35-.68-.79-3.55-1.25-7.46Z"/><path class="cls-11" d="M511.67,232.74s1.2-13.93,1.55-14.69,1.71-13.61,1-15-4.35-2.05-5.5-1.38-5.46,8.44-5.44,10.83.77,5.39.69,6.17-2.13,7.47-2.88,9.51-3.42,9.45-3.55,10.76.84,2.21,2,1.8S511.67,232.74,511.67,232.74Z"/><path class="cls-11" d="M513.61,229.61s-19,9.27-19.23,11.66-.35,5.87,3,6.76c-1.37,2.81-3.75,5,.17,8.61-2.17,2.72-2,4.08,1,5.74-.28,2.65-2,6.5,3.58,6.82s14.53,2.34,16.76,1.5,6.26-3.36,6.67-4.66.13-3.74.56-5.31,3.23-2.61,2.62-7-.1-6.72-.37-9.16-.31-2.18-2-4-1.16-6.83-2.88-8.36S517.15,229.18,513.61,229.61Z"/><path class="cls-32" d="M515.89,241.12S504,246.84,497.43,248"/><path class="cls-32" d="M516.39,251.64a50.89,50.89,0,0,1-18.79,5"/><path class="cls-32" d="M517.53,261.15a54.77,54.77,0,0,0-8.4.72,27.49,27.49,0,0,1-10.53.5"/><line class="cls-33" x1="512.05" y1="230.77" x2="497.98" y2="238.21"/><path class="cls-34" d="M157.63.76c47.65-2.35,76.24,39.49,67.77,74.63-6.78,28.39-59.47,45.6-92.22,31.81C79.14,85.12,89.69-6.89,160.26.41"/><path class="cls-15" d="M136.58,59.15V69.78h-6.06V59.15L121.09,44.7h7.33L133.78,54l5.35-9.28h7.09Z"/><path class="cls-15" d="M161.63,62.55H148.84c.18,1.95,2.13,3.33,4.22,3.33A4.61,4.61,0,0,0,157,64l4,2.55c-1.67,2.41-4.43,3.76-8,3.76-5.31,0-9.71-3.37-9.71-9.32,0-5.78,4.18-9.46,9.53-9.46s8.86,3.58,8.86,9.6C161.66,61.63,161.66,62.13,161.63,62.55Zm-5.32-3.61a3.21,3.21,0,0,0-3.47-3.37,3.84,3.84,0,0,0-4,3.37Z"/><path class="cls-15" d="M164.82,54.55a11.56,11.56,0,0,1,7.87-3c5.92,0,8.11,2.91,8.11,9.32v8.89h-5.31V67.9h-.11a5.85,5.85,0,0,1-5,2.3c-2.8,0-6.41-1.38-6.41-5.53,0-5.1,6.2-6,11.34-6v-.28c0-1.74-1.38-2.55-3.19-2.55a6.68,6.68,0,0,0-4.36,1.81Zm10.67,7.55h-.74c-2.55,0-5.42.32-5.42,2.41,0,1.35,1.35,1.81,2.52,1.81a3.34,3.34,0,0,0,3.65-3.61Z"/><path class="cls-15" d="M196.74,69.78V60.22c0-2-.5-3.72-2.59-3.72S191,58.16,191,60.25v9.53h-5.81V43H191V54.37h.07a5.75,5.75,0,0,1,5.07-2.73c4.78,0,6.45,3.68,6.45,7.23V69.78Z"/><path class="cls-34" d="M434.63.76c47.65-2.35,76.24,39.49,67.77,74.63-6.78,28.39-59.47,45.6-92.22,31.81C356.14,85.12,366.69-6.89,437.26.41"/><path class="cls-15" d="M423.84,69.78l-10.1-16.4h-.11l.14,16.4h-5.88V44.7h6.91l10.06,16.37H425l-.14-16.37h5.88V69.78Z"/><path class="cls-15" d="M435.31,54.55a11.56,11.56,0,0,1,7.87-3c5.92,0,8.11,2.91,8.11,9.32v8.89H446V67.9h-.11a5.85,5.85,0,0,1-5,2.3c-2.8,0-6.41-1.38-6.41-5.53,0-5.1,6.2-6,11.34-6v-.28c0-1.74-1.38-2.55-3.19-2.55a6.68,6.68,0,0,0-4.36,1.81ZM446,62.09h-.74c-2.55,0-5.42.32-5.42,2.41,0,1.35,1.35,1.81,2.52,1.81A3.34,3.34,0,0,0,446,62.7Z"/><path class="cls-15" d="M467.24,69.78V60.22c0-2-.5-3.72-2.59-3.72s-3.15,1.67-3.15,3.76v9.53h-5.81V43h5.81V54.37h.07a5.75,5.75,0,0,1,5.07-2.73c4.78,0,6.45,3.68,6.45,7.23V69.78Z"/></svg>