<?xml version="1.0" encoding="utf-8"?>
<!-- Generator: Adobe Illustrator 21.0.2, SVG Export Plug-In . SVG Version: 6.00 Build 0)  -->
<svg version="1.1" xmlns="http://www.w3.org/2000/svg" xmlns:xlink="http://www.w3.org/1999/xlink" x="0px" y="0px"
	 viewBox="0 0 634.8 588.4" style="enable-background:new 0 0 634.8 588.4;" xml:space="preserve">
<style type="text/css">
	.st0{fill:#75CCE0;}
	.st1{fill:#5AC5D7;}
	.st2{fill:none;stroke:#5AC5D7;stroke-width:0.73;stroke-miterlimit:10;stroke-dasharray:2.93;}
	.st3{fill:#FFFFFF;}
	.st4{fill:#6A3C2B;}
	.st5{fill:#CBCBCB;}
	.st6{fill:#333333;}
	.st7{fill:#1A1A1A;}
	.st8{fill:#ACE2EE;}
	.st9{fill:#A5D5E1;}
	.st10{fill:#F1C3B6;}
	.st11{fill:#C7EBF3;}
	.st12{fill:none;stroke:#E39789;stroke-width:0.38;stroke-miterlimit:10;}
	.st13{fill:#091330;}
	.st14{fill:#595959;}
	.st15{fill:#C7EBF3;stroke:#ACE2EE;stroke-width:0.51;stroke-miterlimit:10;}
	.st16{fill:#F3CABB;}
	.st17{fill:#E7B197;}
	.st18{fill:#492E20;}
	.st19{clip-path:url(#SVGID_2_);}
	.st20{fill:#494D55;}
	.st21{fill:#F3CABB;stroke:#E7B197;stroke-width:0.16;stroke-miterlimit:10;}
	.st22{fill:none;stroke:#E7B197;stroke-width:0.16;stroke-miterlimit:10;}
	.st23{fill:#FFFFFF;stroke:#F79739;stroke-width:0.92;stroke-miterlimit:10;}
	.st24{fill:#FFFFFF;stroke:#F79739;stroke-width:1.06;stroke-miterlimit:10;}
	.st25{fill:#FFFFFF;stroke:#74CEE2;stroke-width:0.99;stroke-miterlimit:10;}
	.st26{fill:#FFFFFF;stroke:#F79739;stroke-width:1.09;stroke-miterlimit:10;}
	.st27{fill:#FFFFFF;stroke:#74CEE2;stroke-width:0.79;stroke-miterlimit:10;}
	.st28{fill:#74CEE2;}
	.st29{fill:none;stroke:#74CEE2;stroke-width:6.11;stroke-miterlimit:10;stroke-dasharray:8.26,8.26;}
	.st30{clip-path:url(#SVGID_4_);}
	.st31{fill:#F3CABB;stroke:#E7B197;stroke-width:0.15;stroke-miterlimit:10;}
	.st32{fill:none;stroke:#E7B197;stroke-width:0.15;stroke-miterlimit:10;}
	.st33{fill:#231F20;}
	.st34{fill:#30302F;}
	.st35{fill:#040C29;}
	.st36{fill:none;stroke:#F79738;stroke-width:1.36;stroke-miterlimit:10;}
	.st37{fill:#F79738;}
	.st38{fill:#FBC496;}
	.st39{fill:#FFD3C0;}
	.st40{fill:#FFD3C0;stroke:#E5B09B;stroke-width:0.16;stroke-miterlimit:10;}
	.st41{fill:#E5B09B;}
	.st42{fill:#9EDAE3;}
	.st43{fill:none;stroke:#9EDAE3;stroke-width:0.24;stroke-miterlimit:10;}
	.st44{fill:#00001D;}
	.st45{fill:#FCCBA8;}
	.st46{fill:#CF987B;}
	.st47{fill:#414141;}
	.st48{fill:#221F1F;}
	.st49{fill:#323031;}
	.st50{fill:#DBF1FC;}
	.st51{fill:#493227;}
	.st52{fill:none;stroke:#F7963A;stroke-width:9.000000e-02;stroke-miterlimit:10;}
	.st53{fill:none;stroke:#383638;stroke-width:0.36;stroke-miterlimit:10;}
	.st54{fill:none;stroke:#302D2F;stroke-width:0.36;stroke-miterlimit:10;}
	.st55{fill:#613817;}
	.st56{fill:none;stroke:#CF987B;stroke-width:0.19;stroke-miterlimit:10;}
	.st57{fill:#623817;}
	.st58{clip-path:url(#SVGID_6_);}
	.st59{fill:#22110F;}
	.st60{fill:#5E3616;}
	.st61{clip-path:url(#SVGID_8_);}
	.st62{fill:#ACDFF8;}
	.st63{fill:#8E4A1E;}
	.st64{fill:#3C3233;}
	.st65{fill:#A25525;}
	.st66{fill:#36362D;}
	.st67{fill:#2D2C27;}
	.st68{fill:#E2E2DD;}
	.st69{fill:#2A130E;}
	.st70{fill:#723617;}
	.st71{fill:#F39695;}
	.st72{fill:#EC5949;}
	.st73{fill:#F59696;}
	.st74{fill:#55200F;}
	.st75{fill:#3A1610;}
	.st76{fill:none;stroke:#723617;stroke-width:0.1;stroke-linecap:round;stroke-miterlimit:10;}
	.st77{fill:#6D1410;}
	.st78{fill:none;stroke:#590E0B;stroke-width:0.1;stroke-miterlimit:10;}
	.st79{fill:#CC4C3E;}
	.st80{fill:#589DAC;}
	.st81{fill:#74CDE1;}
	.st82{fill:#C8E9F0;}
	.st83{fill:none;stroke:#60AABB;stroke-width:0.29;stroke-miterlimit:10;}
	.st84{fill:#60AABB;}
	.st85{fill:none;stroke:#89471C;stroke-width:0.24;stroke-miterlimit:10;}
	.st86{fill:#E4AF9A;}
	.st87{fill:#CC864F;}
	.st88{fill:#B81E5D;}
	.st89{fill:#FBD1BF;}
	.st90{fill:none;stroke:#CC864F;stroke-width:4.000000e-02;stroke-miterlimit:10;}
	.st91{fill:none;stroke:#E4AF9A;stroke-width:8.000000e-02;stroke-miterlimit:10;}
	.st92{fill:none;stroke:#C89B88;stroke-width:9.000000e-02;stroke-miterlimit:10;}
	.st93{fill:#25120A;}
	.st94{clip-path:url(#SVGID_10_);}
	.st95{clip-path:url(#SVGID_12_);}
</style>
<g id="textLayer">
	<title>timeManagementArtboard 49</title>
	<path class="st0" d="M452.4,556.6h-2.3v-20.3h-7.5v-2h17.2v2h-7.5V556.6z"/>
	<path class="st0" d="M469.3,547.1c0-2.5-1.4-3.8-3.9-3.8c-1.6,0-3.2,0.6-4.4,1.7l-1.2-1.4c1.6-1.4,3.7-2.2,5.8-2.1
		c3.2,0,5.7,1.8,5.7,5.4v6.5c0,1.1,0.1,2.2,0.3,3.3h-1.9c-0.1-0.8-0.2-1.6-0.2-2.4h-0.1c-1.1,1.9-3.2,2.9-5.4,2.8
		c-2.2,0-5.1-1.2-5.1-4.5c0-4.5,5-5,10.4-5L469.3,547.1z M468.7,549.3c-3.5,0-7.6,0.4-7.6,3.2c0,2.1,1.8,2.8,3.5,2.8
		c2.5,0.1,4.7-1.9,4.7-4.5c0-0.1,0-0.3,0-0.4v-1.1H468.7z"/>
	<path class="st0" d="M479,564.2h-2.1v-22.3h2.1v2.5h0.1c1.2-1.8,3.3-2.9,5.5-2.9c4.3,0.2,7.6,3.8,7.5,8c-0.1,4.1-3.4,7.3-7.5,7.5
		c-2.2,0-4.3-1.1-5.5-2.9H479V564.2z M484.4,543.3c-3.3,0.2-5.8,3-5.6,6.3c0.2,3,2.6,5.4,5.6,5.6c3.6,0,5.6-2.7,5.6-5.9
		S488,543.3,484.4,543.3L484.4,543.3z"/>
	<path class="st0" d="M511.7,541.5c2-0.1,3.9,1.2,4.5,3.1c0.9-2,3-3.2,5.2-3.1c3.8,0,5.6,2.4,5.6,6.1v9h-2.1v-8.2
		c0-3.1-1-5.2-3.8-5.2c-3.1,0-4.2,2.7-4.2,5.5v7.8h-2.1V548c0-2.9-0.7-4.7-3.6-4.7c-2,0-4.3,1.8-4.3,5.8v7.6h-2.1v-11.5
		c0-0.8,0-2.2-0.1-3.3h2c0.1,0.8,0.1,1.9,0.1,2.5h0.1C507.8,542.6,509.7,541.5,511.7,541.5z"/>
	<path class="st0" d="M546,549.8h-12.2c0,3,2.4,5.4,5.4,5.4c1.9,0,3.7-0.9,4.7-2.5l1.6,1.3c-1.5,2-3.8,3.2-6.3,3.1
		c-4.3-0.1-7.7-3.6-7.6-7.9c0.1-4.1,3.3-7.4,7.4-7.6c4.6,0,7.1,3.3,7.1,7.3C546,549.1,546,549.5,546,549.8z M543.9,548.1
		c-0.1-2.8-1.8-4.8-4.9-4.8c-2.7,0-5,2.1-5.2,4.8H543.9z"/>
	<path class="st1" d="M405.8,571.8c4.7-1.2,9.2-2.7,13.7-4.5c2.8-1.2,6.9-2.8,8.4-5.7c2.5-4.6-1.4-10.6-3.5-14.8
		c-1.8-3.6-4-6.9-6.4-10.1c-1.6-2-2.7-4-5.4-4c-2,0-4.6,1.3-6.4,1.9c-2.4,0.8-4.9,1.5-7.3,2.3c-2.3,0.8-4.9,2-7.3,2.4
		c-0.5,0.1-0.3,1.2-0.8,1s-1.7-2.8-2.2-3.5c-2.6-4.1-5.1-8.5-8-12.5c-1.4-1.9-2.7-3.3-5.2-3.6c-4.8-0.6-4.4,2.8-3,6.1
		c3.5,8.6,7.6,17,12.3,25c0.7,0.9,1.2,1.8,1.7,2.7c0-1.1-3.9-2.1-3.2-1.9c-1.1-0.4-2.2-0.7-3.3-1c-1.8-0.5-4.8-1.3-6.6-0.5
		c-3.7,1.7,0.5,6.7,2.5,8.2c3.8,2.9,9.4,4.6,13.8,6.5c5,2.2,10.1,4.2,15.3,6c1.1,0.4,1.6-1.4,0.5-1.8c-8.9-3.1-17.5-6.7-25.9-10.9
		c-2.3-1.2-9-6.7-2.1-6.3c3.4,0.2,6.4,2.2,9.7,3c0.5,0.1,1-0.2,1.1-0.6c0.5-2.6-2.9-6.3-4.1-8.4c-2.8-5.1-5.2-10.4-7.6-15.7
		c-1-1.9-1.8-3.8-2.6-5.8c-0.4-1.3-1.6-2.2,0.6-3c1.5-0.6,3.9,1.8,4.6,2.8c1.8,2.3,3.3,5.1,4.8,7.5s4.6,5.5,5.2,8.2
		c0.1,0.5,0.6,0.8,1.1,0.6c6.4-2.1,12.7-4.2,19.1-6.1c4.7-1.4,6,0.6,8.6,4.3c1.8,2.5,3.4,5.1,4.8,7.9c1.9,3.8,6,9.7,2.8,13.8
		c-2.3,2.9-7.6,4.5-10.8,5.6s-6.3,2-9.5,2.8c-0.5,0.2-0.7,0.7-0.6,1.2C404.9,571.7,405.3,571.9,405.8,571.8L405.8,571.8z"/>
	<path class="st2" d="M367.1,521.9c-1.2,1-1.8,2.6-1.8,4.1c-0.1,2.4,0.7,4.7,2.1,6.6c1.1,1.2,2.4,2.2,3.8,2.9"/>
	<path class="st2" d="M363.5,518.5c-1.4,1.3-2.3,3.1-2.6,5c-0.4,1.9-0.5,3.8-0.3,5.7c0.5,3.1,2.1,5.9,4.5,7.9c2.4,2,5.3,3.3,8.4,3.7
		"/>
	<path class="st2" d="M377.3,516c1.5-0.5,3.1-0.2,4.4,0.7c2.1,1.2,3.7,3.1,4.5,5.3c0.5,1.5,0.6,3.2,0.5,4.8"/>
	<path class="st2" d="M376.3,511.2c1.9-0.5,3.8-0.3,5.6,0.5c1.8,0.6,3.5,1.6,5,2.8c2.3,2.1,3.9,4.9,4.3,8c0.4,3.1,0,6.2-1.3,9.1"/>
	<path d="M16.7,24.9c0-0.4,0.1-0.7,0.3-1c0.2-0.3,0.5-0.4,0.8-0.4h3.7V2.9h-3.7c-0.3,0-0.6-0.1-0.8-0.4c-0.2-0.3-0.3-0.6-0.3-1
		c0-0.3,0.1-0.6,0.3-0.9c0.2-0.2,0.5-0.4,0.8-0.4h10.8c0.3,0,0.6,0.1,0.8,0.4c0.2,0.3,0.3,0.6,0.3,0.9c0,0.4-0.1,0.7-0.3,1
		c-0.2,0.3-0.5,0.4-0.8,0.4H25v20.5h3.7c0.3,0,0.6,0.1,0.8,0.4c0.2,0.3,0.3,0.6,0.3,1c0,0.3-0.1,0.6-0.3,0.9
		c-0.2,0.2-0.5,0.4-0.8,0.4H17.8c-0.3,0-0.6-0.1-0.8-0.4C16.8,25.5,16.7,25.2,16.7,24.9z"/>
	<path d="M43.9,10.8c-0.9,0-1.8,0.2-2.7,0.6c-0.8,0.4-1.6,1-2.2,1.7c-0.5,0.7-0.8,1.5-0.8,2.4v8h2.2c0.3,0,0.6,0.1,0.8,0.4
		c0.2,0.3,0.3,0.6,0.3,1c0,0.3-0.1,0.6-0.3,0.9c-0.2,0.2-0.5,0.4-0.8,0.4h-7c-0.3,0-0.7-0.1-0.9-0.4c-0.2-0.3-0.3-0.6-0.3-1
		c0-0.4,0.1-0.7,0.3-1c0.2-0.3,0.5-0.4,0.8-0.4h1.9v-12L33,11.9c-0.1,0-0.1,0-0.2,0c-0.3,0-0.6-0.1-0.9-0.4
		c-0.2-0.2-0.4-0.5-0.4-0.8c-0.1-0.6,0.3-1.1,0.9-1.3l4.2-1.2h0.1h0.2c0.2,0,0.4,0.1,0.5,0.2c0.1,0.1,0.2,0.3,0.2,0.5l0.3,2.9
		c0.6-1.1,1.5-1.9,2.6-2.5c1.2-0.7,2.5-1,3.9-1c1.7-0.1,3.3,0.5,4.5,1.6c1.1,1.2,1.7,2.8,1.7,4.5v9.1h1.9c0.3,0,0.6,0.1,0.8,0.4
		c0.2,0.3,0.3,0.6,0.3,1c0,0.3-0.1,0.6-0.3,0.9c-0.2,0.2-0.5,0.4-0.8,0.4h-7.4c-0.3,0-0.7-0.1-0.9-0.4c-0.2-0.3-0.3-0.6-0.3-1
		c0-0.4,0.1-0.7,0.3-1c0.2-0.3,0.5-0.4,0.8-0.4h2.5v-8.8c0.1-1-0.3-2.1-0.9-2.8C45.9,11.1,44.9,10.7,43.9,10.8z"/>
	<path d="M62.7,24.1c0.4,0,0.8-0.1,1.2-0.3c0.3-0.1,0.5-0.3,0.7-0.6c0.2-0.2,0.4-0.4,0.6-0.6c0.2-0.2,0.5-0.3,0.7-0.3
		c0.3,0,0.6,0.1,0.8,0.3c0.2,0.2,0.3,0.5,0.3,0.8c0,0.6-0.3,1.2-0.8,1.5c-0.5,0.5-1.2,0.8-1.8,1c-0.7,0.2-1.4,0.3-2.1,0.3
		c-1.2,0-2.3-0.4-3.1-1.2c-0.8-0.7-1.3-1.8-1.3-2.9V11.7h-2.3c-0.3,0-0.7-0.1-0.9-0.4c-0.2-0.3-0.3-0.6-0.3-1c0-0.4,0.1-0.7,0.3-1
		C54.8,9.1,55.1,9,55.4,9h2.3c0-4,0.6-6,1.8-6c0.4,0,0.9,0.1,1.2,0.4v0.3c0,0.1,0,0.2,0,0.5c0,0.2,0,0.4,0,0.4V9h4
		c0.3,0,0.6,0.1,0.8,0.4c0.2,0.3,0.3,0.6,0.3,1c0,0.3-0.1,0.6-0.3,0.9c-0.2,0.2-0.5,0.4-0.8,0.4h-3.9v10.3
		C60.8,23.4,61.4,24.1,62.7,24.1z"/>
	<path d="M71.8,17.7c-0.1,1.7,0.6,3.3,1.8,4.5c1.3,1.1,2.9,1.7,4.6,1.6c0.6,0,1.1,0,1.7-0.2c0.5-0.1,1-0.3,1.4-0.6
		c0.3-0.2,0.7-0.4,1-0.7c0.3-0.2,0.6-0.5,1-0.9c0.3-0.2,0.6-0.4,1-0.4c0.4,0,0.7,0.1,1,0.4c0.3,0.3,0.4,0.6,0.4,1
		c0,0.7-0.3,1.3-0.8,1.7c-0.6,0.6-1.3,1-2,1.3c-0.8,0.3-1.6,0.6-2.5,0.8c-0.8,0.2-1.6,0.3-2.4,0.3c-1.7,0-3.4-0.3-4.9-1.1
		c-1.4-0.7-2.6-1.8-3.4-3.2c-0.8-1.5-1.2-3.1-1.2-4.8c-0.1-2.5,0.8-4.9,2.5-6.8c1.8-1.7,4.2-2.7,6.7-2.5c1,0,2,0.2,2.9,0.6
		c0.9,0.4,1.8,0.9,2.6,1.5c0.8,0.7,1.4,1.5,1.8,2.4c0.4,0.9,0.7,2,0.7,3c0,0.3,0,0.6-0.2,0.8c-0.1,0.2-0.3,0.4-0.5,0.5
		c-0.2,0.1-0.5,0.2-0.7,0.2c-0.2,0-0.6,0.1-0.9,0.1h-0.2L71.8,17.7z M81.9,14.7c0.1-1.1-0.4-2.3-1.2-3c-0.9-0.7-1.9-1-3-1
		c-1.5-0.1-3,0.4-4.2,1.3c-1.1,0.9-1.7,2.1-1.8,3.5l9.1-0.2C81.5,15.3,81.9,15.1,81.9,14.7L81.9,14.7z"/>
	<path d="M100.5,10.9c-1.1,0-2.2,0.2-3.2,0.8c-0.9,0.5-1.7,1.1-2.2,1.9v9.8h4c0.3,0,0.6,0.1,0.8,0.4c0.2,0.3,0.3,0.6,0.3,1
		c0,0.3-0.1,0.6-0.3,0.9c-0.2,0.2-0.5,0.4-0.8,0.4h-10c-0.3,0-0.7-0.1-0.9-0.4c-0.2-0.3-0.3-0.6-0.3-1c0-0.4,0.1-0.7,0.3-1
		c0.2-0.3,0.5-0.4,0.8-0.4h3v-12l-2.2,0.5c-0.1,0-0.1,0-0.2,0c-0.3,0-0.6-0.1-0.8-0.4c-0.2-0.2-0.4-0.5-0.4-0.8
		c-0.1-0.6,0.3-1.1,0.9-1.3l4.2-1.2h0.1h0.2c0.2,0,0.4,0.1,0.6,0.2c0.1,0.1,0.2,0.3,0.2,0.5l0.3,2.9c1.5-2.4,4.3-3.7,7.1-3.6
		c0.3,0,0.6,0.1,0.9,0.3c0.2,0.2,0.4,0.5,0.4,0.8v3.2c0,0.3-0.1,0.7-0.3,0.9c-0.3,0.2-0.6,0.3-1,0.3c-0.4,0-0.7-0.1-1-0.3
		c-0.3-0.2-0.4-0.5-0.4-0.9L100.5,10.9z"/>
	<path d="M117.3,10.9c-1.1,0-2.2,0.2-3.2,0.8c-0.9,0.5-1.7,1.1-2.2,1.9v9.8h4c0.3,0,0.6,0.1,0.8,0.4c0.2,0.3,0.3,0.6,0.3,1
		c0,0.3-0.1,0.6-0.3,0.9c-0.2,0.2-0.5,0.4-0.8,0.4H106c-0.3,0-0.7-0.1-0.9-0.4c-0.2-0.3-0.3-0.6-0.3-1c0-0.4,0.1-0.7,0.3-1
		c0.2-0.3,0.5-0.4,0.8-0.4h3v-12l-2.2,0.5c-0.1,0-0.1,0-0.2,0c-0.3,0-0.6-0.1-0.8-0.4c-0.2-0.2-0.4-0.5-0.4-0.8
		c-0.1-0.6,0.3-1.1,0.9-1.3l4.2-1.2h0.1h0.2c0.2,0,0.4,0.1,0.6,0.2c0.1,0.1,0.2,0.3,0.2,0.5l0.3,2.9c1.5-2.4,4.3-3.7,7.1-3.6
		c0.3,0,0.6,0.1,0.9,0.3c0.2,0.2,0.4,0.5,0.4,0.8v3.2c0,0.3-0.1,0.7-0.3,0.9c-0.3,0.2-0.6,0.3-1,0.3c-0.4,0-0.7-0.1-1-0.3
		c-0.3-0.2-0.4-0.5-0.4-0.9L117.3,10.9z"/>
	<path d="M130.9,23.9c1.2,0,2.4-0.3,3.5-0.9c1-0.5,1.7-1.3,2.2-2.3v-9.4l-2.2,0.5c-0.1,0-0.2,0-0.2,0c-0.3,0-0.6-0.1-0.9-0.4
		c-0.2-0.2-0.4-0.5-0.4-0.8c-0.1-0.6,0.3-1.1,0.9-1.3l4.8-1.2c0.1,0,0.2,0,0.3,0c0.2,0,0.4,0.1,0.6,0.2c0.1,0.1,0.2,0.3,0.2,0.6
		v14.3h2.3c0.3,0,0.6,0.1,0.8,0.4c0.2,0.3,0.3,0.6,0.3,0.9c0.1,0.6-0.3,1.1-0.9,1.3l-4.1,0.4c-0.3,0-0.5-0.1-0.7-0.3
		c-0.2-0.3-0.3-0.6-0.4-1l-0.2-1.5c-0.7,1-1.6,1.7-2.7,2.2c-1.2,0.6-2.4,0.9-3.7,0.9c-1.6,0.1-3.1-0.5-4.2-1.7
		c-1.1-1.2-1.6-2.8-1.5-4.5v-9l-2.2,0.5c-0.1,0-0.1,0-0.2,0c-0.3,0-0.6-0.1-0.8-0.4c-0.2-0.2-0.4-0.5-0.4-0.8
		c-0.1-0.6,0.3-1.1,0.9-1.3l4.8-1.2c0.1,0,0.2,0,0.2,0c0.2,0,0.4,0.1,0.6,0.2c0.1,0.1,0.2,0.3,0.2,0.6v11.2c0,1,0.2,2,0.8,2.8
		C129,23.6,129.9,24,130.9,23.9z"/>
	<path d="M164.5,17.3c0.1,2.4-0.7,4.8-2.4,6.7c-1.6,1.7-4,2.6-6.3,2.5c-2.1,0-4.1-0.7-5.7-2v7.7h3c0.3,0,0.6,0.1,0.8,0.4
		c0.2,0.3,0.3,0.6,0.3,1c0,0.3-0.1,0.6-0.3,0.9c-0.2,0.2-0.5,0.4-0.8,0.4h-7.9c-0.3,0-0.7-0.1-0.9-0.3c-0.2-0.3-0.3-0.6-0.3-1
		c0-0.4,0.1-0.7,0.3-1c0.2-0.3,0.5-0.4,0.9-0.4h1.9V11.4l-2.2,0.5c-0.1,0-0.2,0-0.2,0c-0.3,0-0.6-0.1-0.8-0.4
		c-0.2-0.2-0.4-0.5-0.4-0.8c-0.1-0.6,0.3-1.1,0.9-1.3l4.2-1.2h0.1h0.2c0.2,0,0.4,0.1,0.6,0.2c0.1,0.1,0.2,0.3,0.2,0.5l0.3,2.9
		c0.5-1.1,1.4-2,2.4-2.6c1.2-0.7,2.5-1,3.9-1c1.6,0,3.1,0.4,4.5,1.2c1.3,0.8,2.3,1.9,2.9,3.2C164.2,14.1,164.5,15.7,164.5,17.3z
		 M161.2,17.3c0-1.1-0.2-2.2-0.6-3.3c-0.4-0.9-1-1.8-1.8-2.4c-0.8-0.6-1.9-0.9-2.9-0.9c-2.3-0.1-4.4,0.9-5.8,2.7v8.4
		c1.5,1.4,3.6,2.2,5.7,2.1c0.8,0,1.6-0.2,2.3-0.5c0.7-0.3,1.3-0.8,1.7-1.4c0.5-0.6,0.8-1.3,1-2.1C161.1,19.1,161.2,18.2,161.2,17.3
		L161.2,17.3z"/>
	<path d="M174.2,24.1c0.4,0,0.8-0.1,1.1-0.3c0.3-0.1,0.5-0.3,0.7-0.6c0.2-0.2,0.4-0.4,0.6-0.6c0.2-0.2,0.5-0.3,0.7-0.3
		c0.3,0,0.6,0.1,0.8,0.3c0.2,0.2,0.3,0.5,0.3,0.8c0,0.6-0.3,1.2-0.8,1.5c-0.5,0.5-1.2,0.8-1.9,1c-0.7,0.2-1.4,0.3-2.1,0.3
		c-1.2,0-2.3-0.4-3.1-1.2c-0.8-0.7-1.3-1.8-1.3-2.9V11.7H167c-0.3,0-0.7-0.1-0.9-0.4c-0.2-0.3-0.3-0.6-0.3-1c0-0.4,0.1-0.7,0.3-1
		c0.2-0.2,0.5-0.4,0.8-0.3h2.4c0-4,0.6-6,1.8-6c0.4,0,0.9,0.1,1.2,0.4v0.3c0,0.1,0,0.2,0,0.5c0,0.2,0,0.4,0,0.4V9h4
		c0.3,0,0.6,0.1,0.8,0.4c0.2,0.3,0.3,0.6,0.3,1c0,0.3-0.1,0.6-0.3,0.9c-0.2,0.2-0.5,0.4-0.8,0.4h-3.9v10.3
		C172.3,23.4,172.9,24.1,174.2,24.1z"/>
	<path d="M180.5,24.9c0-0.4,0.1-0.7,0.3-1c0.2-0.3,0.5-0.4,0.9-0.4h2.1V11.3l-2.2,0.6c-0.1,0-0.1,0-0.2,0c-0.3,0-0.6-0.1-0.8-0.4
		c-0.2-0.2-0.4-0.5-0.4-0.8c-0.1-0.6,0.3-1.1,0.9-1.2l4.8-1.2c0.1,0,0.2,0,0.2,0c0.2,0,0.4,0.1,0.6,0.2c0.1,0.1,0.2,0.3,0.2,0.5
		v14.6h2.3c0.3,0,0.6,0.1,0.8,0.4c0.2,0.3,0.3,0.6,0.3,1c0,0.3-0.1,0.6-0.3,0.9c-0.2,0.2-0.5,0.4-0.8,0.4h-7.4
		c-0.6,0.1-1.2-0.3-1.3-0.9C180.5,25.1,180.5,25,180.5,24.9z M186.8,3.9c-0.4,0.4-1,0.7-1.6,0.7c-0.6,0-1.2-0.2-1.6-0.7
		c-0.4-0.4-0.7-1-0.7-1.6c0-0.6,0.2-1.2,0.7-1.6c0.4-0.4,1-0.7,1.6-0.7c0.6,0,1.2,0.2,1.6,0.7c0.4,0.4,0.7,1,0.7,1.6
		C187.5,2.9,187.2,3.5,186.8,3.9L186.8,3.9z"/>
	<path d="M201.3,26.5c-2.5,0.1-5-0.8-6.8-2.5c-1.8-1.8-2.7-4.2-2.6-6.7c-0.1-2.5,0.8-4.9,2.6-6.7c1.8-1.7,4.3-2.6,6.8-2.5
		c2.5-0.1,4.9,0.8,6.6,2.5c1.7,1.8,2.6,4.2,2.5,6.6c0.1,2.5-0.8,4.9-2.5,6.7C206.2,25.7,203.8,26.6,201.3,26.5z M201.3,10.8
		c-1.7-0.1-3.3,0.6-4.4,1.8c-1.1,1.3-1.7,3-1.6,4.8c-0.1,1.7,0.5,3.4,1.6,4.8c1.1,1.2,2.7,1.9,4.4,1.8c1.6,0.1,3.2-0.6,4.3-1.8
		c1.1-1.3,1.6-3,1.6-4.8c0.1-1.7-0.5-3.4-1.6-4.8C204.5,11.4,202.9,10.7,201.3,10.8L201.3,10.8z"/>
	<path d="M224.6,10.8c-0.9,0-1.8,0.2-2.7,0.6c-0.8,0.4-1.6,1-2.1,1.7c-0.5,0.7-0.8,1.5-0.9,2.4v8h2.2c0.3,0,0.6,0.1,0.8,0.4
		c0.2,0.3,0.3,0.6,0.3,1c0,0.3-0.1,0.6-0.3,0.9c-0.2,0.2-0.5,0.4-0.8,0.4h-7c-0.3,0-0.7-0.1-0.9-0.4c-0.2-0.3-0.3-0.6-0.3-1
		c0-0.4,0.1-0.7,0.3-1c0.2-0.3,0.5-0.4,0.9-0.4h1.9v-12l-2.2,0.5c-0.1,0-0.1,0-0.2,0c-0.3,0-0.6-0.1-0.9-0.4
		c-0.2-0.2-0.4-0.5-0.4-0.8c-0.1-0.6,0.3-1.1,0.9-1.3l4.2-1.2h0.1h0.2c0.2,0,0.4,0.1,0.6,0.2c0.1,0.1,0.2,0.3,0.2,0.5l0.3,2.9
		c0.6-1.1,1.5-1.9,2.6-2.5c1.2-0.7,2.5-1,3.9-1c1.7-0.1,3.3,0.5,4.5,1.6c1.1,1.2,1.7,2.8,1.6,4.5v9.1h1.9c0.3,0,0.6,0.1,0.8,0.4
		c0.2,0.3,0.3,0.6,0.3,1c0,0.3-0.1,0.6-0.3,0.9c-0.2,0.2-0.5,0.4-0.8,0.4h-7.4c-0.3,0-0.7-0.1-0.9-0.4c-0.2-0.3-0.3-0.6-0.3-1
		c0-0.4,0.1-0.7,0.3-1c0.2-0.3,0.5-0.4,0.9-0.4h2.5v-8.8c0.1-1-0.3-2.1-0.9-2.8C226.7,11,225.7,10.7,224.6,10.8z"/>
	<path d="M237.2,13.1c0-0.8,0.2-1.7,0.6-2.4c0.4-0.6,0.9-1.2,1.5-1.5c0.6-0.4,1.3-0.6,2.1-0.8c0.8-0.2,1.6-0.2,2.4-0.2
		c1.1,0,2.1,0.2,3.1,0.6c0.8,0.3,1.5,0.9,2,1.6V9.2c0-0.3,0.1-0.6,0.3-0.7c0.2-0.2,0.5-0.3,0.8-0.3c0.9,0,1.3,0.4,1.3,1.2l-0.1,4.4
		c0,0.6-0.6,1.1-1.2,1c0,0,0,0-0.1,0c-0.2,0-0.4,0-0.5-0.2c-0.1-0.1-0.2-0.2-0.3-0.4c-0.1-0.1-0.1-0.3-0.2-0.6c-0.3-1-1.1-1.9-2-2.4
		c-1-0.6-2.1-0.9-3.3-0.9c-0.9,0-1.7,0.2-2.5,0.6c-0.6,0.3-1,0.9-1,1.6c0,0.6,0.2,1.1,0.6,1.5c0.6,0.4,1.3,0.7,2,0.9l3.9,1.3
		c0.6,0.2,1,0.3,1.4,0.5s0.8,0.3,1.2,0.5c0.4,0.2,0.8,0.4,1.1,0.7c0.3,0.3,0.6,0.6,0.8,0.9c0.3,0.4,0.5,0.8,0.6,1.2
		c0.1,0.5,0.2,1,0.2,1.5c0.1,1.5-0.5,2.9-1.7,3.8c-1.4,1-3.1,1.4-4.8,1.3c-1.2,0-2.5-0.2-3.6-0.5c-1-0.2-1.9-0.7-2.7-1.5
		c0,0.4-0.1,0.9-0.3,1.3c-0.2,0.2-0.6,0.4-0.9,0.3c-0.9,0-1.3-0.4-1.3-1.1v-5.1c0-0.3,0.1-0.5,0.4-0.7c0.2-0.2,0.5-0.3,0.8-0.3
		c0.3,0,0.7,0.1,0.9,0.3c0.2,0.3,0.4,0.6,0.4,0.9c0.2,1.3,1,2.4,2.1,3.1c1.3,0.7,2.7,1.1,4.1,1c0.9,0,1.8-0.2,2.6-0.6
		c0.6-0.4,1-1.1,1-1.8c0.1-0.7-0.1-1.3-0.6-1.8c-0.6-0.5-1.4-0.8-2.2-1l-4.1-1.3c-0.6-0.2-1.1-0.4-1.5-0.5c-0.4-0.2-0.9-0.4-1.3-0.7
		c-0.4-0.2-0.8-0.5-1.1-0.9c-0.3-0.3-0.5-0.7-0.7-1.1C237.2,14.1,237.2,13.6,237.2,13.1z"/>
	<path d="M43.4,574.9c0,1.9-0.3,3.9-1.1,5.6c-0.7,1.6-1.7,3-3.1,4.1c-1.4,1.1-3,2-4.7,2.5c-1.9,0.6-3.9,0.9-5.9,0.8H17.2
		c-0.3,0-0.6-0.1-0.8-0.4c-0.2-0.3-0.3-0.6-0.3-0.9c0-0.4,0.1-0.7,0.3-1c0.2-0.3,0.5-0.4,0.8-0.4h4v-20.5h-3c-0.3,0-0.6-0.1-0.8-0.4
		c-0.2-0.3-0.3-0.6-0.3-1c0-0.3,0.1-0.6,0.3-0.9c0.2-0.2,0.5-0.4,0.8-0.4h10.4c1.6,0,3.3,0.2,4.9,0.5c1.4,0.3,2.8,0.8,4.1,1.5
		c1.2,0.6,2.2,1.5,3.1,2.5c0.9,1.1,1.6,2.3,2,3.6C43.2,571.8,43.5,573.3,43.4,574.9z M39.8,574.9c0.2-2.8-0.9-5.5-2.9-7.5
		c-2.2-1.9-5-2.8-7.8-2.7h-4.3v20.5c0.7,0,1.4,0.1,2.1,0.1c1.4,0,2.9-0.1,4.3-0.3c1.2-0.2,2.4-0.6,3.6-1.1c1-0.5,2-1.2,2.8-2
		c0.8-0.9,1.4-1.9,1.7-3C39.6,577.7,39.8,576.3,39.8,574.9z"/>
	<path d="M46.1,586.7c0-0.4,0.1-0.7,0.3-1c0.2-0.3,0.5-0.4,0.8-0.4h2.1v-12.2l-2.2,0.6c-0.1,0-0.1,0-0.2,0c-0.3,0-0.6-0.1-0.8-0.4
		c-0.2-0.2-0.4-0.5-0.4-0.8c-0.1-0.6,0.3-1.1,0.9-1.3l4.8-1.2c0.1,0,0.2,0,0.2,0c0.2,0,0.4,0.1,0.6,0.2c0.1,0.1,0.2,0.3,0.2,0.5
		v14.6h2.3c0.3,0,0.6,0.1,0.8,0.4c0.2,0.3,0.3,0.6,0.3,1c0,0.3-0.1,0.6-0.3,0.9c-0.2,0.2-0.5,0.4-0.8,0.3h-7.4
		c-0.6,0.1-1.2-0.3-1.2-0.9C46.1,586.9,46.1,586.8,46.1,586.7z M52.4,565.8c-0.4,0.4-1,0.7-1.6,0.7c-1.3,0-2.3-1-2.3-2.3
		c0-1.3,1-2.3,2.3-2.3c0.6,0,1.2,0.2,1.6,0.7C53.3,563.4,53.3,564.9,52.4,565.8L52.4,565.8z"/>
	<path d="M58.8,575c0-0.8,0.2-1.7,0.6-2.4c0.4-0.6,0.9-1.2,1.5-1.5c0.6-0.4,1.3-0.6,2.1-0.8c0.8-0.2,1.6-0.2,2.4-0.2
		c1.1,0,2.1,0.2,3.1,0.7c0.8,0.3,1.5,0.9,2,1.6v-1.3c0-0.3,0.1-0.6,0.3-0.7c0.2-0.2,0.5-0.3,0.8-0.3c0.9,0,1.4,0.4,1.4,1.2l-0.1,4.4
		c0,0.6-0.6,1.1-1.2,1c0,0,0,0-0.1,0c-0.2,0-0.4,0-0.5-0.2c-0.1-0.1-0.2-0.2-0.3-0.3c-0.1-0.1-0.1-0.4-0.2-0.7c-0.3-1-1.1-1.9-2-2.4
		c-1-0.6-2.1-0.9-3.3-0.9c-0.9,0-1.7,0.2-2.5,0.6c-0.6,0.3-1,0.9-1,1.6c0,0.6,0.2,1.1,0.6,1.5c0.6,0.4,1.3,0.7,2,0.9l3.8,1.3
		c0.6,0.2,1,0.3,1.3,0.5s0.8,0.3,1.2,0.5c0.4,0.2,0.8,0.4,1.1,0.7c0.3,0.3,0.6,0.6,0.8,0.9c0.3,0.4,0.5,0.8,0.6,1.2
		c0.1,0.5,0.2,1,0.2,1.5c0.1,1.5-0.5,2.9-1.7,3.8c-1.4,1-3.1,1.4-4.8,1.3c-1.2,0-2.5-0.2-3.6-0.5c-1-0.2-1.9-0.7-2.7-1.5
		c0,0.4-0.1,0.9-0.3,1.3c-0.2,0.2-0.6,0.4-0.9,0.3c-0.9,0-1.3-0.4-1.3-1.1v-5.1c0-0.3,0.1-0.5,0.3-0.7c0.2-0.2,0.5-0.3,0.8-0.3
		c0.3,0,0.7,0.1,0.9,0.3c0.2,0.3,0.4,0.6,0.4,0.9c0.2,1.3,1,2.4,2.1,3.1c1.3,0.7,2.7,1.1,4.2,1c0.9,0,1.8-0.2,2.6-0.6
		c0.6-0.4,1-1.1,1-1.8c0.1-0.7-0.2-1.3-0.6-1.8c-0.6-0.5-1.4-0.9-2.2-1.1l-4.1-1.3c-0.6-0.2-1.1-0.4-1.5-0.5
		c-0.4-0.2-0.9-0.4-1.3-0.7c-0.4-0.2-0.8-0.5-1.1-0.8c-0.3-0.3-0.5-0.7-0.7-1.1C59,575.9,58.9,575.5,58.8,575z"/>
	<path d="M83.7,586c0.4,0,0.8-0.1,1.2-0.3c0.3-0.1,0.5-0.3,0.7-0.6c0.2-0.2,0.4-0.4,0.6-0.6c0.2-0.2,0.5-0.3,0.7-0.3
		c0.3,0,0.6,0.1,0.8,0.3c0.2,0.2,0.3,0.5,0.3,0.8c0,0.6-0.3,1.1-0.8,1.5c-0.5,0.5-1.2,0.8-1.8,1c-0.7,0.2-1.4,0.3-2.1,0.3
		c-1.2,0-2.3-0.4-3.1-1.2c-0.8-0.7-1.3-1.8-1.3-2.9v-10.6h-2.3c-0.3,0-0.7-0.1-0.9-0.3c-0.2-0.3-0.3-0.6-0.3-1c0-0.4,0.1-0.7,0.3-1
		c0.2-0.3,0.5-0.4,0.8-0.4h2.4c0-4,0.6-6,1.8-6c0.4,0,0.9,0.1,1.2,0.4v0.3c0,0.1,0,0.2,0,0.5s0,0.4,0,0.4v4.4h4
		c0.3,0,0.6,0.1,0.8,0.4c0.2,0.3,0.3,0.6,0.3,1c0,0.3-0.1,0.6-0.3,0.9c-0.2,0.2-0.5,0.4-0.8,0.4h-3.9v10.2
		C81.8,585.2,82.5,586,83.7,586z"/>
	<path d="M101.9,572.8c-1.1,0-2.2,0.2-3.2,0.8c-0.9,0.5-1.7,1.1-2.2,1.9v9.8h4c0.3,0,0.6,0.1,0.8,0.4c0.2,0.3,0.3,0.6,0.3,1
		c0,0.3-0.1,0.6-0.3,0.9c-0.2,0.2-0.5,0.4-0.8,0.4h-10c-0.3,0-0.7-0.1-0.9-0.3c-0.2-0.3-0.3-0.6-0.3-1c0-0.4,0.1-0.7,0.3-1
		c0.2-0.3,0.5-0.4,0.8-0.4h3v-12l-2.2,0.5c-0.1,0-0.1,0-0.2,0c-0.3,0-0.6-0.1-0.8-0.4c-0.2-0.2-0.4-0.5-0.4-0.8
		c-0.1-0.6,0.3-1.1,0.9-1.3l4.2-1.2h0.1h0.2c0.2,0,0.4,0.1,0.6,0.2c0.1,0.1,0.2,0.3,0.2,0.5l0.3,2.8c1.5-2.4,4.3-3.7,7.1-3.6
		c0.3,0,0.6,0.1,0.9,0.3c0.2,0.2,0.4,0.5,0.4,0.8v3.2c0,0.3-0.1,0.7-0.3,0.9c-0.3,0.2-0.6,0.3-1,0.3c-0.4,0-0.7-0.1-1-0.3
		c-0.3-0.2-0.4-0.5-0.4-0.8L101.9,572.8z"/>
	<path d="M125.6,585.5c0,0.6-0.3,1.1-0.8,1.5c-0.5,0.5-1.1,0.8-1.8,1.1c-0.5,0.2-1.1,0.4-1.7,0.4c-1.5,0.1-2.8-1-3-2.4
		c-0.8,0.9-1.7,1.5-2.8,1.9c-1.2,0.4-2.5,0.6-3.8,0.6c-1.4,0.1-2.8-0.5-3.9-1.4c-1-0.9-1.6-2.3-1.5-3.7c0-2.3,1.3-4,3.8-4.9
		c2.1-0.6,4.2-1,6.3-1.1l0.9-0.1l0.6-0.1v-2.4c0-0.5-0.2-0.9-0.5-1.3c-0.3-0.3-0.7-0.6-1.2-0.7c-0.5-0.1-1-0.2-1.5-0.2
		c-0.8,0-1.6,0.1-2.4,0.2c-0.6,0.1-1.1,0.3-1.6,0.5c-0.4,0.2-1,0.6-1.8,1.1c-0.2,0.1-0.3,0.2-0.5,0.2c-0.4,0-0.7-0.2-0.9-0.5
		c-0.3-0.3-0.4-0.6-0.4-1c0-0.6,0.3-1.1,0.8-1.5c0.6-0.5,1.2-0.8,1.9-1c0.8-0.2,1.5-0.4,2.3-0.5c0.7-0.1,1.5-0.1,2.2-0.1
		c1.1,0,2.2,0.1,3.2,0.4c0.8,0.2,1.5,0.6,2,1.2c0.5,0.6,0.9,1.4,1.1,2.2c0.2,1.1,0.3,2.2,0.3,3.2v7.6c0,0.7,0.2,1.1,0.7,1.1
		c0.4,0,0.7-0.2,1-0.4c0.4-0.3,0.8-0.5,1.1-0.8c0.2-0.2,0.5-0.4,0.8-0.4c0.3,0,0.5,0.2,0.7,0.4C125.5,584.8,125.6,585.1,125.6,585.5
		z M117.9,579.5l-1.1,0.1l-1.3,0.1l-1.2,0.2c-0.4,0.1-0.8,0.1-1.3,0.2l-1.1,0.3c-0.4,0.1-0.7,0.3-1,0.5c-0.3,0.2-0.5,0.4-0.8,0.6
		c-0.2,0.2-0.4,0.5-0.5,0.8c-0.1,0.3-0.2,0.7-0.2,1c0,0.7,0.3,1.5,0.9,1.9c0.7,0.5,1.5,0.7,2.3,0.7c1.9,0,3.8-0.7,5.2-2L117.9,579.5
		z"/>
	<path d="M136.5,570.1c0.6,0,1.2,0,1.9,0.1c0.6,0.1,1.2,0.2,1.7,0.4c0.5,0.2,1,0.5,1.5,0.8c0.4,0.4,0.8,0.8,1,1.3
		c0.3,0.6,0.4,1.3,0.4,1.9c0,0.5-0.1,1.1-0.4,1.5c-0.2,0.4-0.7,0.6-1.1,0.6c-0.2,0-0.5-0.1-0.6-0.2c-0.2-0.1-0.3-0.3-0.5-0.4
		c-0.1-0.2-0.3-0.5-0.3-0.7c-0.1-0.3-0.2-0.5-0.2-0.8l-0.2-0.9l-0.2-0.8c-0.9-0.2-1.9-0.4-2.9-0.4c-1.8-0.1-3.6,0.5-4.9,1.7
		c-1.3,1.2-2,2.9-1.9,4.7c0,1,0.2,1.9,0.5,2.8c0.3,0.8,0.8,1.5,1.4,2c0.6,0.5,1.3,0.9,2,1.2c0.8,0.3,1.6,0.4,2.4,0.4
		c1.8,0,3.6-0.7,4.9-1.9c0.3-0.3,0.6-0.4,1-0.4c0.4,0,0.7,0.1,1,0.3c0.3,0.2,0.4,0.5,0.4,0.9c0,0.7-0.3,1.3-0.7,1.7
		c-0.5,0.6-1.2,1-1.9,1.3c-0.7,0.3-1.5,0.6-2.3,0.8c-0.7,0.2-1.5,0.3-2.2,0.3c-1.8,0-3.5-0.3-5.1-1.1c-1.5-0.7-2.7-1.8-3.5-3.2
		c-0.9-1.5-1.3-3.3-1.3-5c0-1.3,0.3-2.6,0.8-3.8c0.5-1.1,1.3-2.1,2.2-2.8c1-0.8,2-1.3,3.2-1.7C133.9,570.3,135.2,570.1,136.5,570.1z
		"/>
	<path d="M152.9,586c0.4,0,0.8-0.1,1.1-0.3c0.3-0.1,0.5-0.3,0.7-0.6c0.2-0.2,0.4-0.4,0.6-0.6c0.2-0.2,0.5-0.3,0.7-0.3
		c0.3,0,0.6,0.1,0.8,0.3c0.2,0.2,0.3,0.5,0.3,0.8c0,0.6-0.3,1.2-0.8,1.5c-0.5,0.5-1.2,0.8-1.9,1c-0.7,0.2-1.4,0.3-2.1,0.3
		c-1.2,0-2.3-0.4-3.1-1.2c-0.8-0.7-1.3-1.8-1.3-2.9v-10.7h-2.3c-0.3,0-0.7-0.1-0.9-0.3c-0.2-0.3-0.3-0.6-0.3-1c0-0.4,0.1-0.7,0.3-1
		c0.2-0.3,0.5-0.4,0.9-0.4h2.4c0-4,0.6-6,1.8-6c0.4,0,0.9,0.1,1.2,0.4v0.3c0,0.1,0,0.2,0,0.5s0,0.4,0,0.4v4.4h4
		c0.3,0,0.6,0.1,0.8,0.4c0.2,0.3,0.3,0.6,0.3,1c0,0.3-0.1,0.6-0.3,0.9c-0.2,0.2-0.5,0.4-0.8,0.4H151v10.2
		C151,585.2,151.6,586,152.9,586z"/>
	<path d="M159.2,586.7c0-0.4,0.1-0.7,0.3-1c0.2-0.3,0.5-0.4,0.9-0.4h2.1v-12.2l-2.2,0.6c-0.1,0-0.1,0-0.2,0c-0.3,0-0.6-0.1-0.8-0.4
		c-0.2-0.2-0.4-0.5-0.4-0.8c-0.1-0.6,0.3-1.1,0.9-1.3l4.8-1.2c0.1,0,0.2,0,0.2,0c0.2,0,0.4,0.1,0.6,0.2c0.1,0.1,0.2,0.3,0.2,0.5
		v14.6h2.3c0.3,0,0.6,0.1,0.8,0.4c0.2,0.3,0.3,0.6,0.3,1c0,0.3-0.1,0.6-0.3,0.9c-0.2,0.2-0.5,0.4-0.8,0.3h-7.4
		c-0.6,0.1-1.2-0.3-1.2-0.9C159.2,586.9,159.2,586.8,159.2,586.7z M165.5,565.8c-0.4,0.4-1,0.7-1.6,0.7c-1.3,0-2.3-1-2.3-2.3
		c0-1.3,1-2.3,2.3-2.3c0.6,0,1.2,0.2,1.6,0.7C166.4,563.4,166.4,564.9,165.5,565.8L165.5,565.8z"/>
	<path d="M180,588.4c-2.5,0.1-5-0.8-6.8-2.5c-3.4-3.8-3.4-9.6,0-13.3c1.8-1.7,4.3-2.6,6.8-2.5c5.1-0.2,9.3,3.7,9.6,8.7
		s-3.7,9.3-8.7,9.6C180.6,588.4,180.3,588.4,180,588.4z M180,572.6c-1.7-0.1-3.3,0.6-4.4,1.8c-2.1,2.8-2.1,6.7,0,9.5
		c1.1,1.2,2.7,1.9,4.4,1.8c1.6,0.1,3.2-0.6,4.3-1.8c2.1-2.8,2.1-6.7,0-9.5C183.2,573.2,181.6,572.5,180,572.6z"/>
	<path d="M203.3,572.6c-0.9,0-1.8,0.2-2.7,0.6c-0.8,0.4-1.6,1-2.1,1.7c-0.5,0.7-0.8,1.5-0.9,2.4v8h2.2c0.3,0,0.6,0.1,0.8,0.4
		c0.2,0.3,0.3,0.6,0.3,1c0,0.3-0.1,0.6-0.3,0.9c-0.2,0.2-0.5,0.4-0.8,0.4h-7c-0.3,0-0.7-0.1-0.9-0.3c-0.2-0.3-0.3-0.6-0.3-1
		c0-0.4,0.1-0.7,0.3-1c0.2-0.3,0.5-0.4,0.9-0.4h1.9v-12l-2.2,0.5c-0.1,0-0.1,0-0.2,0c-0.3,0-0.6-0.1-0.9-0.4
		c-0.2-0.2-0.4-0.5-0.4-0.8c-0.1-0.6,0.3-1.1,0.9-1.3l4.2-1.2h0.1h0.2c0.2,0,0.4,0.1,0.6,0.2c0.1,0.1,0.2,0.3,0.2,0.5l0.3,2.8
		c0.6-1.1,1.5-1.9,2.6-2.5c1.2-0.7,2.5-1,3.9-1c3.1-0.3,5.9,2.1,6.1,5.2c0,0.3,0,0.6,0,0.9v9.1h1.9c0.3,0,0.6,0.1,0.8,0.4
		c0.2,0.3,0.3,0.6,0.3,1c0,0.3-0.1,0.6-0.3,0.9c-0.2,0.2-0.5,0.4-0.8,0.4h-7.4c-0.3,0-0.7-0.1-0.9-0.3c-0.2-0.3-0.3-0.6-0.3-1
		c0-0.4,0.1-0.7,0.3-1c0.2-0.3,0.5-0.4,0.9-0.4h2.5v-8.8c0.1-1-0.3-2.1-0.9-2.8C205.4,572.9,204.3,572.5,203.3,572.6z"/>
	<path d="M215.9,575c0-0.8,0.2-1.7,0.6-2.4c0.4-0.6,0.9-1.2,1.5-1.5c0.6-0.4,1.3-0.6,2.1-0.8c0.8-0.2,1.6-0.2,2.4-0.2
		c1.1,0,2.1,0.2,3.1,0.7c0.8,0.3,1.5,0.9,2,1.6v-1.3c0-0.3,0.1-0.6,0.3-0.7c0.2-0.2,0.5-0.3,0.8-0.3c0.9,0,1.3,0.4,1.3,1.2l-0.1,4.4
		c0,0.6-0.6,1.1-1.2,1c0,0,0,0-0.1,0c-0.2,0-0.4,0-0.5-0.2c-0.1-0.1-0.2-0.2-0.3-0.3c-0.1-0.1-0.1-0.4-0.2-0.7c-0.3-1-1.1-1.9-2-2.4
		c-1-0.6-2.1-0.9-3.3-0.9c-0.9,0-1.7,0.2-2.5,0.6c-0.6,0.3-1,0.9-1,1.6c0,0.6,0.2,1.1,0.6,1.5c0.6,0.4,1.3,0.7,2,0.9l3.9,1.3
		c0.6,0.2,1,0.3,1.4,0.5c0.3,0.1,0.8,0.3,1.3,0.6c0.4,0.2,0.8,0.4,1.1,0.7c0.3,0.3,0.6,0.6,0.8,0.9c0.3,0.4,0.5,0.8,0.6,1.2
		c0.1,0.5,0.2,1,0.2,1.5c0.1,1.5-0.5,2.9-1.7,3.8c-1.4,1-3.1,1.4-4.8,1.3c-1.2,0-2.5-0.2-3.6-0.5c-1-0.2-1.9-0.7-2.7-1.5
		c0,0.4-0.1,0.9-0.3,1.3c-0.2,0.2-0.6,0.4-0.9,0.3c-0.9,0-1.3-0.4-1.3-1.1v-5.1c0-0.3,0.1-0.5,0.4-0.7c0.2-0.2,0.5-0.3,0.8-0.3
		c0.3,0,0.7,0.1,0.9,0.3c0.2,0.3,0.4,0.6,0.4,0.9c0.2,1.3,1,2.4,2.1,3.1c1.3,0.7,2.7,1.1,4.1,1c0.9,0,1.8-0.2,2.6-0.6
		c0.6-0.4,1-1.1,1-1.8c0.1-0.7-0.2-1.3-0.6-1.8c-0.6-0.5-1.4-0.9-2.2-1.1l-4.1-1.3c-0.6-0.2-1.1-0.4-1.5-0.5
		c-0.4-0.2-0.9-0.4-1.3-0.7c-0.4-0.2-0.8-0.5-1.1-0.8c-0.3-0.3-0.5-0.7-0.7-1.1C216,575.9,215.9,575.5,215.9,575z"/>
	<path d="M385.1,437.4c0,0.9-0.1,1.8-0.4,2.6c-0.2,0.7-0.6,1.3-1,1.9c-0.5,0.5-1,1-1.6,1.3c-0.6,0.3-1.3,0.6-2,0.8
		c-0.8,0.2-1.6,0.4-2.4,0.4c-1,0.1-1.8,0.2-2.6,0.2c-0.7,0-1.7,0-2.8,0H369v8.3h4.6c0.3,0,0.6,0.1,0.8,0.4c0.2,0.3,0.3,0.6,0.3,1
		c0,0.3-0.1,0.6-0.3,0.9c-0.2,0.2-0.5,0.4-0.8,0.4h-12c-0.3,0-0.6-0.1-0.8-0.4c-0.2-0.3-0.3-0.6-0.3-0.9c0-0.4,0.1-0.7,0.3-1
		c0.2-0.3,0.5-0.4,0.8-0.4h4v-20.5h-3.7c-0.3,0-0.6-0.1-0.8-0.4c-0.2-0.3-0.3-0.6-0.3-1c0-0.3,0.1-0.6,0.3-0.9
		c0.2-0.2,0.5-0.4,0.8-0.4h9.9h2.2c0.6,0,1.3,0,2.2,0.1c0.7,0,1.4,0.1,2.1,0.2c0.6,0.1,1.2,0.3,1.9,0.4c0.6,0.2,1.2,0.4,1.7,0.7
		c0.5,0.3,0.9,0.6,1.4,1c0.4,0.4,0.8,0.8,1.1,1.3c0.3,0.5,0.5,1.1,0.7,1.7C385,435.9,385.1,436.6,385.1,437.4z M381.5,437.1
		c0-0.6-0.1-1.2-0.3-1.8c-0.2-0.5-0.4-0.9-0.8-1.3c-0.4-0.4-0.8-0.7-1.3-0.8c-0.5-0.2-1-0.4-1.5-0.5c-0.6-0.1-1.2-0.2-1.8-0.3
		c-0.8-0.1-1.4-0.1-1.8-0.1h-1.9H369v9.8h4h1.9c0.5,0,1.1,0,1.7-0.1c0.5,0,1.1-0.2,1.6-0.3c0.5-0.1,0.9-0.3,1.3-0.6
		c0.4-0.2,0.8-0.5,1.1-0.9c0.3-0.4,0.5-0.8,0.6-1.3C381.4,438.4,381.5,437.8,381.5,437.1L381.5,437.1z"/>
	<path d="M399.5,440.4c-1.1,0-2.2,0.2-3.2,0.8c-0.9,0.5-1.7,1.1-2.2,1.9v9.8h4c0.3,0,0.6,0.1,0.8,0.4c0.2,0.3,0.3,0.6,0.3,1
		c0,0.3-0.1,0.6-0.3,0.9c-0.2,0.2-0.5,0.4-0.8,0.4h-10c-0.3,0-0.7-0.1-0.9-0.4c-0.2-0.3-0.3-0.6-0.3-1c0-0.4,0.1-0.7,0.3-1
		c0.2-0.3,0.5-0.4,0.9-0.4h3v-12.1l-2.2,0.5c-0.1,0-0.1,0-0.2,0c-0.3,0-0.6-0.1-0.8-0.4c-0.2-0.2-0.4-0.5-0.4-0.8
		c-0.1-0.6,0.3-1.1,0.9-1.3l4.2-1.2h0.1h0.2c0.2,0,0.4,0.1,0.5,0.2c0.1,0.1,0.2,0.3,0.2,0.5l0.3,2.9c1.5-2.4,4.3-3.7,7.1-3.6
		c0.3,0,0.6,0.1,0.9,0.3c0.2,0.2,0.4,0.5,0.4,0.8v3.2c0,0.3-0.1,0.7-0.4,0.9c-0.3,0.2-0.6,0.3-1,0.3c-0.4,0-0.7-0.1-1-0.3
		c-0.3-0.2-0.4-0.5-0.4-0.9L399.5,440.4z"/>
	<path d="M412.9,456c-2.5,0.1-5-0.8-6.8-2.5c-3.4-3.8-3.4-9.6,0-13.3c1.8-1.7,4.3-2.6,6.8-2.5c5.1-0.2,9.3,3.7,9.6,8.7
		c0.2,5.1-3.7,9.3-8.7,9.6C413.5,456,413.2,456,412.9,456z M412.9,440.3c-1.7-0.1-3.3,0.6-4.4,1.8c-2.1,2.8-2.1,6.7,0,9.5
		c1.1,1.2,2.7,1.9,4.4,1.8c1.6,0.1,3.2-0.6,4.3-1.8c2.1-2.8,2.1-6.7,0-9.5C416.1,440.8,414.5,440.2,412.9,440.3L412.9,440.3z"/>
	<path d="M434.3,437.7c0.6,0,1.2,0,1.9,0.1c0.6,0.1,1.2,0.2,1.7,0.5c0.5,0.2,1,0.5,1.5,0.8c0.4,0.4,0.8,0.8,1,1.4
		c0.3,0.6,0.4,1.3,0.4,1.9c0,0.5-0.1,1.1-0.4,1.5c-0.2,0.4-0.7,0.6-1.1,0.6c-0.2,0-0.5-0.1-0.6-0.2c-0.2-0.1-0.3-0.3-0.5-0.4
		c-0.1-0.2-0.3-0.5-0.3-0.7c-0.1-0.3-0.2-0.5-0.2-0.8l-0.2-0.9l-0.2-0.8c-0.9-0.2-1.9-0.4-2.9-0.4c-1.8-0.1-3.6,0.5-4.9,1.7
		c-1.3,1.2-2,2.9-1.9,4.6c0,1,0.2,1.9,0.5,2.8c0.3,0.8,0.8,1.5,1.4,2c0.6,0.5,1.3,0.9,2,1.2c0.8,0.3,1.6,0.4,2.4,0.4
		c1.8,0,3.6-0.7,5-1.9c0.3-0.3,0.6-0.4,1-0.4c0.4,0,0.7,0.1,1,0.3c0.3,0.2,0.4,0.5,0.4,0.9c0,0.7-0.3,1.3-0.7,1.7
		c-0.5,0.6-1.2,1-1.9,1.3c-0.7,0.3-1.5,0.6-2.3,0.8c-0.7,0.2-1.5,0.3-2.2,0.3c-1.8,0-3.5-0.3-5.1-1.1c-1.5-0.7-2.7-1.8-3.5-3.2
		c-0.9-1.5-1.3-3.3-1.3-5c0-1.3,0.3-2.6,0.8-3.8c0.5-1.1,1.3-2.1,2.2-2.8c1-0.8,2-1.3,3.2-1.7C431.6,437.9,432.9,437.7,434.3,437.7z
		"/>
	<path d="M455.3,440.4c-1.1,0-2.2,0.2-3.2,0.8c-0.9,0.5-1.7,1.1-2.2,1.9v9.8h4c0.3,0,0.6,0.1,0.8,0.4c0.2,0.3,0.3,0.6,0.3,1
		c0,0.3-0.1,0.6-0.3,0.9c-0.2,0.2-0.5,0.4-0.8,0.4H444c-0.3,0-0.7-0.1-0.9-0.4c-0.2-0.3-0.3-0.6-0.3-1c0-0.4,0.1-0.7,0.3-1
		c0.2-0.3,0.5-0.4,0.9-0.4h3v-12.1l-2.2,0.5c-0.1,0-0.1,0-0.2,0c-0.3,0-0.6-0.1-0.8-0.4c-0.2-0.2-0.4-0.5-0.4-0.8
		c-0.1-0.6,0.3-1.1,0.9-1.3l4.2-1.2h0.1h0.2c0.2,0,0.4,0.1,0.5,0.2c0.1,0.1,0.2,0.3,0.2,0.5l0.3,2.9c1.5-2.4,4.3-3.7,7.1-3.6
		c0.3,0,0.6,0.1,0.9,0.3c0.2,0.2,0.4,0.5,0.4,0.8v3.2c0,0.3-0.1,0.7-0.4,0.9c-0.3,0.2-0.6,0.3-1,0.3c-0.4,0-0.7-0.1-1-0.3
		c-0.3-0.2-0.4-0.5-0.4-0.9L455.3,440.4z"/>
	<path d="M479.1,453c0,0.6-0.3,1.1-0.8,1.5c-0.5,0.5-1.1,0.8-1.8,1.1c-0.5,0.2-1.1,0.4-1.7,0.4c-1.5,0.1-2.8-1-3-2.4
		c-0.8,0.9-1.7,1.5-2.8,1.9c-1.2,0.4-2.5,0.6-3.9,0.6c-1.4,0.1-2.8-0.5-3.9-1.4c-1-0.9-1.6-2.3-1.5-3.6c0-2.3,1.3-4,3.8-4.9
		c2.1-0.6,4.2-1,6.3-1.1l0.9-0.1l0.6-0.1v-2.4c0-0.5-0.2-0.9-0.5-1.2c-0.3-0.3-0.7-0.6-1.2-0.7c-0.5-0.1-1-0.2-1.5-0.2
		c-0.8,0-1.6,0.1-2.4,0.2c-0.6,0.1-1.1,0.3-1.6,0.5c-0.4,0.2-1,0.6-1.8,1.1c-0.2,0.1-0.3,0.2-0.5,0.2c-0.4,0-0.7-0.2-0.9-0.5
		c-0.3-0.3-0.4-0.6-0.4-1c0-0.6,0.3-1.1,0.8-1.5c0.6-0.5,1.2-0.8,1.9-1c0.8-0.2,1.5-0.4,2.3-0.5c0.7-0.1,1.5-0.1,2.2-0.1
		c1.1,0,2.2,0.1,3.2,0.4c0.8,0.2,1.5,0.6,2,1.2c0.5,0.6,0.9,1.4,1.1,2.2c0.2,1.1,0.3,2.2,0.3,3.2v7.6c0,0.7,0.2,1.1,0.7,1.1
		c0.4,0,0.7-0.2,1-0.4c0.4-0.3,0.8-0.5,1.1-0.8c0.2-0.2,0.5-0.4,0.8-0.4c0.3,0,0.6,0.2,0.7,0.5C478.9,452.4,479.1,452.7,479.1,453z
		 M471.4,447l-1.1,0.1l-1.3,0.1l-1.2,0.2c-0.4,0.1-0.8,0.1-1.3,0.2l-1.1,0.3c-0.4,0.1-0.7,0.3-1,0.5c-0.3,0.2-0.5,0.4-0.8,0.6
		c-0.2,0.2-0.4,0.5-0.5,0.8c-0.1,0.3-0.2,0.7-0.2,1c0,0.7,0.3,1.5,0.9,1.9c0.7,0.5,1.5,0.7,2.3,0.6c1.9,0,3.8-0.7,5.2-2L471.4,447z"
		/>
	<path d="M481.2,442.6c0-0.8,0.2-1.7,0.6-2.4c0.4-0.6,0.9-1.2,1.5-1.5c0.6-0.4,1.3-0.6,2.1-0.8c0.8-0.2,1.6-0.2,2.4-0.2
		c1.1,0,2.1,0.2,3.1,0.6c0.8,0.3,1.5,0.9,2,1.6v-1.3c0-0.3,0.1-0.6,0.3-0.7c0.2-0.2,0.5-0.3,0.8-0.3c0.9,0,1.3,0.4,1.3,1.2l-0.1,4.4
		c0,0.6-0.6,1.1-1.2,1c0,0,0,0-0.1,0c-0.2,0-0.4,0-0.5-0.2c-0.1-0.1-0.2-0.2-0.3-0.4c-0.1-0.1-0.1-0.4-0.2-0.6c-0.3-1-1.1-1.9-2-2.4
		c-1-0.6-2.1-0.9-3.3-0.9c-0.9,0-1.7,0.2-2.5,0.6c-0.6,0.3-1,0.9-1,1.6c0,0.6,0.2,1.1,0.6,1.5c0.6,0.4,1.3,0.7,2,0.9l3.9,1.3
		c0.6,0.2,1,0.3,1.4,0.5c0.3,0.1,0.8,0.3,1.2,0.5c0.4,0.2,0.8,0.4,1.1,0.7c0.3,0.3,0.6,0.6,0.8,0.9c0.3,0.4,0.5,0.8,0.6,1.2
		c0.1,0.5,0.2,1,0.2,1.5c0.1,1.5-0.5,2.9-1.7,3.8c-1.4,1-3.1,1.4-4.8,1.3c-1.2,0-2.5-0.2-3.6-0.5c-1-0.2-1.9-0.7-2.7-1.5
		c0,0.4-0.1,0.9-0.3,1.3c-0.2,0.2-0.6,0.4-0.9,0.3c-0.9,0-1.3-0.4-1.3-1.1v-5.1c0-0.3,0.1-0.5,0.4-0.7c0.2-0.2,0.5-0.3,0.8-0.3
		c0.3,0,0.7,0.1,0.9,0.3c0.2,0.3,0.4,0.6,0.4,0.9c0.2,1.3,1,2.4,2.1,3.1c1.3,0.7,2.7,1.1,4.1,1c0.9,0,1.8-0.2,2.6-0.6
		c0.6-0.4,1-1.1,1-1.8c0.1-0.7-0.2-1.3-0.6-1.8c-0.6-0.5-1.4-0.9-2.2-1.1l-4.1-1.3c-0.6-0.2-1.1-0.4-1.5-0.5
		c-0.4-0.2-0.9-0.4-1.3-0.7c-0.4-0.2-0.8-0.5-1.1-0.9c-0.3-0.3-0.5-0.7-0.7-1.1C481.3,443.5,481.2,443.1,481.2,442.6z"/>
	<path d="M506.1,453.6c0.4,0,0.8-0.1,1.1-0.3c0.3-0.1,0.5-0.3,0.7-0.6c0.2-0.2,0.4-0.4,0.6-0.6c0.2-0.2,0.5-0.3,0.7-0.3
		c0.3,0,0.6,0.1,0.8,0.3c0.2,0.2,0.3,0.5,0.3,0.8c0,0.6-0.3,1.2-0.8,1.5c-0.5,0.5-1.2,0.8-1.9,1c-0.7,0.2-1.4,0.3-2.1,0.3
		c-1.2,0-2.3-0.4-3.1-1.2c-0.8-0.7-1.3-1.8-1.3-2.9v-10.6h-2.2c-0.3,0-0.7-0.1-0.9-0.4c-0.2-0.3-0.3-0.6-0.3-1c0-0.4,0.1-0.7,0.3-1
		c0.2-0.3,0.5-0.4,0.9-0.4h2.4c0-4,0.6-6,1.8-6c0.4,0,0.9,0.1,1.2,0.4v0.3c0,0.1,0,0.2,0,0.5c0,0.2,0,0.4,0,0.5v4.4h4
		c0.3,0,0.6,0.1,0.8,0.4c0.2,0.3,0.3,0.6,0.3,1c0,0.3-0.1,0.6-0.3,0.9c-0.2,0.2-0.5,0.4-0.8,0.4h-3.9v10.2
		C504.2,452.8,504.8,453.6,506.1,453.6z"/>
	<path d="M512.4,454.3c0-0.4,0.1-0.7,0.3-1c0.2-0.3,0.5-0.4,0.8-0.4h2.1v-12.2l-2.2,0.6c-0.1,0-0.1,0-0.2,0c-0.3,0-0.6-0.1-0.8-0.4
		c-0.2-0.2-0.4-0.5-0.4-0.8c-0.1-0.6,0.3-1.1,0.9-1.3l4.8-1.2c0.1,0,0.2,0,0.2,0c0.2,0,0.4,0.1,0.6,0.2c0.1,0.1,0.2,0.3,0.2,0.5V453
		h2.3c0.3,0,0.6,0.1,0.8,0.4c0.2,0.3,0.3,0.6,0.3,1c0,0.3-0.1,0.6-0.3,0.9c-0.2,0.2-0.5,0.4-0.8,0.4h-7.4c-0.6,0.1-1.2-0.3-1.2-0.9
		C512.4,454.6,512.4,454.4,512.4,454.3z M518.7,433.4c-0.4,0.4-1,0.7-1.6,0.7c-1.3,0-2.3-1-2.3-2.3c0-1.3,1-2.3,2.3-2.3
		c0.6,0,1.2,0.2,1.6,0.7C519.6,431,519.6,432.5,518.7,433.4L518.7,433.4z"/>
	<path d="M535.9,440.2c-0.9,0-1.8,0.2-2.7,0.6c-0.8,0.4-1.6,1-2.2,1.7c-0.5,0.7-0.8,1.5-0.8,2.4v8h2.2c0.3,0,0.6,0.1,0.8,0.4
		c0.2,0.3,0.3,0.6,0.3,1c0,0.3-0.1,0.6-0.3,0.9c-0.2,0.2-0.5,0.4-0.8,0.4h-7c-0.3,0-0.7-0.1-0.9-0.4c-0.2-0.3-0.3-0.6-0.3-1
		c0-0.4,0.1-0.7,0.3-1c0.2-0.3,0.5-0.4,0.8-0.4h1.9v-12l-2.2,0.5c-0.1,0-0.1,0-0.2,0c-0.3,0-0.6-0.1-0.8-0.4
		c-0.2-0.2-0.4-0.5-0.4-0.8c-0.1-0.6,0.3-1.1,0.9-1.3l4.2-1.2h0.1h0.2c0.2,0,0.4,0.1,0.5,0.2c0.1,0.1,0.2,0.3,0.2,0.5l0.3,2.9
		c0.6-1.1,1.5-1.9,2.6-2.5c1.2-0.7,2.5-1,3.9-1c3.1-0.3,5.9,2.1,6.1,5.2c0,0.3,0,0.6,0,0.9v9.1h1.9c0.3,0,0.6,0.1,0.8,0.4
		c0.2,0.3,0.3,0.6,0.3,1c0,0.3-0.1,0.6-0.3,0.9c-0.2,0.2-0.5,0.4-0.8,0.4h-7.4c-0.3,0-0.7-0.1-0.9-0.4c-0.2-0.3-0.3-0.6-0.3-1
		c0-0.4,0.1-0.7,0.3-1c0.2-0.3,0.5-0.4,0.8-0.4h2.5v-8.8c0.1-1-0.3-2.1-0.9-2.9C537.9,440.5,536.9,440.2,535.9,440.2z"/>
	<path d="M566.3,453c0,0.6-0.3,1.1-0.8,1.5c-0.5,0.5-1.1,0.8-1.8,1.1c-0.5,0.2-1.1,0.4-1.7,0.4c-1.5,0.1-2.8-1-3-2.4
		c-0.8,0.9-1.7,1.5-2.8,1.9c-1.2,0.4-2.5,0.6-3.8,0.6c-1.4,0.1-2.8-0.5-3.9-1.4c-1-0.9-1.6-2.2-1.5-3.6c0-2.3,1.3-4,3.8-4.9
		c2.1-0.6,4.2-1,6.3-1.1l0.9-0.1l0.6-0.1v-2.4c0-0.5-0.2-0.9-0.5-1.2c-0.3-0.3-0.7-0.6-1.2-0.7c-0.5-0.1-1-0.2-1.5-0.2
		c-0.8,0-1.6,0.1-2.4,0.2c-0.6,0.1-1.1,0.3-1.6,0.5c-0.4,0.2-1,0.6-1.8,1.1c-0.2,0.1-0.3,0.2-0.5,0.2c-0.4,0-0.7-0.2-0.9-0.5
		c-0.3-0.3-0.4-0.6-0.4-1c0-0.6,0.3-1.1,0.8-1.5c0.6-0.5,1.2-0.8,1.9-1c0.8-0.2,1.5-0.4,2.3-0.5c0.7-0.1,1.5-0.1,2.2-0.1
		c1.1,0,2.2,0.1,3.2,0.4c0.8,0.2,1.5,0.6,2,1.2c0.5,0.6,0.9,1.4,1.1,2.2c0.2,1.1,0.3,2.2,0.3,3.2v7.6c0,0.7,0.2,1.1,0.7,1.1
		c0.4,0,0.7-0.2,1-0.4c0.4-0.3,0.8-0.5,1.1-0.8c0.2-0.2,0.5-0.4,0.8-0.4c0.3,0,0.6,0.2,0.7,0.5C566.2,452.5,566.3,452.7,566.3,453z
		 M558.7,447l-1.1,0.1l-1.3,0.1l-1.2,0.2c-0.4,0.1-0.8,0.1-1.3,0.2l-1.1,0.3c-0.4,0.1-0.7,0.3-1,0.5c-0.3,0.2-0.5,0.4-0.8,0.6
		c-0.2,0.2-0.4,0.5-0.5,0.8c-0.1,0.3-0.2,0.7-0.2,1c0,0.7,0.3,1.5,0.9,1.9c0.7,0.5,1.5,0.7,2.3,0.6c1.9,0,3.8-0.7,5.2-2L558.7,447z"
		/>
	<path d="M574.7,453.6c0.4,0,0.8-0.1,1.2-0.3c0.3-0.1,0.5-0.3,0.7-0.6c0.2-0.2,0.4-0.4,0.6-0.6c0.2-0.2,0.5-0.3,0.7-0.3
		c0.3,0,0.6,0.1,0.8,0.3c0.2,0.2,0.3,0.5,0.3,0.8c0,0.6-0.3,1.2-0.8,1.5c-0.5,0.5-1.2,0.8-1.8,1c-0.7,0.2-1.4,0.3-2.1,0.3
		c-1.2,0-2.3-0.4-3.1-1.2c-0.8-0.7-1.3-1.8-1.3-2.9v-10.6h-2.3c-0.3,0-0.7-0.1-0.9-0.4c-0.2-0.3-0.3-0.6-0.3-1c0-0.4,0.1-0.7,0.3-1
		c0.2-0.3,0.5-0.4,0.8-0.4h2.3c0-4,0.6-6,1.8-6c0.4,0,0.9,0.1,1.2,0.4v0.3c0,0.1,0,0.2,0,0.5c0,0.2,0,0.4,0,0.5v4.4h4
		c0.3,0,0.6,0.1,0.8,0.4c0.2,0.3,0.3,0.6,0.3,1c0,0.3-0.1,0.6-0.3,0.9c-0.2,0.2-0.5,0.4-0.8,0.4h-3.9v10.2
		C572.8,452.8,573.5,453.6,574.7,453.6z"/>
	<path d="M581.1,454.3c0-0.4,0.1-0.7,0.3-1c0.2-0.3,0.5-0.4,0.8-0.4h2.1v-12.2l-2.2,0.6c-0.1,0-0.1,0-0.2,0c-0.3,0-0.6-0.1-0.8-0.4
		c-0.2-0.2-0.4-0.5-0.4-0.8c-0.1-0.6,0.3-1.1,0.9-1.3l4.8-1.2c0.1,0,0.2,0,0.2,0c0.2,0,0.4,0.1,0.6,0.2c0.1,0.1,0.2,0.3,0.2,0.5V453
		h2.3c0.3,0,0.6,0.1,0.8,0.4c0.2,0.3,0.3,0.6,0.3,1c0,0.3-0.1,0.6-0.3,0.9c-0.2,0.2-0.5,0.4-0.8,0.4h-7.4c-0.6,0.1-1.2-0.3-1.2-0.9
		C581,454.6,581,454.4,581.1,454.3z M587.3,433.4c-0.4,0.4-1,0.7-1.6,0.7c-1.3,0-2.3-1-2.3-2.3c0-1.3,1-2.3,2.3-2.3l0,0
		c0.6,0,1.2,0.2,1.6,0.7C588.2,431,588.2,432.5,587.3,433.4L587.3,433.4z"/>
	<path d="M601.8,456c-2.5,0.1-5-0.8-6.8-2.5c-3.4-3.8-3.4-9.6,0-13.3c1.8-1.7,4.3-2.6,6.8-2.5c5.1-0.2,9.3,3.7,9.6,8.7
		c0.2,5.1-3.7,9.3-8.7,9.6C602.4,456,602.1,456,601.8,456z M601.8,440.3c-1.7-0.1-3.3,0.6-4.4,1.8c-2.1,2.8-2.1,6.7,0,9.5
		c1.1,1.2,2.7,1.9,4.4,1.8c1.6,0.1,3.2-0.6,4.3-1.8c2.1-2.8,2.1-6.7,0-9.5C605.1,440.8,603.5,440.2,601.8,440.3L601.8,440.3z"/>
	<path d="M625.2,440.2c-0.9,0-1.8,0.2-2.7,0.6c-0.8,0.4-1.6,1-2.2,1.7c-0.5,0.7-0.8,1.5-0.8,2.4v8h2.2c0.3,0,0.6,0.1,0.8,0.4
		c0.2,0.3,0.3,0.6,0.3,1c0,0.3-0.1,0.6-0.3,0.9c-0.2,0.2-0.5,0.4-0.8,0.4h-7c-0.3,0-0.7-0.1-0.9-0.4c-0.2-0.3-0.3-0.6-0.3-1
		c0-0.4,0.1-0.7,0.3-1c0.2-0.3,0.5-0.4,0.8-0.4h1.9v-12l-2.2,0.5c-0.1,0-0.1,0-0.2,0c-0.3,0-0.6-0.1-0.8-0.4
		c-0.2-0.2-0.4-0.5-0.4-0.8c-0.1-0.6,0.3-1.1,0.9-1.3l4.2-1.2h0.1h0.2c0.2,0,0.4,0.1,0.5,0.2c0.1,0.1,0.2,0.3,0.2,0.5l0.3,2.9
		c0.6-1.1,1.5-1.9,2.6-2.5c1.2-0.7,2.5-1,3.9-1c3.1-0.3,5.9,2.1,6.1,5.2c0,0.3,0,0.6,0,0.9v9.1h1.9c0.3,0,0.6,0.1,0.8,0.4
		c0.2,0.3,0.3,0.6,0.3,1c0,0.3-0.1,0.6-0.3,0.9c-0.2,0.2-0.5,0.4-0.8,0.4h-7.3c-0.3,0-0.7-0.1-0.9-0.4c-0.2-0.3-0.3-0.6-0.3-1
		c0-0.4,0.1-0.7,0.3-1c0.2-0.3,0.5-0.4,0.8-0.4h2.5v-8.8c0.1-1-0.3-2.1-0.9-2.9C627.2,440.5,626.2,440.1,625.2,440.2z"/>
</g>
<g id="image3Bot">
	<g>
		<path class="st3" d="M200.9,317.6c16.6,2.1,33.4,4.2,48.8,10.8c9.1,3.8,17.9,9.5,22.8,18c3.6,6.3,4.9,13.6,5.5,20.8
			c1.9,24.2-0.1,47.7-0.6,72c-0.3,16.1-2,26.5-3.6,42.5s-7.4,32.5-20,42.4c-13.3,10.4-31.3,11.6-48.2,11.8
			c-46.6,0.6-93.2,3.6-139.2-3.6c-14.1-2.2-28.5-4.9-40.9-12.2c-4.9-2.9-9.5-6.6-12.5-11.4c-4.7-7.5-5.1-16.8-5.5-25.6
			c-1-25.6,1.9-51.1,1-76.7c-0.8-21-1.4-43,7.4-62.1c12.4-26.7,40.5-26.9,67.6-27.2C122.8,316.5,161.9,312.7,200.9,317.6z"/>
		<rect x="64.4" y="421.5" class="st4" width="108.6" height="4.6"/>
		<rect x="83.9" y="426.2" width="78.9" height="7.9"/>
		<rect x="84.1" y="429.5" width="8.6" height="85.5"/>
		<rect x="106.3" y="429.7" width="6.2" height="59.9"/>
		<path class="st5" d="M158.3,421.1c0,0-28.3-0.3-29.9-0.5c-1.3-0.2-1.3-2.5-0.7-2.6c0.7-0.1,30,0.4,30,0.4L158.3,421.1z"/>
		<ellipse class="st5" cx="132" cy="421" rx="1.2" ry="0.5"/>
		<ellipse class="st5" cx="155.9" cy="421" rx="1.2" ry="0.5"/>
		<path class="st6" d="M115.1,390.1c1.7,0.8,3.1,2.1,4,3.8c1.7,2.8,11.6,24.2,11.6,24.2h-1.2c0,0-10.7-23.6-11.7-24.6
			S115,389.9,115.1,390.1z"/>
		<path class="st5" d="M115.3,390c0,0-0.4,1.6,1.3,5.2s11.7,23,11.7,23l1.6-0.1l-11.9-24.8L115.3,390z"/>
		<polygon class="st7" points="190,484.9 164.8,487.4 164.4,490.9 187.7,490.5 		"/>
		<circle cx="166.4" cy="490" r="2.4"/>
		<circle cx="207.4" cy="492.3" r="2.4"/>
		<polygon class="st7" points="196.1,484.6 232.7,492.3 232.8,496.7 230.3,496.7 229.9,495.5 196.4,491.1 		"/>
		<circle cx="233.4" cy="498.9" r="3.1"/>
		<path d="M189,465.5c0,0,0,21,0.3,22.7s0.6,4.7,0.6,4.7l1.8,1v5.5h4V494l1-1.8l1.3-27L189,465.5z"/>
		<path d="M190.5,485.9l-32.3,9.4c0,0-1.2,2.7-0.6,3.4s1.9,1,4.1,0.4s6.2-2.2,8.1-2.5s21.8-4.6,21.8-4.6L190.5,485.9z"/>
		<path d="M195.4,485c0,0,10,13.1,10.5,14s0,4,0,4l-2.2,0.6l-0.9-1.9l-8.1-8.6L195.4,485z"/>
		<circle cx="206" cy="505.7" r="3.7"/>
		<circle cx="162.1" cy="502.6" r="3.1"/>
		<path d="M143.5,492.1c-1.6,1-3.1,2.2-4.4,3.5c-1.5,1.6-7.5,3.8-9.8,4.3s-5.5,0-6.3,1.1s-0.5,3.5,3.2,4s8.3,0,11.9-0.3
			s8.8-1.5,9.6-1.5s1.6,1.2,1.6,1.2s5.1,0,6.1-1.1s0-9.4,0-9.4L143.5,492.1z"/>
		<path d="M127.6,492.9c0,0-0.3,3.1,1.6,4c2.7,1.1,5.5,1.7,8.4,1.8c2.7,0,8-2.4,8-2.4l2.2-4.7l-5.6-3.7c0,0-3.8,4.3-4.9,4.7
			S128.2,492.7,127.6,492.9z"/>
		<path class="st8" d="M183,410.8c0,0,6.2-3.7,7.5-4.9s4.6-6,5.6-7.4s4.9-8.3,4.9-8.3l2.1-2.7l1.6,1l-1.8,8.7l-11.1,12.4l-7.2,1.3
			L183,410.8z"/>
		<polygon class="st9" points="203,387.6 202.4,381.6 207.7,378.6 207.3,382.3 		"/>
		<path class="st10" d="M215.5,358c0,0,4.3,17.4,4.2,19.8c-0.1,2.1-9.9,7.9-10.9,7.8c-1.6-0.2,0.4-7.5-0.6-8.7S215.5,358,215.5,358z
			"/>
		<path class="st11" d="M219.6,376.1c0,0,8.4,8.9,8.6,12.3s-1.3,8.7-1.6,9.6s-7.5,16.7-8.7,24.2s-2.7,21-3.3,21.5s-12-6.4-14.2-7.1
			s-5.5-3.5-8.7-3.8l-6.5-0.6c0,0,5.6-3,7.2-6.2s4.4-10.5,4.6-11.1s3.7-21.3,4.3-23.5c1.1-3,2.8-5.8,5.2-8c2-1.6,4.2-3.1,6.5-4.4
			C213.5,378.8,219.6,376.1,219.6,376.1z"/>
		<path class="st10" d="M163.8,414c-2.2-0.4-4.4-0.9-6.5-1.5c-1.3-0.5-2.7-0.7-4.1-0.6c-1.2,0.1-5.6,1.6-5.6,1.6s-6.4,3.4-5.5,3.8
			c0.5,0.3,1,0.4,1.5,0.4c0.6,0.3,1.3,0.5,1.9,0.4c1.3,0,0.9-0.6,0.9-0.6c0.7,0.7,1.7,1,2.7,0.7c1.9-0.3,3.7-1.8,6.6-1
			c2.4,0.7,4.9,0.9,7.3,0.6C165.1,417.7,163.8,414,163.8,414z"/>
		<path class="st12" d="M146.4,417.7c0.6-0.7,1.4-1.2,2.3-1.4c1.7-0.5,2.4-1.2,3.6-1.5"/>
		<path class="st12" d="M143.6,417.8c1.2-0.9,2.4-1.7,3.7-2.4c1.2-0.5,1.3-0.9,2.4-1"/>
		<path class="st13" d="M155.9,495.3c0,0-9.5-1-11.4-2s-4.4-1.8-4.1-6.6s3.5-27.6,5-32.8s2.2-14.8,5-15.9s16.1-4.3,25.8-5.2
			s22.1-0.7,23.8-0.7s13.4,9,13.4,9l2.7,8l-3.5,0.7l-23.2-1.6c0,0-18.3-0.1-20.7,0.6s-7.8,2.1-8.4,4.7s-2.7,31.4-2.5,31.9
			S155.9,495.3,155.9,495.3z"/>
		<path class="st5" d="M199,422.2l0.1,0.6c0.9,4.3,6.4,32.2,5.9,33.5s0.1,4.3-3.1,4s-5.9-1-5.6-2.5c0.3-1.6,0.4-3.2,0.4-4.9
			c0-1.2-4.4-21.8-4.6-23.2s-1.2-6.2-1.2-6.2l8-1.1"/>
		<path d="M231.8,387.2c0,0-10.3,19.3-12.1,27s-7.1,33.6-6.5,36.3s5.2,5.8,6.1,5.9c0.8,0.1,1.6,0.1,2.4,0.1c0,0-4.9-14.6-2.5-25.2
			s8.6-32.6,10.5-35.1c1.3-1.7,2.2-3.8,2.5-5.9C232.3,389.3,232.2,388.2,231.8,387.2z"/>
		<path class="st14" d="M159.3,453.3c0,0,4,4.9,6.6,3.7c3-1.3,6.2-2,9.4-2.1c4.1-0.1,25.2,0.6,29.1,0.9s8.9,1.5,9.6-0.1
			s0.6-5.6-0.6-5.9s-26.1-2.1-27.3-1.9s-16.5,0.1-19,0.9S159.3,452.4,159.3,453.3z"/>
		<path d="M164.4,456.1c2.2,0.3,4.3,0.8,6.4,1.6c2.2,1,0.7,2.8,3.5,4.1c1.9,0.9,3.6,2,5.3,3.3c0,0-1,6.2,0.4,6.6s5.3,2.1,6.1,1.3
			s0.9-6.5,2.1-6.5s9.9-0.1,11.1-0.4s1.9-3.1,4.1-3.1s5.6,0.7,7.2,0.7s1.9,0,2.2-0.4s1.3-5.9,1-7.1s-31.9-3.4-31.9-3.4l-15.8,2.5
			L164.4,456.1z"/>
		<path class="st6" d="M211.1,461.3c0,0,7.7,0.6,8,0.1s0.3-5.2-0.1-5.8s2.1,0.4,2.1,0.4s1.3,5.8,0.7,6.4c-1.3,0.9-2.9,1.3-4.4,1.2
			c-2.1-0.1-4.3-0.4-6.4-0.7L211.1,461.3z"/>
		<path class="st15" d="M223.8,394.1c-0.3,1.3-0.7,2.5-1.2,3.7c-0.9,2.1-9.9,10.8-12,12.4s-14.5,10.5-14.5,10.5l-15.6-0.4l-15.9,0.3
			c-1.6-0.1-2.9-1.2-3.3-2.8c-0.4-2.7,2.2-5.9,2.2-5.9s5.3,0.4,6.8,0.4s6.9-1.3,9.7-1.3s8.6-1.9,9-2.1s6.2-4.3,8.7-8.3
			s7.2-14.2,10.8-14.9s4.1-1.5,4.9-1.3"/>
		<path d="M175.3,420.3c0,0,32.2,0.3,32.9,0.6s0,1.8-1,2.2s-20.7,0.7-22.9,0.4S175.4,421.4,175.3,420.3z"/>
		<path class="st16" d="M218.8,372.2c0,0-1-8.8-1.3-8.9s-6.8-1.5-7.4-0.9s-6.1,10.7-6.1,10.7l0.8,5.3l3.2,3.2l8.1-5.9L218.8,372.2z"
			/>
		<path class="st17" d="M200.1,377.2c0,0,9.6-4.4,10.2-5.2l0.6-0.9c0,0-3.3,6.7-4.4,7.6s-5.8,0-6-0.1S199,377.4,200.1,377.2z"/>
		<path class="st16" d="M199.8,357c-0.2,1-0.4,2-0.7,3c-0.4,1.1-0.7,2.2-0.9,3.3c0.1,0.3,0.3,0.6,0.5,0.9c0,0-2.3,4.8-2.2,5.5
			s0.9,0.8,1.6,1.1c0.2,0.6,0.3,1.2,0.4,1.8c0.1,0.3,2.8-0.5,2.8-0.1s-2.7,1-2.6,1.2s0.9,0.6,0.9,1.1s-0.1,2.5,0.6,3.2
			s1.4,1.4,4.4,0.2s6.4-6.1,6.5-7v-0.8l1.1-5.8l-1.9-2.2l-2.4-8.9l-6.3,0.5L199.8,357z"/>
		<path class="st18" d="M206.2,354.4l-1.1,3.7l-0.7,1.4c0,0,3,3.5,3.1,4.4s0.4,4.4,0.4,4.4l2.1-0.4l1.2-3.7c0,0,4.6-1.2,5,2
			s1.3,4.4,2.4,5.3c0.8,0.6,1.8,0.6,2.6,0.1c0,0-0.5-3.4,0.2-5s2.4-2.8,2.3-5c0.1-1.8-0.6-3.6-1.9-5c-1.2-1.1-2.5-3.6-2.8-3.7
			s-11.3,0.5-11.3,0.5L206.2,354.4z"/>
		<path class="st18" d="M198.2,362.7c0.7-0.4,1.5-0.7,2.3-0.9c0.4,0.1,2.5,1.2,2.6,1.6c-2-0.7-4.1-0.2-4.4,0.3
			S198,363.7,198.2,362.7z"/>
		<path class="st17" d="M198.4,373.1c0,0,2.3-0.2,2.8-0.7c-1,0-1.9,0-2.9-0.1C198.3,372.6,198.3,372.8,198.4,373.1z"/>
		<g>
			<defs>
				<path id="SVGID_1_" d="M200.1,364.5c0-0.3,0.3-0.5,0.6-0.5c0.1,0,0.2,0,0.3,0.1c0.5,0.2,0.9,0.4,1.4,0.6
					c-0.6,0.3-1.2,0.6-1.9,0.9C200,365.4,200.1,364.5,200.1,364.5z"/>
			</defs>
			<clipPath id="SVGID_2_">
				<use xlink:href="#SVGID_1_"  style="overflow:visible;"/>
			</clipPath>
			<g class="st19">
				<path class="st3" d="M200.1,364.5c0-0.3,0.3-0.5,0.6-0.5c0.1,0,0.2,0,0.3,0.1c0.5,0.2,0.9,0.4,1.4,0.6c-0.6,0.3-1.2,0.6-1.9,0.9
					C200,365.4,200.1,364.5,200.1,364.5z"/>
				
					<ellipse transform="matrix(0.9989 -4.728079e-02 4.728079e-02 0.9989 -17.0362 9.895)" class="st20" cx="200.6" cy="365.1" rx="0.5" ry="0.9"/>
			</g>
		</g>
		<path class="st17" d="M202.5,364.8l-1.6-0.7c0,0-0.4-0.1-0.5-0.1c0-0.1,0-0.2,0-0.3C201.2,364,201.9,364.4,202.5,364.8z"/>
		<path class="st21" d="M211.2,364.3c0,0,1.8-1.9,2.2-1.7s2.8,1.2,2.4,2.6c-0.4,1.6-1.2,3.2-2.4,4.4c-1,0.9-2.1,1.4-2.4,0.8"/>
		<path class="st17" d="M211.6,366c0,0.6-0.2,1.2-0.6,1.6c0.2,0.8,0.6,0.9,1,0.3s1-1.3,0.7-1.6S211.6,365.5,211.6,366z"/>
		<path class="st22" d="M211.6,364.7c0,0,1.1-1.1,1.8-1s1.1,0.6,1.2,1"/>
		<path class="st18" d="M205.6,357c-0.2-0.4-4.3-1.6-5-1.2s-1.9-0.6-1.8-1.1s-1.1-3.8,0.5-4.7s2.4-0.8,2.6-0.8s0.4,0.2,1.8-0.4
			s2.3-0.8,5.1-0.7s4.2-0.4,6.2,0.5s4.4,4.3,4.9,5.6s-1.2,3.3-1.2,3.3L205.6,357z"/>
		<path class="st8" d="M209.7,383.6l11.2-7.1l-0.7-2.5c-1.2-0.3-2.4-0.3-3.5,0.1c-1.8,0.7-10.8,6-10.8,6l-2.2,6.6l2.1-2.8l1.5-1.1
			c0.1-0.3,0.5-0.4,0.8-0.3c0.1,0,0.1,0.1,0.2,0.1L209.7,383.6z"/>
		<rect x="148.8" y="429.5" width="10.1" height="85.5"/>
		<path class="st23" d="M168.2,367.5c0.2-0.8,0.2-1.6,0.2-2.4c0-9.1-10.1-16.5-22.6-16.5s-22.6,7.4-22.6,16.5s10.1,16.5,22.6,16.5
			c7.8,0,14.6-2.9,18.7-7.2C164.5,374.4,167.2,372.4,168.2,367.5z"/>
		<path class="st23" d="M106.8,395.5c0.2-0.8,0.2-1.6,0.2-2.4c0-9.1-10.1-16.5-22.6-16.5s-22.6,7.4-22.6,16.6s10.2,16.5,22.6,16.5
			c7.8,0,14.6-2.9,18.7-7.2C103.1,402.5,105.8,400.5,106.8,395.5z"/>
		<path class="st24" d="M99.4,404c5.1-0.3,10-2,14.2-4.9c-2.4,0.3-7.1-1.8-9.9-3.2"/>
		<path class="st25" d="M100,397.5c-1-0.1-1.9-0.3-2.7-0.7c0.1-0.2,0.1-0.4,0.2-0.6c0.1-0.3,0.1-0.6,0.1-0.9c0-3.5-3.8-6.3-8.6-6.3
			s-8.6,2.8-8.6,6.3s3.8,6.3,8.6,6.3c2.4,0.1,4.7-0.7,6.6-2.2C97.1,399.1,98.7,398.5,100,397.5z"/>
		<path class="st25" d="M70.2,392.5c1-0.1,1.9-0.3,2.8-0.8c-0.1-0.2-0.1-0.4-0.2-0.6c-0.1-0.3-0.1-0.6-0.1-0.9
			c0-3.5,3.9-6.4,8.8-6.4s8.8,2.9,8.8,6.4s-3.9,6.4-8.8,6.4c-2.4,0.1-4.8-0.8-6.7-2.3C73.1,394,71.6,393.4,70.2,392.5z"/>
		<path class="st24" d="M94.8,337c-12.5,0-22.6,7.4-22.6,16.5s10.1,16.5,22.6,16.5c2.8,0,5.7-0.4,8.4-1.2c2.6,2.9,5.7,5.3,9.3,6.9
			c-1.4-1.9-2.1-7-2.4-10.1c1.2-0.8,2.3-1.8,3.3-2.8c0,0,2.7-2,3.7-7c0.2-0.8,0.2-1.6,0.2-2.4C117.4,344.5,107.3,337,94.8,337z"/>
		<path class="st26" d="M143.8,380.7c-4,3.3-8.7,5.3-13.8,6c1.9-1.5,3.9-6.3,4.9-9.2"/>
		<path class="st27" d="M136.9,357.1h19.4c0.6,0,1.1,0.5,1.1,1.1v11.9c0,0.6-0.5,1.1-1.1,1.1h-19.4c-0.6,0-1.1-0.5-1.1-1.1v-11.9
			C135.8,357.7,136.3,357.1,136.9,357.1z"/>
		<polyline class="st27" points="157,371 146.6,362.2 136.3,371 		"/>
		<polyline class="st27" points="136.3,357.8 146.6,365.5 157,357.7 		"/>
		<path class="st28" d="M97.6,356.6c0.5-0.6,1-1.1,1.6-1.6c0.6-0.7,1.7-0.8,2.5-0.2c0,0,0.1,0,0.1,0.1c1,1,2,1.9,2.9,3
			c0.7,0.7,0.7,1.8,0,2.5c0,0-0.1,0.1-0.1,0.1c-0.5,0.6-1.1,1.2-1.8,1.6c-1,0.6-2.3,0.8-3.4,0.5c-2.3-0.5-4.4-1.6-6.2-3.1
			c-2.6-2-4.6-4.6-5.9-7.5c-0.8-1.4-1-3.1-0.6-4.6c0.2-0.6,0.5-1.1,0.9-1.6c0.4-0.4,0.7-0.8,1.2-1.2c0.6-0.7,1.7-0.8,2.5-0.2
			c0,0,0.1,0,0.1,0.1c1,1,2,2,3,3c0.7,0.7,0.6,1.8-0.1,2.5c-0.4,0.5-0.9,0.9-1.3,1.4c-0.1,0.1-0.2,0.4-0.1,0.5
			C94,353.6,95.7,355.3,97.6,356.6z M100.3,361.5c0.8,0.1,1.6-0.2,2.2-0.7l1.1-1.1c0.4-0.4,0.4-0.7,0-1.2c-0.9-0.9-1.7-1.8-2.6-2.6
			c-0.2-0.3-0.6-0.4-1-0.2c-0.1,0-0.1,0.1-0.2,0.2c-0.5,0.5-1,1-1.5,1.5c-0.4,0.4-1.1,0.5-1.5,0.1c-2.1-1.5-3.9-3.3-5.3-5.4
			c-0.4-0.5-0.3-1.1,0.1-1.5c0.5-0.5,1-1.1,1.6-1.6c0.3-0.2,0.3-0.6,0.1-0.9c0,0-0.1-0.1-0.1-0.1c-0.9-1-1.9-1.9-2.8-2.8
			c-0.2-0.3-0.6-0.3-0.9-0.1c-0.1,0-0.1,0.1-0.1,0.1c-0.3,0.4-0.7,0.7-1,1c-0.6,0.6-0.9,1.4-0.9,2.2c0,1.3,0.4,2.5,1,3.6
			c1.7,3.3,4.3,6.1,7.5,8C97.3,360.8,98.8,361.4,100.3,361.5z"/>
		<path class="st29" d="M200.9,317.3c16.6,2.1,33.4,4.2,48.8,10.8c9.1,3.8,17.9,9.5,22.8,18c3.6,6.3,4.9,13.6,5.5,20.8
			c1.9,24.2-0.1,47.7-0.6,72c-0.3,16.1-2,26.5-3.6,42.5s-7.4,32.5-20,42.4c-13.3,10.4-31.3,11.6-48.2,11.8
			c-46.6,0.6-93.2,3.6-139.2-3.6c-14.2-2.2-28.6-4.9-40.9-12.2c-4.9-2.9-9.5-6.6-12.5-11.4c-4.7-7.5-5.2-16.8-5.5-25.6
			c-1-25.6,1.9-51.1,1-76.7c-0.8-21-1.4-43,7.4-62.1c12.5-26.8,40.5-26.9,67.6-27.3C122.8,316.2,161.9,312.4,200.9,317.3z"/>
	</g>
</g>
<g id="image3Top">
	<g>
		<path class="st3" d="M200.9,317.3c16.6,2.1,33.4,4.2,48.8,10.8c9.1,3.8,17.9,9.5,22.8,18c3.6,6.3,4.9,13.6,5.5,20.8
			c1.9,24.2-0.1,47.7-0.6,72c-0.3,16.1-2,26.5-3.6,42.5s-7.4,32.5-20,42.4c-13.3,10.4-31.3,11.6-48.2,11.8
			c-46.6,0.6-93.2,3.6-139.2-3.6c-14.2-2.2-28.6-4.9-40.9-12.2c-4.9-2.9-9.5-6.6-12.5-11.4c-4.7-7.5-5.2-16.8-5.5-25.6
			c-1-25.6,1.9-51.1,1-76.7c-0.8-21-1.4-43,7.4-62.1c12.5-26.8,40.5-26.9,67.6-27.3C122.8,316.2,161.9,312.4,200.9,317.3z"/>
		<path class="st28" d="M147.3,451.9c-1.3,0-2.5-0.2-3.7-0.7c-1.9-0.7-3.2-2.4-3.6-4.4c-0.3-1.1-0.4-2.1-0.5-3.2
			c-0.1-1-0.1-2.3-0.1-3.9V439c0-2.6,0.5-5.2,1.6-7.5c1-2.1,2.4-4.1,4.1-5.7c1.7-1.6,3.6-3.1,5.5-4.4l6.1-4.1c2-1.3,3.8-2.8,5.5-4.4
			c1.7-1.7,3.1-3.6,4.1-5.8c1.1-2.4,1.6-5.1,1.6-7.8c0.2-5.2-1.5-10.2-4.7-14.3c-3.2-3.8-7.5-5.7-13.1-5.7c-4.3,0.1-8.6,1.1-12.5,3
			c-0.2,3.8-0.6,7.7-1.2,11.5c-1.1,4.5-3.3,7.1-6.8,8c-1,0.2-2.1,0.3-3.1,0.3c-2.5,0.1-5-1-6.6-3c-1.7-2-2.6-4.5-2.6-7.1
			c0-3.6,0.9-7.1,2.8-10.1c1.8-3,4.4-5.5,7.5-7.3c3.2-1.9,6.7-3.3,10.3-4.2c3.8-1,7.7-1.5,11.6-1.5c6.1-0.1,12.1,1.2,17.5,3.9
			c5.2,2.5,9.5,6.4,12.5,11.3c3.2,5.1,4.8,11.1,4.7,17.1c0,3-0.5,5.9-1.7,8.6c-1,2.5-2.5,4.7-4.4,6.6c-1.9,1.8-3.9,3.5-6,5.1
			c-2.2,1.6-4.3,3.1-6.5,4.5s-4.2,2.8-6,4.3c-1.8,1.4-3.3,3.1-4.4,5c-1.1,1.9-1.7,4-1.7,6.1C153.6,448.4,151.5,451.9,147.3,451.9z
			 M157.9,472.9c0.1,3.3-1.3,6.5-3.8,8.7c-2.5,2.3-5.8,3.5-9.2,3.4c-2.8,0.1-5.4-1.2-7-3.5c-1.8-2.5-2.7-5.4-2.6-8.5
			c-0.1-3.2,1.1-6.3,3.3-8.6c2.1-2.3,5.1-3.6,8.2-3.6c3.1,0,6,1.3,7.9,3.6C156.9,466.8,158,469.9,157.9,472.9L157.9,472.9z"/>
	</g>
</g>
<g id="image2Bot">
	<path class="st3" d="M544.4,179.9c16.6,2.1,33.4,4.2,48.8,10.8c9.1,3.8,17.8,9.5,22.8,18.1c3.6,6.3,4.9,13.6,5.5,20.8
		c1.9,24.2-0.1,47.7-0.6,72c-0.3,16.1-2,26.5-3.6,42.5s-7.4,32.5-20,42.4c-13.3,10.4-31.3,11.6-48.2,11.8
		c-46.6,0.6-93.2,3.6-139.2-3.6c-14.1-2.2-28.6-4.9-40.9-12.2c-4.9-2.9-9.5-6.6-12.5-11.4c-4.7-7.5-5.1-16.8-5.5-25.6
		c-1-25.6,1.9-51.1,1-76.7c-0.8-21-1.4-43,7.4-62.1c12.4-26.7,40.5-26.9,67.6-27.2C466.3,178.8,505.4,175,544.4,179.9z"/>
	<path class="st8" d="M566.7,245.2c0,0-0.1-6.5,1.4-10s5.3-6,6-6.4s5,2.8,5,2.8L566.7,245.2z"/>
	<path class="st16" d="M591.2,233.2c0,0,3.4-7.6,3.2-7.8s-4.8-4.5-5.6-4.3s-10,5.8-10,5.8l-1.9,4.7l1.1,4.1l9.5-0.9L591.2,233.2z"/>
	<path class="st11" d="M554.6,284.2c-0.1,0.4,2.7,1.5,2.8,1.6c0.9,0.7,0.2,0,2.3,0.9c2.9,1.2,5.9,2.1,9,2.8c1.4,0.1,2.9,0,4.3-0.4
		c0.5-0.2,1.9,0.7,2.3,0.8c0.9,0.4,1.7,0.8,2.7,1c1,0.3,2.3,0.8,2.7-0.1s2.8-11,2.9-12s6.5-12.8,6.5-12.8c11-14.1,8.6-21.1,8.6-21.1
		c-1.5-1.3-3.1-2.5-4.8-3.4c-0.7-0.4-3.8-2.5-3.8-2.5l-12.7-4.3c0.3-0.4-5.2-0.1-7,2.9c-0.7,1.2-6.8,9.6-6.9,10.9L554.6,284.2z"/>
	<path class="st16" d="M577.2,232c0,0,1.3,5.9,1.4,6.4s0.3,2.5,0.3,2.5l11.3-1.6l2.2-7l-1.5-0.9l-4.9,0.6l-1.6,1.4l-4.7,1.4
		L577.2,232z"/>
	<path class="st17" d="M573.6,228.3c0,0,9.8,1,10.8,0.6l1-0.4c0,0-5.9,3.9-7.2,4.1s-4.7-2.8-4.8-2.9S572.6,227.9,573.6,228.3z"/>
	<path class="st16" d="M583,211.7c-0.6,0.7-1.3,1.4-2,2.1c-0.9,0.7-1.6,1.4-2.3,2.3c0,0.3,0,0.7,0,1c0,0-4.1,2.9-4.5,3.4
		s0.4,1.1,0.7,1.7c-0.1,0.6-0.3,1.1-0.6,1.7c-0.1,0.3,2.5,0.9,2.3,1.2s-2.6-0.5-2.7-0.3s0.5,1,0.2,1.3s-1.3,2-1.1,2.9
		s0.4,1.8,3.5,2.3s8.2-1.9,8.6-2.6l0.4-0.6l3.7-4.2l-0.5-2.7l2.3-8.4l-5.4-2.6L583,211.7z"/>
	<path class="st18" d="M589.5,212.7l-2.7,2.5l-1.3,0.8c0,0,0.8,4.2,0.4,5.1s-1.7,3.8-1.7,3.8l1.9,0.7l2.8-2.4c0,0,4.3,1.2,3.1,4
		s-1.1,4.1-0.6,5.5c0.3,0.8,1.1,1.3,2,1.3c0,0,1.2-3,2.5-4s3.3-1.2,4.2-3c0.9-1.5,1.2-3.2,0.9-4.9c-0.4-1.4-0.3-4.1-0.5-4.4
		s-9.4-5-9.4-5L589.5,212.7z"/>
	<path class="st18" d="M579,215.6c0.8,0,1.6,0.1,2.3,0.4c0.6,0.7,1.1,1.6,1.3,2.5c-1.3-1.5-3.3-2.1-3.7-1.9S578.3,216.3,579,215.6z"
		/>
	<path class="st17" d="M574.2,224.1c0,0,2,1,2.6,0.8c-0.8-0.4-1.6-0.9-2.3-1.5C574.5,223.4,574.2,223.8,574.2,224.1z"/>
	<g>
		<defs>
			<path id="SVGID_3_" d="M579.7,218c0.2-0.2,0.5-0.3,0.7-0.1c0.1,0.1,0.1,0.1,0.2,0.2c0.3,0.4,0.5,0.8,0.8,1.2
				c-0.7,0-1.3-0.1-2-0.2C579.2,218.6,579.7,218,579.7,218z"/>
		</defs>
		<clipPath id="SVGID_4_">
			<use xlink:href="#SVGID_3_"  style="overflow:visible;"/>
		</clipPath>
		<g class="st30">
			<path class="st3" d="M579.7,218c0.2-0.2,0.5-0.3,0.7-0.1c0.1,0.1,0.1,0.1,0.2,0.2c0.3,0.4,0.5,0.8,0.8,1.2c-0.7,0-1.3-0.1-2-0.2
				C579.2,218.6,579.7,218,579.7,218z"/>
			
				<ellipse transform="matrix(0.4659 -0.8848 0.8848 0.4659 116.1908 629.8497)" class="st20" cx="579.8" cy="218.7" rx="0.9" ry="0.5"/>
		</g>
	</g>
	<path class="st17" d="M581.5,219.3l-1-1.3c0,0-0.3-0.3-0.4-0.3c0.1-0.1,0.1-0.2,0.1-0.2C580.7,218.1,581.2,218.7,581.5,219.3z"/>
	<path class="st31" d="M588.8,223.1c0,0,2.3-0.7,2.6-0.4s1.7,2.3,0.7,3.3c-1.1,1.1-2.5,2-4,2.5c-1.2,0.2-2.4,0.1-2.4-0.5"/>
	<path class="st17" d="M588.3,224.7c-0.3,0.5-0.8,0.8-1.3,1c-0.2,0.7,0.1,1,0.7,0.7s1.4-0.6,1.4-1S588.6,224.2,588.3,224.7z"/>
	<path class="st32" d="M589,223.6c0,0,1.4-0.4,1.9,0.1c0.4,0.3,0.6,0.9,0.5,1.4"/>
	<path class="st18" d="M587.8,214.5c0.1-0.4-2.7-3.4-3.5-3.3s-1.3-1.4-1-1.8s0.9-3.6,2.7-3.5s2.3,0.5,2.5,0.6s0.3,0.4,1.6,0.5
		s2.2,0.4,4.5,1.8s3.6,1.7,4.8,3.3s1.5,5.6,1.3,6.9s-2.6,2.1-2.6,2.1L587.8,214.5z"/>
	<path class="st33" d="M578.3,236l-3.3-1.4c-1.1,1.2-2.1,2.4-3,3.8c-0.2,0.6,2.7,1.4,3.5,1S578.3,236,578.3,236z"/>
	<path class="st8" d="M592.3,235.4l-14.8,0.1c0,0-0.9,4.7-1.5,5.6s16.3-1,16.3-1S593.2,236.7,592.3,235.4z"/>
	<path class="st8" d="M578,235.5l-0.7-2.8c-1-0.2-2,0.1-2.7,0.9c-2.2,2.4-3.3,3.5-3.3,3.5S577,235.3,578,235.5z"/>
	<path class="st11" d="M577.3,242.9c0,0,11.9-5.6,12.6-6.4c1.7-2,3.3-4.1,4.8-6.3c0.5-0.8,0.9-1.6,1.3-2.4c0.5-1.2,4.8-9.1,7.3-9.8
		s6,0.1,6.8,2.2s2,5.3,1.8,6.9s-9.9,17.3-11,18.9s-4.2,8.9-6.2,10.4c-2,1.5-3.9,2.9-6.9,2s-6.8-2.4-6.2-6.4S577.3,242.9,577.3,242.9
		z"/>
	<path class="st8" d="M582.5,268.1c0,0,8.4-16,8.7-16.9c1.6-3.6,3.8-6.8,6.5-9.6c3.2-3,8-11.4,9-13.4s1.1-3.9,1.5-4.7s2.7,3.9,2.6,5
		c-0.3,1.9-1,3.7-2,5.3c-1.2,2-7.3,12.8-7.7,13.4s-1.8,3.2-2.4,4.1s-6.1,9.4-6.1,9.4L582.5,268.1z"/>
	<path class="st33" d="M574.5,239c0,0-7.9,25.1-7.5,33.6c-0.2,3.8-0.2,6.9-0.2,6.9l-3.2,4.7l-2.9-6.2c0,0,9-37,12.8-39.8
		C574.5,239.3,574.5,239,574.5,239z"/>
	<polygon class="st34" points="485.8,270.7 475.7,264.8 472.4,270.2 472.4,273.1 483.1,276.6 	"/>
	<path class="st35" d="M514.5,290.1c-1.7-1.6-4.1-2.3-6.5-2c-4.3,0.4-15.8-3.3-18.8-4.2s-13.6-3.5-13.6-3.5s2.8-9.3,3.7-10.3
		s2.9-3.8,2.9-3.8s12.6,5.7,13.6,5.7s11.4,2.8,11.4,2.8s8.6-0.2,10.8,1.3s3,8.9,2.6,10.2S514.5,290.1,514.5,290.1z"/>
	<path d="M476.8,266.3c0.4-1,0.3-2.1-0.3-3c-0.9-1.6-3-7.7-2.8-9.6s2.3-4.6,2-5.4s-2-1.4-2-1.4c-1.1,1.4-2.2,2.9-3.1,4.5
		c-0.7,1.6-2.9,10.3-3.1,11.2c0,1.1,0.3,2.2,0.7,3.2l-1.4,0.5l-1.8,7.6l7.7,1c0.7,0.1,1.5-0.3,1.8-1c0.5-1.2-1.5-4-0.6-5.3
		S476.8,267.3,476.8,266.3z"/>
	<path class="st34" d="M475.4,277.1l-8.8-0.7c0,0-2.9-3.7-1.8-5.7s4.7-4.2,4.7-4.2s8.9,5.7,10.4,6.3
		C478.1,273.9,476.5,275.4,475.4,277.1z"/>
	<path class="st13" d="M507.4,289.2c-2.1-0.7-4.4-1.1-6.7-1.1c-3.7,0.1-5.1-0.7-7.7-1.6S483,283,482,283s-7.9-1.6-7.9-1.6
		s-0.5-7.1,0.3-8.2s2.3-2.7,2.3-2.7c2.6,1.1,5.3,1.9,8.1,2.4c3,0.3,7.9,0.8,11.3,1.5c5.5,1.2,18.1,2.8,20.6,6.8s0.8,6.2,0.8,6.2
		L507.4,289.2z"/>
	<path d="M467.6,277.2c0,0-1.2-4.5,0-6.3s3.8-3,4.1-3.3s-1.1-3.1-1.6-4s-4.2-7-3.7-8.5s1.8-4.6,1-5.7c-0.7-0.8-1.7-1.4-2.7-1.7
		c0,0-4,6.7-4.6,10c-0.4,3.6-0.6,7.2-0.5,10.7l-1.4,2.9l-0.1,5C458,276.3,465.2,278.2,467.6,277.2z"/>
	<path class="st35" d="M552.7,303.8c0,0-18.8-8.8-21.3-10.2c-2-1.1-4.2-2.1-6.3-2.9c-2.3-1-2.4-2.7-4.3-4.1s-5.6-9.4-1.2-9.9
		s16.4,2.1,16.4,2.1s9.6,2.1,12.5,3.3s8,2.6,9.5,3.1s12.6,7.6,13.1,8.8s-11,11.9-12.3,11.9S552.7,303.8,552.7,303.8z"/>
	<path class="st8" d="M569.7,288.2c1.6-0.7,7.6-9.2,9.1-11.7s3-8.5,4.6-10.6s9.7-8,9.7-8v0.1c-1.3,2.1-1.8,4.4-3.8,7
		c0,0-5.7,13-5.8,14s-2.5,11-2.9,12s-1.7,0.4-2.7,0.1c-0.9-0.2-1.8-0.6-2.7-1c-0.4-0.2-1.8-1-2.3-0.8c-1.4,0.3-2.8,0.5-4.3,0.4
		c-0.3,0-0.7-0.1-1-0.2C568.3,288.9,569,288.5,569.7,288.2z"/>
	<rect x="363.3" y="277.1" class="st4" width="108.6" height="4.6"/>
	<rect x="382.8" y="281.8" width="78.9" height="7.9"/>
	<rect x="382.9" y="285.1" width="8.5" height="85.5"/>
	<rect x="405.2" y="285.3" width="6.1" height="59.9"/>
	<path class="st5" d="M452.2,276.8c0,0-28.3-0.3-29.9-0.5c-1.3-0.2-1.3-2.5-0.7-2.6s30,0.4,30,0.4L452.2,276.8z"/>
	<ellipse class="st5" cx="425.9" cy="276.6" rx="1.2" ry="0.5"/>
	<ellipse class="st5" cx="449.9" cy="276.6" rx="1.2" ry="0.5"/>
	<path class="st6" d="M409,245.7c1.7,0.8,3.1,2.1,4,3.8c1.6,2.8,11.6,24.2,11.6,24.2h-1.2c0,0-10.7-23.7-11.7-24.7
		S408.9,245.5,409,245.7z"/>
	<path class="st5" d="M409.2,245.6c0,0-0.4,1.6,1.3,5.2s11.7,23,11.7,23l1.6-0.1l-11.9-24.8L409.2,245.6z"/>
	<rect x="447.7" y="285.1" width="10.1" height="85.5"/>
	<polygon class="st7" points="553.2,342 528.1,344.5 527.7,348 550.9,347.5 	"/>
	<circle cx="529.7" cy="347.1" r="2.3"/>
	<circle cx="570.6" cy="349.3" r="2.3"/>
	<polygon class="st7" points="559.3,341.7 595.7,349.3 595.8,353.7 593.3,353.7 592.9,352.5 559.5,348.1 	"/>
	<circle cx="596.4" cy="355.9" r="3.1"/>
	<path d="M552.2,322.7c0,0,0,20.9,0.3,22.6s0.6,4.7,0.6,4.7l1.8,1v5.4h4V351l1-1.8l1.3-26.9L552.2,322.7z"/>
	<path d="M553.7,343l-32.2,9.4c0,0-1.2,2.6-0.6,3.4s1.9,1,4.1,0.4s6.2-2.2,8.1-2.5s21.7-4.5,21.7-4.5L553.7,343z"/>
	<path d="M558.5,342.1c0,0,10,13.1,10.4,14s0,4,0,4l-2.2,0.6l-0.9-1.9l-8.1-8.5L558.5,342.1z"/>
	<circle cx="569.1" cy="362.7" r="3.7"/>
	<circle cx="525.5" cy="359.6" r="3.1"/>
	<path class="st6" d="M574.2,318.5c0,0,7.6,0.6,7.9,0.1s0.3-5.1-0.2-5.7s2.1,0.4,2.1,0.4s1.3,5.7,0.7,6.3c-1.3,0.9-2.8,1.3-4.4,1.2
		c-2.1-0.1-4.2-0.4-6.3-0.7L574.2,318.5z"/>
	<path class="st13" d="M572.3,316.2c0,0-17.8-2.5-25.6-10.2c-6.4-3-18.2-5.6-24.1-9.1s-17.9-8.1-19-10.5s-2.2-6.9,0.5-7.6
		s-0.2-3,20.3,1.7c20.4,4.7,26.2,5,28.9,5.3s18-0.1,20.7,0.9c11.2,4.1,4.8,7.3,4.7,11.9S572.3,316.2,572.3,316.2z"/>
	<path class="st5" d="M562.2,279.5l0.1,0.6c0.9,4.3,6.3,32,5.9,33.4s0.2,4.3-3.1,4s-5.9-1-5.6-2.5c0.3-1.6,0.4-3.2,0.4-4.9
		c0-1.2-4.4-21.7-4.5-23.1s-1.2-6.2-1.2-6.2l8-1.1"/>
	<path class="st14" d="M522.7,310.5c0,0,4,4.9,6.6,3.7c3-1.3,6.2-2,9.4-2.1c4.1-0.1,25.1,0.6,28.9,0.9s8.8,1.5,9.5-0.1
		s0.6-5.6-0.6-5.9s-26-2.1-27.2-1.9s-16.5,0.1-19,0.9S522.7,309.6,522.7,310.5z"/>
	<path d="M527.7,313.3c2.2,0.3,4.3,0.8,6.3,1.6c2.2,1,0.7,2.8,3.5,4.1c1.9,0.9,3.6,2,5.3,3.2c0,0-1,6.2,0.4,6.6s5.3,2.1,6,1.3
		s0.9-6.5,2.1-6.5s9.8-0.1,11-0.4s1.9-3.1,4.1-3.1s5.6,0.7,7.2,0.7s1.9,0,2.2-0.4s1.3-5.9,1-7s-31.7-3.4-31.7-3.4l-15.7,2.5
		L527.7,313.3z"/>
	<path d="M538.5,277.6c0,0,32,0.3,32.8,0.6s0,1.8-1,2.2s-20.6,0.7-22.8,0.4S538.7,278.8,538.5,277.6z"/>
	<path d="M601.3,247.1c0,0-12.4,18-15,25.3s-10.8,32.5-10.5,35.2s4.5,6.3,5.3,6.5c0.8,0.2,1.5,0.3,2.3,0.4c0,0-3.2-15,0.4-25.2
		s12.2-31.3,14.3-33.6c1.5-1.6,2.6-3.5,3.2-5.6C601.6,249.2,601.6,248.1,601.3,247.1z"/>
	<path class="st29" d="M544.4,179.6c16.6,2.1,33.4,4.2,48.8,10.8c9.1,3.8,17.8,9.5,22.8,18.1c3.6,6.3,4.9,13.6,5.5,20.8
		c1.9,24.2-0.1,47.7-0.6,72c-0.3,16.1-2,26.5-3.6,42.5s-7.4,32.5-20,42.4c-13.3,10.4-31.3,11.6-48.2,11.8
		c-46.6,0.6-93.2,3.6-139.2-3.6c-14.1-2.2-28.5-4.9-40.9-12.2c-4.9-2.9-9.5-6.6-12.5-11.4c-4.7-7.5-5.1-16.8-5.5-25.6
		c-1-25.6,1.9-51.1,1-76.7c-0.8-21-1.4-43,7.4-62.1c12.4-26.7,40.5-26.9,67.6-27.2C466.3,178.5,505.4,174.7,544.4,179.6z"/>
</g>
<g id="image2Top">
	<path class="st3" d="M544.4,179.6c16.6,2.1,33.4,4.2,48.8,10.8c9.1,3.8,17.8,9.5,22.8,18.1c3.6,6.3,4.9,13.6,5.5,20.8
		c1.9,24.2-0.1,47.7-0.6,72c-0.3,16.1-2,26.5-3.6,42.5s-7.4,32.5-20,42.4c-13.3,10.4-31.3,11.6-48.2,11.8
		c-46.6,0.6-93.2,3.6-139.2-3.6c-14.1-2.2-28.5-4.9-40.9-12.2c-4.9-2.9-9.5-6.6-12.5-11.4c-4.7-7.5-5.1-16.8-5.5-25.6
		c-1-25.6,1.9-51.1,1-76.7c-0.8-21-1.4-43,7.4-62.1c12.4-26.7,40.5-26.9,67.6-27.2C466.3,178.5,505.4,174.7,544.4,179.6z"/>
	<path class="st28" d="M490.9,314.3c-1.3,0-2.5-0.2-3.7-0.7c-1.9-0.7-3.2-2.4-3.6-4.4c-0.3-1.1-0.4-2.1-0.5-3.2
		c-0.1-1-0.1-2.3-0.1-3.9v-0.9c0-2.6,0.5-5.2,1.6-7.5c1-2.1,2.4-4.1,4.1-5.7c1.7-1.6,3.6-3.1,5.5-4.4l6.1-4.1c2-1.3,3.8-2.8,5.5-4.4
		c1.7-1.7,3.1-3.6,4.1-5.8c1.1-2.4,1.6-5.1,1.6-7.8c0.2-5.2-1.5-10.2-4.8-14.2c-3.2-3.8-7.5-5.7-13.1-5.7c-4.3,0.1-8.6,1.1-12.5,3
		c-0.2,3.8-0.6,7.7-1.2,11.5c-1.1,4.5-3.3,7.1-6.8,8c-1,0.2-2.1,0.3-3.1,0.3c-2.5,0.1-5-1-6.6-3c-1.7-2-2.6-4.5-2.6-7.1
		c0-3.6,0.9-7.1,2.8-10.1c1.8-3,4.4-5.5,7.5-7.3c3.2-1.9,6.7-3.3,10.3-4.2c3.8-1,7.7-1.5,11.6-1.4c6.1-0.1,12.1,1.2,17.5,3.9
		c5.2,2.5,9.5,6.4,12.5,11.3c3.2,5.1,4.8,11.1,4.7,17.1c0,3-0.5,5.9-1.7,8.6c-1,2.5-2.5,4.7-4.4,6.6c-1.9,1.8-3.9,3.5-6,5.1
		c-2.2,1.6-4.3,3.1-6.5,4.5c-2.2,1.4-4.2,2.8-6,4.3c-1.8,1.4-3.3,3.1-4.4,5c-1.1,1.9-1.7,4-1.7,6.1
		C497.1,310.7,495,314.3,490.9,314.3z M501.5,335.3c0.1,3.3-1.3,6.5-3.8,8.7c-2.5,2.3-5.8,3.5-9.2,3.4c-2.8,0.1-5.4-1.2-7-3.5
		c-1.8-2.5-2.7-5.4-2.6-8.5c-0.1-3.2,1.1-6.3,3.3-8.6c2.1-2.3,5.1-3.6,8.2-3.6c3.1,0,6,1.3,7.9,3.6
		C500.4,329.1,501.5,332.1,501.5,335.3L501.5,335.3z"/>
</g>
<g id="image1Bot">
	<path class="st3" d="M196.7,58.9c16.6,2.1,33.4,4.3,48.8,10.8c9.1,3.8,17.8,9.5,22.8,18.1c3.6,6.3,4.9,13.6,5.5,20.8
		c1.9,24.2-0.1,47.7-0.6,72c-0.3,16.1-2,26.5-3.6,42.5s-7.4,32.5-20,42.4c-13.3,10.4-31.3,11.6-48.2,11.8
		c-46.6,0.6-93.2,3.6-139.2-3.6c-14.2-2.2-28.6-4.9-40.9-12.2c-4.9-2.9-9.5-6.6-12.5-11.4c-4.7-7.5-5.2-16.8-5.5-25.6
		c-1-25.6,1.9-51.1,1-76.7c-0.8-21-1.4-43,7.4-62.1c12.4-26.8,40.5-26.9,67.6-27.2C118.6,57.8,157.7,54,196.7,58.9z"/>
	<line class="st36" x1="178.4" y1="243" x2="114" y2="208.6"/>
	<line class="st36" x1="160.1" y1="188.9" x2="191.1" y2="235.1"/>
	<line class="st36" x1="165.1" y1="248.1" x2="43.8" y2="216"/>
	<polygon class="st37" points="181.9,243.9 169.3,244.1 177.6,238.3 	"/>
	<polygon class="st37" points="173.3,251.2 158.6,250.7 165.5,245.7 	"/>
	<polygon class="st37" points="185.3,234.4 194.6,232.2 192.8,238.5 	"/>
	<path class="st38" d="M237.8,164.5c0,0-2.1-0.8-3-1.3s-1.4-3.1-2.6-4.4c-1-0.2-0.8,0.9-0.7,2c0.2,1.2,0.5,2.4,1,3.5
		c0.5,1.6,0.7,3.2,0.9,4.8c0.1,0.9-0.8,0.3,0.1,0.9s6.1,1.3,6.5-0.5C240.2,167.5,239.3,165.6,237.8,164.5z"/>
	<path class="st11" d="M240.3,141.7c0,0,0.3,3.7,0.3,5.5c0,2.2-0.2,4.3-0.5,6.5c-0.2,1.1-1.1,4.1-1.4,4.6s-2.7,5.5-2.7,5.5
		s3.4,6,4,6s4.8-7.6,5.1-8.3s1.1-2.6,1.4-3.6s3.9-9.1,4-10.8s1.5-4.1-1.3-6.1s-4.3-2-4.3-2L240.3,141.7z"/>
	<path d="M226.3,252.6l0.4,9.6c0,0,7.3,1.3,8.2,0.6s1.5-1.9,2.5-1.9s2.3-0.2,2.5-1.7c0.2-1.2-0.4-2.5-1.5-3.1
		c-1-0.6-1.7,0.6-1.9-1.7s-3.4-2.5-3.4-2.5L226.3,252.6z"/>
	<path d="M219.3,256.1l0.2,8.2c0,0-8.4,0-9.4-0.7l-1.5-1c-1.7-0.1-3.3-0.4-5-0.7c-1.2-0.3-3.1-0.9-2.7-2.6s0.7-3.3,1.9-3.3
		s5,0,5.1-0.7c0.4-1,0.8-2,1.2-2.9L219.3,256.1z"/>
	<path class="st13" d="M219.5,257.9c0,0-9.8,2.2-11.8-2.5c-0.6-1.3,1.6-7.9,1.6-10.9s0.7-18.5,0-22s-1.1-9.8-1.6-12.5
		s-2.2-20.7-2.2-23.7s-0.9-21-0.4-24.2s-1.1-4.6,2.5-5.1s12.7,1,12.7,1l11.2,5.4l-10.3,45.7c0,0-0.4,11.2-0.4,13.1s0.4,13.6,0.4,15
		S219.8,256.3,219.5,257.9z"/>
	<path class="st13" d="M230.9,158.4c0,0,4.5,5.8,3,16.1s-1.6,8.8-1.6,8.8l-6.1-13.4L230.9,158.4z"/>
	<path class="st13" d="M234.7,255.7c0,0-0.7,0.5-3.6,0s-4.7,0-4.7-2.3s0.2-15-0.4-18s-2.2-14.7-3.1-17.2s-4.7-12.5-5.4-17
		s-4.9-26-5.2-26.7s-3.6-12-3.8-14s8.5-2.3,9.6-2.3s12.3,4.5,12.3,4.5s2.2,13.5,2.2,18.5s-0.2,14-0.2,15.2s0.4,6.5,0.7,8
		s1.8,9,2.7,13s1.4,14.2,1.4,19S238.3,257.9,234.7,255.7z"/>
	<path class="st11" d="M204.9,160.1c0.3,1.1,0.9,1.2,1.8,1.9s3.8,1.1,5.9,1.4c3,0.4,6.1,0.6,9.1,0.5c1.4-0.3,2.7-0.7,3.9-1.4
		c0.4-0.3,1.9,0.2,2.3,0.3c0.9,0.2,1.8,0.3,2.7,0.3c1.1,0.1,2.3,0.2,2.5-0.8s-0.1-11.4-0.3-12.3s3-15.8,3-15.8
		c6.7-16.4,3.8-19.8,3.8-19.8c-2.1-1.2-4.2-2.3-6.4-3.2c-0.8-0.2-4.2-1.5-4.2-1.5l-16.6,0.6c0.2-0.4-4.9,1.7-5.8,5.1
		c-0.3,1.3-2.2,12-2,13.2L204.9,160.1z"/>
	<path class="st11" d="M239.4,114.2c0,0,8.8,19.9,11.3,27.9c0.6,6.8-3.6,12.1-8.3,4.4s-15.5-24.9-15.5-24.9S232.2,111.9,239.4,114.2
		z"/>
	<path class="st39" d="M206.5,115.3c0,0,0.3-4.7,0.8-5.3s2.1-2.8,2.6-2.8c0.7,0.2,1.3,0.5,1.9,0.9c0,0,1.7-0.4,1.9,0.4
		c0.1,1,0,1.9-0.1,2.8l-5.7,3.1L206.5,115.3z"/>
	<path class="st39" d="M209.7,91.2c-0.2,1-0.4,2-0.5,3c0.2,0.4,0.3,0.9,0.3,1.3c-0.1,0.6-0.1,1.5-0.2,2s0.3,8.2,0.8,8.9
		s2.3,1.2,3,1.2s0.8,1.7,0.8,1.7l13.9-1.8c0,0-0.5-4.8-0.5-5.6s1.4-3,1.4-3l-11.5-7.2L209.7,91.2z"/>
	<path class="st18" d="M231.1,95.3c-0.7,1.3-1.5,2.6-2.3,3.8c-0.5,1.3-0.8,2.6-1.1,4l-0.3-0.3l-0.6,0.7l-0.4-0.4l-0.6,1.1l-0.4-0.6
		c0,0-0.5,0.7-0.6,0.4s-0.5-1.4-0.5-1.4l-1.2,1.3c0,0-0.1-1-0.5-0.8c-0.5,0.3-1,0.7-1.4,1.1l-0.1-0.5l-0.4,0.7l-0.2-0.5l-0.4,0.7
		l-0.3-0.7l-0.5,1c-0.5-0.3-0.8-0.7-1.1-1.2c-0.7-1-2.8-7.6-3-8.1s-1.9-1.1-2.4-1.2s-1.3,3.1-1.3,3.1l-0.8,0.1
		c0-0.7,0.1-1.4,0.2-2.1c0.1-1-0.2-2-0.7-2.9l-0.8-1.5c-0.2-0.4-0.2-0.9-0.2-1.4l0.4-1.6c0,0-0.2-2.6,0.6-3.3s2.6-3.8,4.1-4.1
		c1.1-0.2,2.2-0.3,3.3-0.3l-0.3,0.3c0,0,3.1-1.7,3.6-1.5s5,0.6,5,0.6l-0.1,0.4l3.4,1.2c0,0,2.4,1.8,2.4,2.3c0.2,1,0.6,1.9,0.9,2.8
		l-0.1,1.9l-0.3,0.8C232.3,91.3,232,93.4,231.1,95.3z"/>
	<path class="st18" d="M209.2,92.8c-0.2,0.3-0.3,0.5-0.4,0.8c0.1,0.2,0.2,0.5,0.4,0.7c0.1,0.1,0.2,0.2,0.2,0.3v-1.2
		C209.5,93.2,209.4,92.9,209.2,92.8z"/>
	<path class="st40" d="M212.7,95.6c0,0-0.4-1.1,0-1.5c0.3-0.4,0.7-0.5,1.2-0.5c0.6,0.4,1,1,1.1,1.7c-0.1,0.8,0,2.8-0.4,3.3
		c-0.3,0.5-0.8,1-1.3,1.3c-0.7,0.4-0.5,0.6-0.8,0.6s-0.6-0.5-0.5-0.7s0.7-0.7,0.7-1"/>
	<path class="st41" d="M209.8,112.3c0.5-0.7,0.8-1.4,1.1-2.1c0.2-0.7,0.2-1.3,0.1-2c-0.4,0.2-0.7,0.4-1,0.7c-0.4,0.4-0.4,2-0.4,2
		L209.8,112.3z"/>
	<path class="st41" d="M214.4,99.8l0.9-1c-0.5,1.9-0.9,3.9-1.2,5.9c-0.1,1-0.3,2-0.6,3c-0.1-0.1-0.2-0.2-0.4-0.2
		c-0.7,0-2.5-0.5-3-1.2l0,0c1-0.1,1.9-0.4,2.8-0.8C213.9,104.9,214.4,99.8,214.4,99.8z"/>
	<path class="st41" d="M213.4,95.8c-0.2-0.3-0.3-0.6-0.4-0.9c0-0.1,0-0.6,0.3-0.4S213.4,95.8,213.4,95.8z"/>
	<path class="st41" d="M213.3,96.9c0,0-0.4,1.2-0.3,1.5s0.4,0,0.4-0.2S213.5,97.1,213.3,96.9z"/>
	<path class="st42" d="M229.6,110.2l-1.1-3.9c0,0-5.5-2.3-12.8,0.4c-1,0.4-3.3,5.1-3.7,5.4C216.1,109.6,229.6,109.8,229.6,110.2z"/>
	<path class="st11" d="M207,115c0,0-3.8,2.8-4.1,5.2s-2.5,7.1-2.5,9c0.2,1.7-0.2,3.5-0.9,5c-1.1,2.6-1.9,3.6-1.6,5.7
		s-0.1,5.2,2.4,6.2s7.5,1.4,7.7,0s1.3-7.6,1.1-8.9S210.3,120.2,207,115z"/>
	<path class="st43" d="M207,115c0,0,3.4,4.7,3.2,8.7s-1.1,9.3-1.2,11.7s-0.7,7.2-0.7,7.2"/>
	<path class="st44" d="M221,213.2c0,0,1.6-26.4,1.9-27.1s2.2-5.1,3-7.6c-1.3,18.1-2.4,34.9-2.1,38.1s1.3,12.4,1.3,12.4
		s-1.2-7.7-2.3-10.7S221,213.2,221,213.2z"/>
	<path class="st42" d="M237.3,122.3l-1.8,13c0,0,4.1,7.6,4.8,8.1S235.6,131.8,237.3,122.3z"/>
	<path class="st18" d="M209.9,89c-0.4-0.4-0.6-1-0.7-1.6c0-0.7,0.8-1.5,0.8-1.9s0-1.2,0-1.7c0-0.4,0.1-0.8,0.4-1.2
		c1.3-1.2,2.6-2.3,4.1-3.2c1.1-0.7,2.1-1.5,3.6-1.5s2.8-0.3,3.2,0.4l0.5,0.9c0,0-0.5-0.3,0.8,0.1c0.5,0.2,1.1,0.3,1.6,0.3
		c1,0,2.2,0.1,2.4,0.5s0.3,1.1,0.9,1.6s1.4,0.7,2,1c0.7,0.7,1.2,1.6,1.4,2.6c0,0.6,0.4,5.1,0.4,5.7c0.1,1.2,0,2.4-0.1,3.6
		c-0.2,0.3-2,2.9-2.1,3.3c-0.3,0.6-0.4,1.2-0.5,1.8c0,0.7-0.1,1.5-0.5,2.1c-0.3,0.4-0.6,0-0.6,0c0.1-0.7,0.1-1.4,0-2.2
		c-0.2-0.8-0.2-1.6-0.1-2.4c0.1-0.9,0.8-0.9,0.2-1.6s-0.9-0.4-1-1.5s0.4-2.1-0.3-2.9s-0.5-2-1.8-2.1c-1.5-0.1-3-0.3-4.5-0.5
		c-1.1-0.3-0.7,0.4-2.5-0.1s-2.1-0.7-2.9-0.6c-0.6,0.1-1.2,0.2-1.8,0.2c-0.4,0-0.2-0.1-0.7,0.4C211.6,89.2,210.7,89.4,209.9,89z"/>
	<path class="st45" d="M34.8,110.8l-0.3,3.5c0,0,5.8,4.5,7.1,4c0.7-0.2,1.3-0.6,1.7-1.1l0.2-5.6L34.8,110.8z"/>
	<path class="st46" d="M43.6,113.2l0.1-1.6l-8.8-0.7l-0.1,0.8c1.4,1.9,3.4,3.2,5.7,3.7C42.2,115.7,43.1,114.7,43.6,113.2z"/>
	<path class="st47" d="M44.7,118.1c0,0,4.7,4.6,5.1,6.8s0.7,16.6,0.7,16.6l-0.2,14l-1.9-6.3L44,119.6l-0.3-2.6L44.7,118.1z"/>
	<path class="st47" d="M45.4,119l5.6,4.2c0,0,0.6,11.1,0.6,12s-0.1,3.9-0.1,4.3s1,7.3,1,7.7c-0.2,2.4-0.6,4.7-1.1,7
		c-0.9-0.8-1.6-1.7-2.3-2.7c-0.3-0.6-1.7-22.1-1.7-22.1L45.4,119z"/>
	<path class="st48" d="M42.6,206.8c0,0,2.8,1.8,3.4,2s3.6,0.3,4.2,0.8c0.3,0.4,0.5,0.9,0.5,1.5c-1.6,0.2-3.2,0.4-4.8,0.4
		c-1.2,0-2.3-0.1-3.4-0.3c-0.7-0.1-0.6,0.4-1.3,0.4s-3-0.1-3-0.1l0.4-4.1L42.6,206.8z"/>
	<path class="st48" d="M31.8,207.5c0,0,3.8,3.1,4.2,3.3s3.5,0.9,4.2,1.1s0.9,1.6,0.8,2s-4.6,0.2-5.8,0.2c-1.2-0.2-2.3-0.4-3.5-0.7
		c-0.5-0.1-1,0.1-1.4,0.4c-1,0-2-0.1-3-0.3c-0.1-2-0.2-3.9-0.1-5.9L31.8,207.5z"/>
	<path class="st47" d="M47.1,186l-1.8,8.1c0,0-2.2,13.1-2.8,13.3s-3.4,1.2-4.1,0.4s0.1-15.2,0.3-15.9c0.9-3.3,2-6.6,3.2-9.9
		c0.9-1.9,3.8,1.1,3.8,1.1L47.1,186z"/>
	<path class="st47" d="M48.4,150.1c0,0,2.1,5,1.9,6.8s-2.2,24.1-2.4,25.2s-0.5,5.1-2.1,5.4s-4,0.3-4.1-1.6s-1.1-9.8-1.1-11.3
		s-0.5-8-0.5-8.1s1.7-14,1.7-14L48.4,150.1z"/>
	<path class="st49" d="M40.2,166.6c0,0.2,0.5,6.6,0.5,8.1c0,1,0.5,5.2,0.8,8.3c-1,2.7-2.6,8.2-2.8,8.9s-0.9,13.5-0.4,15.7
		c0-2.6,0.3-12.3,1-14.6c0.8-2.8,2.8-6.4,2.8-7.1s0.3-9.2,0.4-10.4s1.4-7,1.7-8.4s1-12.8,1-12.8l-4.7,9.3
		C40.3,165.2,40.2,166.5,40.2,166.6z"/>
	<path class="st47" d="M45.7,152.3c0,0-2.1,12-2.9,14.3s-5,11.4-5.2,11.8s-0.9,3.8-0.9,3.8s-1.1,3.4-2.7,3.6s-5.8-1.2-5.5-3.7
		s3.2-22.6,3.4-23.3s3-8.6,3-8.6l7.4,0.7L45.7,152.3z"/>
	<path class="st50" d="M34.1,116l-0.2,0.7c0,0,6.1,9.2,7.5,14.2c1.4,4.7,1.6,9.2-0.5,13.1s-2.8,5-2.8,5c2,0.5,4,0.7,6,0.7
		c2.2-0.2,4.2-0.5,4.2-0.5s-0.9-16.4-1.8-20.4s-2-9-2-9l-0.5-2L34.1,116z"/>
	<path class="st48" d="M40,119.4c0,0,1,1.3,1.2,1.3h1.1l0.4-1.9l-0.8-1.6l-1,0.3L40,119.4z"/>
	<path class="st48" d="M42.3,120.2c0,0,2.3,8.3,2.6,9.1s2.2,17.4,2.2,17.4l-1.4,2.4l-2.5-5.5c0,0-0.5-15.2-1-18.1s-1.2-5.5-1.2-5.5
		L42.3,120.2z"/>
	<path class="st49" d="M37.8,153.1c0,0-3.4,4-4.4,3.3s-0.2-2.5-0.2-2.5l0.7-0.6l1.4-1.1l2.7-0.1L37.8,153.1z"/>
	<path class="st51" d="M36.2,150.6c2.8,0.7,5.6,1,8.5,1c1.3,0,2.5-0.1,3.8-0.4l0.1-2.3c-1.9,0.5-3.9,0.7-5.9,0.7
		c-2.2-0.2-5.6-0.9-5.6-0.9L36.2,150.6z"/>
	<polygon class="st52" points="42.9,149.1 42.9,151.9 46.4,151.9 46.5,148.8 	"/>
	<polygon class="st47" points="41.1,152.1 41.1,149.2 40.2,149.2 40,151.9 	"/>
	<polygon class="st47" points="47.4,148.9 47.2,151.9 47.9,151.8 48.1,148.7 	"/>
	<polygon class="st45" points="49.5,151.4 48.1,152.7 50.1,156.2 51.3,153.4 	"/>
	<path class="st47" d="M35.6,182.5l-3.1,26.3c0,0-5.3,1.4-5.7,0s0.1-16.2,0.2-17.2s1.4-9.1,1.7-9.6s4.7-0.2,4.7-0.2L35.6,182.5z"/>
	<path class="st47" d="M37.1,150.1c-1.3,1.1-2.8,10.9-2.8,10.9c-1.6-0.1-3.3,0-4.9,0.4c0.1-1,3.6-12.2,4-16.3s-2.8-7.3-3.8-8.1
		s-4.2-15.2-4.2-15.2l8.7-5.3l2.3,2.1L41,127l1.1,5.8l0.5,8.8C42.6,141.6,42.5,145.7,37.1,150.1z"/>
	<path class="st47" d="M31.4,130.1l-2.2,12c0.1,1.1-0.7,2.1-1.8,2.2c-0.1,0-0.3,0-0.4,0c-2.4-0.1-5.1,0.1-5.1-1.7s0.5-16.9,2.1-19.5
		c1.9-1.5,3.1-2.3,3.1-2.3s4.3,4.8,4.3,6.7S31.4,130.1,31.4,130.1z"/>
	<path class="st53" d="M27,120.8c0,0,4.3,4.8,4.3,6.7c0,1.8,0.1,2.6,0.1,2.6l-2.2,12c0.1,1.1-0.7,2.1-1.8,2.2c-0.1,0-0.2,0-0.4,0"/>
	<path class="st45" d="M35.4,157.9l-1.4-4.1c0,0,2.1-1.8,3.4-1.6c0.6,0.5,1.1,1.1,1.4,1.8C38.9,154.1,37.7,157.1,35.4,157.9z"/>
	<path class="st47" d="M28.4,141.4l5,5.7c0,0,4.5,5,4.5,5.1s-3.5,1.4-3.8,2.3s-0.7,1.9-0.7,1.9s-4.3-4.1-6.4-6.2s-5.1-5.6-5.1-7.4
		c-0.1-0.9,0.2-1.9,0.7-2.7L28.4,141.4z"/>
	<path class="st54" d="M44.7,118.1c0,0,4.7,4.6,5.1,6.8s0.7,16.6,0.7,16.6"/>
	<path class="st46" d="M45.3,104.4c0,0,0.2-2.1,0.4-2.1s0.4-0.2,0.4,0.9s-0.3,2.4-0.3,2.8s0.2,2.1,0,2c-0.4-0.9-0.7-1.9-0.7-2.9
		C45.1,104.9,45.2,104.6,45.3,104.4z"/>
	<path class="st46" d="M32.5,105.2c0,0-0.6-2.2-1-2.4s-0.7-0.2-0.9,0.1c0.2,1.2,0.6,2.4,1,3.5c0.1,0.2,0.4,0.8,0.7,0.8
		S32.6,105.4,32.5,105.2z"/>
	<path class="st45" d="M45,99.3c0,0,0.7,8.4,0.6,8.9s-1.5,6.1-5.1,6s-7.4-3-8-6.3s-1.2-10.7-1.2-10.7l3.7-2.5c0,0,6-0.1,6.8-0.1
		s2.6,1.4,2.6,1.4L45,99.3z"/>
	<path class="st55" d="M45.4,104.3c-0.2-1-0.4-2.1-0.5-3.1c-0.1-1.3,0-3.5-0.4-3.9c-1.3-1.2-3-2-4.7-2.2c-1.5,0-3.1,0.2-4.5,0.7
		c-0.8,0.2-2.8,1.1-2.8,1.7s-0.1,3.6-0.1,4.6s0.2,2.9,0.2,3.3s-0.4-0.2-0.4-0.5c-0.1-0.7-0.4-1.3-0.9-1.9c-0.4-0.2-0.7-3.4-1-4
		s-0.5-1.3-0.2-1.7c0.3-0.3,0.4-0.6,0.4-0.9c0-0.4,0-1.8,0.8-2.2c1.1-0.6,2.4-1,3.6-1.3c0.6,0,0.6-0.6,2.5-0.9
		c1.5-0.3,3.1-0.3,4.6,0.2c1.4,0.2,2.6,1,3.4,2.1c0.4,0.8,1,1.6,0.8,2.4c-0.2,1.2-0.3,2.5-0.3,3.7C45.7,101.6,45.6,102.9,45.4,104.3
		z"/>
	<path class="st56" d="M40.2,100.3c0,0,0.1,2.6,0.2,3.1s1,2.7,1,3s-0.1,0.9-1.1,0.8s-1.1,0.1-1.4-0.1s-0.3-0.3-0.2-0.5"/>
	<path class="st3" d="M36.7,108.6c0,0,4.4,0.7,6.8-0.1c-0.8,0.8-1.5,2.3-3.3,2.1C38.7,110.6,37.4,109.8,36.7,108.6z"/>
	<path class="st46" d="M40.9,109.5c0.9-0.1,1.7-0.4,2.5-0.8l0.1-0.1c-2.4,0.8-6.8,0.1-6.8,0.1l0.1,0.1
		C38.1,109.3,39.5,109.6,40.9,109.5z"/>
	<path class="st57" d="M38.2,100.3c-1-0.1-2.1-0.1-3.1-0.1c-0.6,0.2-1.1,0.4-1.7,0.7c-0.2,0.1-0.3-0.4,0.3-0.7
		c0.6-0.4,1.3-0.6,2-0.6C36.2,99.5,38.2,99.3,38.2,100.3z"/>
	<path class="st3" d="M34.6,102.9c0,0,1.3-2.4,3.5-0.3C37.1,103.5,35.6,103.6,34.6,102.9z"/>
	<g>
		<defs>
			<path id="SVGID_5_" d="M34.6,102.9c0,0,1.3-2.4,3.5-0.3C37.1,103.5,35.6,103.6,34.6,102.9z"/>
		</defs>
		<clipPath id="SVGID_6_">
			<use xlink:href="#SVGID_5_"  style="overflow:visible;"/>
		</clipPath>
		<g class="st58">
			<circle class="st59" cx="36.3" cy="102.6" r="0.8"/>
		</g>
	</g>
	<path class="st60" d="M38,102.6c-2.2-2.1-3.5,0.3-3.5,0.3l0,0c0.4-0.3,1-0.9,1.6-0.9c0.6,0.1,1.2,0.4,1.8,0.7L38,102.6z"/>
	<path class="st57" d="M40.5,100.2c0.9-0.1,1.8-0.1,2.7-0.1c0.5,0.2,1,0.4,1.5,0.6c0.2,0.1,0.2-0.3-0.3-0.6
		c-0.5-0.3-1.1-0.5-1.7-0.6C42.2,99.5,40.4,99.4,40.5,100.2z"/>
	<path class="st3" d="M44.2,102.5c0,0-1.4-2.2-3.3,0C41.9,103.4,43.3,103.4,44.2,102.5z"/>
	<g>
		<defs>
			<path id="SVGID_7_" d="M44.2,102.5c0,0-1.4-2.2-3.3,0C41.9,103.4,43.3,103.4,44.2,102.5z"/>
		</defs>
		<clipPath id="SVGID_8_">
			<use xlink:href="#SVGID_7_"  style="overflow:visible;"/>
		</clipPath>
		<g class="st61">
			
				<ellipse transform="matrix(0.9966 -8.246034e-02 8.246034e-02 0.9966 -8.3016 3.8585)" class="st59" cx="42.6" cy="102.4" rx="0.8" ry="0.8"/>
		</g>
	</g>
	<path class="st60" d="M40.9,102.6c1.9-2.3,3.3,0,3.3,0l0,0c-0.4-0.3-1.1-0.8-1.6-0.8c-0.6,0.2-1.1,0.4-1.6,0.8L40.9,102.6z"/>
	<path class="st48" d="M34.8,117.5l1.2,5.3l1.7-0.1l-1.7,2.1c0,0,5.8,3.3,6,9.7c0.5-2.3-1-7.6-1.5-8.8c-1.5-2.9-3.2-5.7-5.1-8.4
		L34.8,117.5z"/>
	<path class="st48" d="M44.9,119.6l3.6,3.2l-2.5,0.1l1.6,1.7l-0.3,10C47.4,134.7,45.2,120.3,44.9,119.6z"/>
	<polygon class="st62" points="34.1,113.3 41.3,117.3 39.5,121.1 33.8,116 	"/>
	<polygon class="st62" points="43.5,114 41.3,117.3 43.1,119.7 43.9,118.2 	"/>
	<path class="st63" d="M171.6,126.6c0.7,0.2,1.4,0.4,2.1,0.5c1.6,0,3.2-0.1,4.8-0.3c0.5-0.1,1.4-0.3,1.5-0.5s-2.5-0.2-2.5-0.2
		l-5,0.4L171.6,126.6z"/>
	<path class="st64" d="M165.2,184.4c0,0,4.3,0.6,4.2,0.9s-0.8,0.7-2.6,0.6c-2.6-0.2-5.2-0.5-7.8-1.1c-0.4-0.3-0.1-1.6,0.5-2.4
		s1.8,0.1,1.8,0.1L165.2,184.4z"/>
	<path class="st64" d="M146.2,187c1.7,0.5,3.4,0.8,5.2,1c1.5,0,4.2,0.3,4.3-0.3c-0.9-0.5-1.9-0.9-2.9-1.3l-4.4-1.9l-1.5,0.1
		C146.4,185.3,146.2,186.1,146.2,187z"/>
	<path class="st65" d="M160.3,177.2c0.1,1.4,0,2.9-0.3,4.2l-0.4,1.1c0.4,0.6,1,1.1,1.7,1.4c1,0.2,3.5,1,4.7,0.6
		c-0.8-0.4-2.6-1.4-3-2.4c-0.4-1.7-0.6-3.5-0.5-5.3C161.6,176.9,160.3,177.2,160.3,177.2z"/>
	<path class="st65" d="M150.8,178.2c0,0-1.3,4.8-1,5.8c0.5,1.2,1.6,2.2,2.8,2.7l1.1,0.4c0,0,0.4,0.4-1.1,0.1s-4.9-1-5.8-2.1
		c0-0.3,1.8-6.8,1.8-7S150.8,178.2,150.8,178.2z"/>
	<path class="st66" d="M154.8,128.1l13.5,1.3c0.4,2.1,0.6,4.2,0.6,6.4c-0.6,5.7-1.6,11.3-2.9,16.8c-0.5,1.6-0.9,3.2-1.2,4.8
		c0,0-1,5.1-1,5.4s-1,14-0.9,14.7c-1,0.7-2.2,0.7-3.2,0.1c0.2-2.7,0.2-5.5,0.1-8.2c-0.2-4.1-0.3-8.6,0.2-10.9s1.3-6.2,1.4-6.6
		s0.2-17.6,0.2-17.8s-0.8,0-0.8,0l-1.6,8.5c0,0-1.8,12.4-2.4,14.7s-5.5,18.3-5.5,21.2c-0.6,0.2-3.5,0.5-3.6-0.5
		c0.4-2.3,1.4-6.9,1.5-8.5c0.3-2.9,1-5.7,2-8.3c1.1-3,2.2-5.1,2.2-6.4s-0.6-10.7-0.8-12.1s-0.7-5.9-0.7-5.9l0.4-7.1L154.8,128.1z"/>
	<path class="st67" d="M160.2,133.4l0.6,0.7c0.1,0,0.8-0.2,0.8,0s-0.1,17.5-0.2,17.8s-0.9,4.2-1.4,6.6s-0.4,6.8-0.2,10.9
		c0.1,2.7,0,5.5-0.1,8.2c1,0.6,2.3,0.5,3.2-0.1c-0.1-0.7,0.9-14.4,0.9-14.7s1-5.4,1-5.4s0.1-0.4,0.2-1.2c-0.7-0.9-1.2-1.9-1.6-2.9
		c-0.1-0.6,0-6.3-0.3-9.1s1-11.3,1-11.3L160.2,133.4z"/>
	<path class="st67" d="M168.6,130.4c-0.1-0.6-0.2-1-0.2-1l-13.5-1.3l-2.6,1.7l-0.4,7.1c0,0,0.4,4.4,0.7,5.9s0.9,10.8,0.8,12.1
		s-1.1,3.4-2.2,6.4c-1,2.7-1.7,5.5-2,8.3c-0.1,1.7-1,6.2-1.5,8.5c0.1,1,3,0.7,3.6,0.5c0-3,4.9-18.9,5.5-21.2
		c0.1-0.3,0.2-0.9,0.4-1.6c-1-0.6-1.8-1.4-2.5-2.3c-0.3-0.7-0.5-8.1-0.5-8.1s-0.2-6.1-0.2-7c0-1.7,0.1-3.4,0.4-5c0.3-1,3.1-1.8,4-2
		c2.2-0.4,4.4-0.6,6.6-0.7C166.2,130.7,167.7,130.5,168.6,130.4z"/>
	<path class="st3" d="M159.2,108.2l6.5-0.6l0.4,20.6l-0.1,1.2c0,0-7.3,0.1-7.6-0.2s0.8-11.5,0.8-11.5L159.2,108.2z"/>
	<path class="st68" d="M165.8,111.8c-0.6,0.3-1.3,0.5-2,0.5c-1-0.1-2-0.5-2.9-1l-1.6,2.9v3.6c0,0-1,11.1-0.8,11.5
		c1.4,0.3,2.9,0.3,4.3,0.3c-0.8-1.3-1.5-2.7-1.9-4.2c-0.2-1.2,0.4-3.6,1-5.8c0.6-1.5,1.4-3,2.5-4.2c0.4-0.5,0.9-0.8,1.5-0.9
		L165.8,111.8z"/>
	<path class="st69" d="M156.7,83.1c0.8-1.5,2.5-2.2,4.1-1.7c3,0.6,7.1,3.2,7.4,4s-0.3,0.8-0.3,1.2s1.2,0.8,1.3,1.3s-0.1,0.4-0.5,0.8
		s-0.4,0.6,0,1s1.2,1.3,1,1.6s-0.6,0.3-0.7,0.9s1.6,1.7,1.5,2.7s-0.7,1.2-0.5,1.8s0.8,1.1,0.5,1.8s-0.9,0.5-0.6,1.1s1.1,1.2,0.9,1.7
		c-0.5,1-1.1,1.9-1.8,2.8c-0.4,0.8-0.6,1.6-0.7,2.5l-9.2-0.6l-5.9,0.6c0,0-2.9-0.5-2.9-0.8s0.5-0.6,0.6-1s-0.9-1.2-0.8-1.9
		s0.9-0.7,0.6-1.2s-1.4-0.9-1.2-1.5s0.6-0.8,0.6-1.6s-0.3-0.8-0.6-1.9c-0.2-0.6-0.2-1.3,0.2-1.8c0.2-0.4,1.8-1.2,1.7-1.9
		s-0.9-2.1-0.4-2.6c0.8-0.6,1.4-1.5,1.7-2.4c0.1-1,0.4-3.4,1.3-3.8c0.8-0.3,1.6-0.5,2.4-0.6L156.7,83.1z"/>
	<path class="st65" d="M162.3,98.2c0,1.2,0.1,2.4,0.3,3.5c0.3,0.8,1.1,2.1,1.9,2.2s0.9,0.3,0.9,0.3l0.4,2.9c0,0-1.1,2.3-2,2.5
		s-3.2,0.4-4.1-0.6c-1-1.7-1.9-3.5-2.6-5.4c0,0,1.9-0.4,2-2s0.1-4,0.1-4L162.3,98.2z"/>
	<path class="st70" d="M161.4,101.2c0.4,0,0.8-0.1,1.1-0.3c-0.1-1.1-0.2-2.7-0.2-2.7l-3.1-0.5c0,0,0,1.2,0,2.4
		C159.9,100.6,160.6,101,161.4,101.2z"/>
	<path class="st71" d="M157.7,103.3c0,0,2.8,6.4,3.3,7.8s-0.3,10.1-0.4,10.3s-0.3-7.3-0.8-9s-4.5-8.3-4.5-8.3L157.7,103.3z"/>
	<path class="st72" d="M166.2,104.2c0,0,2.9,0.9,3,1.2c0.3,2,0.4,4.1,0.3,6.1c-0.1,2.5-0.3,3.9-0.2,4.5c0.1,1.3,0.3,2.5,0.6,3.7
		c-0.1,0.4-0.4,0.4-0.4,0.4l0.7,1.4v0.3l-3.1,0.6l1.6,7c0,0,0,0.3-0.4,0.4c-0.9,0.1-1.9,0.2-2.8,0.2c0,0-0.2-7.4-0.1-8.9
		s0.2-8.8,0.2-8.8l-0.1-8.2L166.2,104.2z"/>
	<path class="st73" d="M170.8,121.5l0.2,2.1l-3.4,1l-0.6-2.3C168.2,121.9,169.5,121.6,170.8,121.5z"/>
	<path class="st72" d="M155.8,104.1c0,0-4.1,0.9-4.2,1.5s-0.9,5.6-1.2,8.7c-0.3,2.4-0.5,4.7-0.5,7.1c0.2,0.5,3.2-0.2,3.2-0.2
		s0.6-9.5,0.8-9.3c0.6,1.5,1.1,3,1.5,4.6c0.2,0.9,0.7,3.4,0.5,3.8s-0.4,0.5-0.1,0.8c0,0.7-3.6,8.8-3.6,8.8s3.3,0.5,4.9,0.5
		s2-0.1,2.1-0.7c0.7-2.8,1.2-5.7,1.5-8.6c0.2-2.7-0.4-9.4-0.4-9.4l-2.3-4.6L155.8,104.1z"/>
	<path class="st65" d="M149.9,123.4l1.5,9.8c0,0-0.1,3.8-0.1,4.4c0,0.4,0,0.8,0.1,1.2l0.2,0.9c0,0-0.2,0.2,0.2,0.3s0.4,0.8,0.4,0.8
		l0.2,0.1c0,0,0.3,0.4,0.4,0.3c0.1-0.2,0.2-0.4,0.2-0.6c0,0,0.4,0.3,0.5-0.1s0.2-4.1,0.2-4.1s0.3-0.1,0.6,0.4s0.6,1.6,0.8,1.6
		s0.4-0.5,0.2-1c-0.3-1.1-0.7-2.1-1.1-3.1c-0.6-0.6-1.2-1.1-1.7-1.8c0-0.2,0.2-4.1,0.2-4.3s0.5-5.2,0.4-5.2S149.9,123.4,149.9,123.4
		z"/>
	<path class="st70" d="M162.7,109.7c0,0,0.1-0.8,0-0.9s0.5,0.9,0.6,1s-0.5,0.1-0.5,0.1L162.7,109.7z"/>
	<path class="st73" d="M164.8,103.7c0.7,0.1,1.5,0.3,2.2,0.5c0.1,0.2,0,2.6,0,3.4s0,3.8,0,4.3s-1.1,8.2-1.5,9.4
		c0.1-3.6,0.1-9,0-11.4S164.8,104,164.8,103.7z"/>
	<path class="st65" d="M155.8,91.6c0,0-0.1,4,1.1,5s2.9,2.4,4.4,2.4s4.4-1.9,4.5-3.6s0.4-5.9,0.4-5.9v-2.6l-3.1-1.7l-4.6-0.3
		l-2.6,2.7L155.8,91.6z"/>
	<path class="st3" d="M162.4,91.8c0.3-0.5,0.8-0.8,1.3-0.9c0.9-0.1,1.4,0.6,1.8,0.6c-0.4,0.2-0.6,0.6-1.5,0.6c-0.6,0-1.1,0-1.6-0.1
		C162.4,92,162.4,91.8,162.4,91.8z"/>
	<circle class="st74" cx="163.8" cy="91.5" r="0.5"/>
	<path class="st75" d="M164,91.1c0.8,0,0.9,0.3,1.4,0.3c-0.5-0.3-1-0.5-1.6-0.5c-0.6,0.1-1,0.4-1.3,0.9v0.1
		C162.8,91.4,163.4,91.2,164,91.1z"/>
	<path class="st74" d="M162.7,90.7c0.5-0.3,1.1-0.5,1.7-0.7c0.3,0,0.5,0.1,0.8,0.3c0.1,0-0.3-0.5-0.5-0.5c-0.4-0.1-0.8,0-1.1,0.2
		C162.8,90.2,162.4,90.6,162.7,90.7z"/>
	<path class="st3" d="M159.7,91.8c-0.3-0.5-0.8-0.8-1.3-0.9c-0.9-0.1-1.4,0.6-1.8,0.6c0.4,0.2,0.6,0.6,1.5,0.6c0.6,0,1.1,0,1.6-0.1
		C159.7,92,159.7,91.8,159.7,91.8z"/>
	<circle class="st74" cx="158.3" cy="91.5" r="0.5"/>
	<path class="st75" d="M158.1,91.1c-0.8,0-0.9,0.3-1.4,0.3c0.5-0.3,1-0.5,1.6-0.5c0.6,0.1,1,0.4,1.3,0.9v0.1
		C159.2,91.4,158.7,91.2,158.1,91.1z"/>
	<path class="st74" d="M159.4,90.7c-0.5-0.3-1.1-0.5-1.7-0.7c-0.3,0-0.5,0.1-0.8,0.3c-0.1,0,0.3-0.5,0.5-0.5c0.4-0.1,0.8,0,1.1,0.2
		C159.3,90.2,159.7,90.6,159.4,90.7z"/>
	<path class="st76" d="M160,94.5c0.3,0.2,0.6,0.3,0.9,0.4c0.4,0,0.7-0.1,1-0.3"/>
	<path class="st77" d="M159.1,96c0.2,0.1,0.4,0.1,0.7,0.1c0.3-0.1,0.8-0.4,1.2-0.3s0.5-0.1,0.7,0c0.4,0.2,0.8,0.3,1.2,0.3
		c-0.1,0.1-0.3,0.2-0.4,0.3c-0.4,0.5-0.9,0.7-1.5,0.8c-0.5-0.1-1-0.3-1.3-0.7C159.4,96.3,159.1,96.2,159.1,96z"/>
	<path class="st78" d="M159.3,96.2c0,0,1.3,0.2,1.4,0.2c0.2,0,0.4,0,0.6,0c0.5,0,0.9-0.1,1.4-0.2"/>
	<path class="st69" d="M160.5,86.4c0.7,0.4,1.4,0.9,2,1.5c1.3,1.2,1.6,1.3,2.2,1.2s0.9-0.1,0.9,0.2s-0.2,0.7,0.2,0.9
		c0.3,0.2,0.5,0.4,0.7,0.7c0.2-0.5,0.3-1,0.5-1.4l-0.1-3.5c0,0-4.9-2.1-5-2.1s-4.8,0.8-4.8,0.8s-1.5,1.6-1.5,2s-0.3,2.8-0.4,3.4
		c0,0.6,0.1,1.3,0.3,1.9c0,0,1.1-0.9,1.3-1.5s-0.3-1.5,0.1-2s2-1.4,2.2-1.8C159.4,86.4,160,86.3,160.5,86.4z"/>
	<path class="st73" d="M149,121.2c-0.1,0.8-0.1,1.6-0.1,2.4c0.2,0.2,0.4,0.2,1.6,0.2c1.1,0,2.2-0.1,3.2-0.4c0.1-0.8,0.1-1.5,0-2.3
		c-0.4-0.1-0.9-0.1-1.3,0C151.8,121,149,121.2,149,121.2z"/>
	<path class="st79" d="M153.9,111.9c0,0-1.1-5.4-1.6-5.9c0.9,0.9,1.6,5,1.8,5.6c0.1,0.4,0.2,0.8,0.3,1.1L153.9,111.9z"/>
	<path class="st79" d="M166.9,121.6c-0.1-0.9-0.1-1.9,0-2.9c0.2-1.1,1-9.2,1-10.3c-0.1-1,0.2-2.1,0.9-2.9
		C168.4,105.8,166.9,121.6,166.9,121.6z"/>
	<path class="st80" d="M172.2,126c0,0,0.2-0.4-1.9-0.9s-9.1-2.1-9.1-2.1s-1-0.4-1,0.1s0.4,0.8,1.8,1.2l8.8,2.2
		C170.8,126.5,172.4,126.8,172.2,126z"/>
	<path class="st80" d="M182.6,124.9c0,0-0.4,0.7-0.7,0.8c-0.2,0.3-0.1,0.3-0.6,0.3s-8.5,0.9-8.5,0.9c-0.8-0.1-1.6-0.3-2.4-0.5
		c1.7-0.3,1.7-0.5,1.7-0.5L182.6,124.9z"/>
	<path class="st81" d="M160.4,123.2c0,0-1.2-0.4,2-0.5s9.4-0.5,9.5-0.5s10.5,2.5,10.5,2.5c-0.5,0.3-0.9,0.5-1.4,0.7L173,126
		l-2.7-0.3L160.4,123.2z"/>
	<path class="st82" d="M172.3,126.1c0,0,4.4-15.4,4.4-15.6c0-0.2,0.1-0.3,0.2-0.3c0,0,0,0,0,0c0.2,0,9.5,1.4,9.5,1.4
		c0.2,0.2,0.3,0.4,0.2,0.7c-0.1,0.4-3.4,12.1-3.4,12.1s-0.1,0.4-0.9,0.5S172.3,126.1,172.3,126.1z"/>
	<line class="st83" x1="162" y1="123.5" x2="173.1" y2="123.2"/>
	<line class="st83" x1="163.9" y1="123.9" x2="173" y2="123.6"/>
	<line class="st83" x1="166.7" y1="124.3" x2="172.8" y2="124"/>
	<line class="st83" x1="168.3" y1="124.7" x2="172.6" y2="124.4"/>
	<polygon class="st84" points="166.1,122.6 163.9,122.8 164.4,123.1 167.5,122.9 	"/>
	<path class="st65" d="M172.8,126.9c0.5,0.3,1,0.5,1.5,0.7c0.4,0,0.5,0.7,1.1,0.7c0.7-0.1,1.4-0.3,2-0.6c0.2,0.1,0.4,0.1,0.6,0.1
		c0.2,0,0.3-0.1,0.4-0.2c0,0,0.7-0.1,0.8-0.3c0.1-0.1,0.1-0.2,0.1-0.4c0,0,0.7,0.2,0.9-0.1c0.2-0.4,0.3-0.9,0.3-1.3
		c0-0.2-0.3-0.4-0.5,0.1l-0.3,0.5c0.2-1.1,0.2-2.2,0.2-3.3c-0.2-0.1-0.7-0.1-0.7,0.5c-0.4,0-0.9,0.1-0.9,0.5
		c-0.1,0.7-0.2,1.4-0.4,2.1c-0.1,0.2-0.3,0.7-0.4,0.6s0.2-1.4,0-1.5s-0.7-0.3-0.7,0s-0.3,1.2-0.3,1.4s-0.5-0.2-0.7,0
		s0.1,0.3-0.6,0.2C174.4,126.8,173.6,126.8,172.8,126.9z"/>
	<path class="st85" d="M179.3,123.6c0,0.8-0.1,1.5-0.2,2.3c-0.1,0.4-0.4,0.8-0.4,1s-0.1,0.2-0.1,0.2"/>
	<path class="st85" d="M177.6,126.8c0,0-0.2,0.7-0.6,0.6s-0.5-0.2-0.5-0.2"/>
	<path class="st85" d="M175.7,127.3c0,0-0.1-0.8-1.3-0.5c-0.2,0.3-0.2,0.7,0.1,1"/>
	<path class="st86" d="M123.9,147.1c0,0,0.5,0.4,0.5,1.5s0.1,2.9,0.1,3.3c0,0.8,0.3,1.7,0.8,2.3c0.1,0.6-1.1,0-1.1,0s-0.1,2.4-0.2,3
		s-0.5,1.7-0.6,1.5s-1.3-9.3-1.3-9.3l-0.1-2.1L123.9,147.1z"/>
	<path class="st87" d="M124.3,154.3c-0.9-1-0.9-2.3-1-3.5c0,0-0.1,0-0.1,0c0.1,1.2,0.1,2.6,1,3.5
		C124.2,154.3,124.3,154.3,124.3,154.3L124.3,154.3z"/>
	<path class="st88" d="M120.6,202.2c0,0,0.9,0.4,0.8,0.8s-0.5,0.8-1.5,0.7c-1.5-0.1-2.9-0.3-4.3-0.6c-0.6-0.6-1.1-1.2-1.4-2
		c-0.5-0.7-1.1-1.4-1.7-2c-0.2-0.1-1.7-0.6-1.7-0.6l-1-0.9l1.8,0.2c0.9,0.4,1.8,0.9,2.6,1.5C114.6,199.5,120.6,202.2,120.6,202.2z"
		/>
	<path class="st88" d="M114.4,203.7c0,0,0.6,0.6,0.5,1.1s-0.9,0.8-1.7,0.7c-1.2-0.2-2.5-0.5-3.7-0.9c-0.2-0.1-1.4-0.5-1.7-1.5
		s-0.8-3.2-2.1-4.1c0.1,0.9,0.2,1.8,0.2,2.7c0,0-0.2,0.2-0.3,0s-0.4-3.2-0.5-3.4s-0.7-0.8-0.7-1s-0.2-0.9,0.5-1
		c0.6,0.7,1.7,2.1,1.7,2.1l2.1,3.8L114.4,203.7z"/>
	<path class="st86" d="M116.9,173.4c0,0-0.5,5.5-0.8,7.3s-1.7,8.4-1.8,8.9c-0.2,1.3-0.2,2.6,0,3.9c0.4,1.1,1.7,4.5,3.2,5.5
		s1.8,1,2.1,1.3c0.2,0.3,0.3,0.6,0.4,0.9c0.1,0.2,0.6,0.5,0.7,0.6s0.2,1.5-0.9,1.4c-0.8-0.1-1.6-0.2-2.4-0.5c0,0-2.5-0.9-2.8-1.5
		s-1.7-3-3.1-3.1c-1.7-1.4-1.8-5.3-1.8-5.3l0.9-6.3l3.9-12.3L116.9,173.4z"/>
	<path class="st89" d="M117.9,169.1c0.3,1.4,0.1,2.8-0.6,4c-0.5,0.9-1.2,1.8-1.9,2.5c-0.2,0.2-4.2,11.7-4.4,12.5
		c-0.4,1.8-0.6,3.7-0.3,5.6c0.4,2.6,1,5.1,2.1,7.4c0.4,0.5,0.8,1,1.1,1.6c0.1,0.3,0.8,0.6,0.6,1c-0.1,0.4-0.4,0.7-0.8,0.6
		c-0.3,0-0.3,0.4-0.8,0.4h-0.5c-0.2,0.1-0.5,0.1-0.7,0c-0.3-0.2-1.2-0.1-1.3-0.3s-0.2-0.5-0.3-0.5s-0.7,0.1-1-0.1
		c-0.9-1.4-1.7-2.8-2.4-4.3c-0.3-0.8-0.8-1.5-1.3-2.1c-0.3-0.4-0.9-1.8-0.6-2.4s2-2.9,2.1-4s-0.2-8.1,1-12.4
		c0.6-2.3,1.6-4.4,2.7-6.5c0.1-1.1,0.1-2.3,0-3.4L117.9,169.1z"/>
	<path class="st88" d="M111.7,201.1c-0.5-0.1-0.9-0.1-1.4,0.1c-0.5,0.1-2.3,0.1-2.5,0.3l-0.2,0.1c0,0-0.4,0-0.2,0.8
		c0.2,0.8,0.8,1.5,1.5,1.8c0.4,0,0.8,0.2,1.1,0.4c0.1,0.1,0.5-1.2,0.6-1.4s0.6-0.9,1.2-0.9c0.6,0,1.1,0,1.7,0l-1.1-1.6
		C112.5,200.7,112.4,200.4,111.7,201.1z"/>
	<path class="st90" d="M113.5,204.4c0,0,0.1-0.8-0.4-0.8c-0.1-0.5-0.3-1-0.6-1.4"/>
	<path class="st90" d="M112.4,204.7c0,0,0.3-0.9-0.3-1.1c-0.1-0.5-0.2-0.9-0.3-1.4"/>
	<path class="st90" d="M111.5,204.5c0.1-0.3,0.1-0.7-0.2-1c-0.1-0.4-0.1-0.8-0.2-1.1"/>
	<path class="st88" d="M117.4,198.9l-0.1,1.1c-0.5,0.2-1,0.4-1.5,0.8c-0.4,0.3-0.9,0.5-1.4,0.5c0.1,0.4,0.8,1.7,1.2,1.8
		c1.1,0.2,2.2,0.4,3.3,0.5c0.5,0-1.1-0.4-1-0.7s0.6-1.5,0.6-1.7s0.7-1.1,0.5-1.3L117.4,198.9z"/>
	<path class="st86" d="M120.4,119.6l0.1,5.5c0,0-0.1,5.8-0.1,6s0.3,1.9,0.3,2.1s0.2,1.4-0.8,1.6s-2.2-3.4-2.2-3.8s0.5-8.9,0.5-8.9
		L120.4,119.6z"/>
	<path class="st86" d="M120.4,132.4c0,0,0.4,1.1,0.5,1.5s1.4,7.1,1.5,7.3s1.5,5.6,1.6,6c0.1,0.3,0.2,0.5,0.3,0.7
		c0,0.1,0.1,0.2,0.1,0.2c0,0.2,0.3,2.1-1.2,1.9s-3.7-7.8-3.7-7.8l-1-9.8L120.4,132.4z"/>
	<path class="st89" d="M112.6,108.3l-0.2,3.4l5.3,7l-6.1-3.1l-5.7-4c0.8-0.8,1.2-1.9,1.2-3C108.1,109,112.6,108.3,112.6,108.3z"/>
	<path class="st86" d="M109.4,111c-0.9-0.4-1.7-0.9-2.3-1.6c0-0.3,0-0.5,0-0.8c1,0.4,5.5-0.3,5.5-0.3l-0.2,3.4l0.6,0.8
		C112.2,112.2,110.9,111.6,109.4,111z"/>
	<path class="st88" d="M112.8,111.2c-0.5,0.6-0.9,1.2-1.2,1.8c0,0.4,0,0.9,0,0.9c0.4,0.5,0.8,1,1.3,1.4c0.3,0.2,2,0.8,2.5,1.1
		c0.7,0.4,1.3,1,1.8,1.5c0,0.2-3-1.8-3.8-2.2c-0.6-0.2-1.1-0.6-1.5-1.1c-0.3-0.4-0.5-1.8-0.8-2c-0.6-0.5-1.4-0.9-2.2-1
		c-0.9-0.1-1.7-0.3-2.6-0.5l-1.3,1.8c0,0-4.8,2.5-5.2,2.8s-1.3,5.6,1.4,9.2s4.2,4.7,4.3,6.1s0.6,2.3,0.4,4.5s0.4,3-0.1,4.2
		s-1,10.8-0.8,13.3s1.4,11,1.6,12.3s0.7,4.3,0.6,4.5s0.2,0.6,2.2,0.5s6.8-0.3,8.4-0.9s1.5-0.5,2.2-0.8s3.4-1.1,3.8-2.1
		c0.4-1.3,0.5-2.7,0.4-4c-0.1-0.7-0.8-11.7-1.3-13.8s-1-6-1.1-6.4s-1.6-6.2-1.8-6.9c-0.4-2-0.6-4-0.5-6c0.2-1.3,1.8-4.7,0.8-7.5
		s-0.8-3.7-1.2-4.5s-1.2-3.1-2-3.3s-2.7,0-3.2-0.8C113.3,112.9,113,112,112.8,111.2z"/>
	<path class="st88" d="M116.2,114.5c1-0.2,2,0.1,2.8,0.7c1.4,1,1.4,2.2,1.8,2.6s1.3,1.5,1.2,1.8c-0.8,0.4-1.7,0.8-2.6,1.1
		L116.2,114.5z"/>
	<path class="st89" d="M104.1,122.8c0,0-0.3,0.7-0.5,1.2c0.1,2.1,0.2,4.2,0.5,6.3c0.3,1.4,0.4,2.8,0.5,4.1c-0.1,0.3-2.3,3.1-3.5-0.4
		s-2.7-10.1-2.8-11.9c-0.1-0.9,0-1.8,0.2-2.6l4.3,0.7c0,0,1.4,1.1,1.4,1.5C104.2,122.1,104.2,122.5,104.1,122.8z"/>
	<path class="st89" d="M101.2,133.6c0,0,0.3,5.3,0.5,6.2s1.3,7,1.3,7.6c0,1.1,0,2.2,0.2,3.3c0.1,0.4,1.5,3,1.9,0.8
		c0.3-1.2,0.3-2.4,0.2-3.6c0-0.9-0.1-6.1-0.2-6.8s-0.2-4.1-0.3-4.7s0.2-2.5-0.8-3.5S101.2,133.3,101.2,133.6z"/>
	<path class="st89" d="M103.3,150.5c0.2,0.7,0.2,1.5,0.1,2.2c-0.3,1-0.9,3.1-0.7,4.6c0.1,0.8,0.2,1.6,0.5,2.3c0.1,0,0.5-0.2,0.3-1
		c0.4,0.5,2,2.9,2,2.9s0-0.1,0.3-0.1s0.7,0.3,0.8,0.1c0.2-0.2,0.2-0.6,0-0.8c-0.6-0.8-1-1.8-1.2-2.7c-0.1-0.8,0-1.7,0.2-2.5
		c0.2,1,0.5,1.9,0.9,2.8c0.2,0.2,0.8,0.5,0.9,0.3c0.1-1.6,0-3.1-0.2-4.7c-0.2-0.6-0.8-2.6-1-3c-0.4-0.8-0.7-1.6-1-2.5
		C105,148,103.3,150,103.3,150.5z"/>
	<path class="st91" d="M105.9,161.4c0,0-1.2-2-1.4-2.4c-0.2-0.5-0.4-1.1-0.5-1.6"/>
	<path class="st91" d="M103.6,158.6c-0.2-0.5-0.4-1-0.5-1.5"/>
	<path class="st86" d="M104.2,121.8c0,0.3-0.1,0.7-0.1,1c0,0-0.3,0.7-0.5,1.2c0.1,2.1,0.2,4.2,0.5,6.3c0.1,0.4,0.3,2.1,0.5,3.2
		c0.3,0.9,0.4,1.8,0.3,2.8c0,0.5,0.2,4,0.3,4.7s0.2,5.9,0.2,6.8c0.1,0.8,0.1,1.6,0,2.4l0,0c-1-0.9-0.6-3.8-0.6-5.2s-0.5-7.8-1.1-8.6
		c-0.6-0.7-0.8-1.6-0.7-2.5c0-1,0-2.1-0.2-3.1c-0.1-1.5-0.2-3.7-0.5-6c0-1.4,0.4-2.8,1-4.1C103.7,121,104.2,121.5,104.2,121.8z"/>
	<path class="st88" d="M103.7,123.7c0,0,1-2.4-1.7-2.3s-3.3,0-3.7,1.2c-0.3-1-0.3-5.2,0.3-5.8s0.7-1,1.3-1.1s4.2,2.8,4.2,4.2
		S104.9,122.3,103.7,123.7z"/>
	<path class="st7" d="M106.9,109.2c0,0-0.3,1.5-1,1.9c-0.8,0.4-1.4,1-1.9,1.7c-0.5,0.3-1.1,0.6-1.5,0.9c-0.2,0.2-0.7,0.5-0.9,0.7
		c-0.2,0.2-0.3,0.5-0.3,0.8c0,1.4,0,2.7,0.2,4.1c0.1-0.5,0.1-1.1,0.1-1.6c0,0,1,1.4,0.8,2.1c-0.1,0.8-0.1,1.7,0,2.5
		c0-0.2,0.7-4.5,0.8-5.2s0.6-0.3,0.6-0.3s0.2-0.1,0.3-1.5s0.2-1.3,0.6-2s0.7-0.7,0.9-1.1c0.3-0.4,0.6-0.8,1-1.2
		c0.4-0.6,0.7-1.2,0.7-1.9c-0.2-0.2-0.2-0.1-0.2-0.1"/>
	<path class="st89" d="M116.6,99.5c0,0-0.5,5.9-1.7,7.2s-2.7,3.6-4.6,3.7s-5.4-2.4-5.9-4.9s-0.8-6-0.8-6l1.2-5.4l5.4-1
		c0,0,4.1,1.3,4.2,1.4S116.6,99.5,116.6,99.5z"/>
	<path class="st86" d="M103.6,99.5c0,0-1.1-0.8-0.8,1c0.1,0.8,0.2,1.6,0.2,2.4c0,0.2,0.8,1.4,1,1.2s0.1-1.4,0.1-1.4L103.6,99.5z"/>
	<path class="st86" d="M116.5,99.5c0,0,1.1-0.8,0.8,1c-0.1,0.8-0.2,1.6-0.2,2.4c0,0.2-0.8,1.4-1,1.2s-0.1-1.4-0.1-1.4L116.5,99.5z"
		/>
	<path class="st92" d="M103.8,102.6c0,0-0.2,0.1-0.3-0.3c0-0.8-0.2-1.6-0.4-2.3c-0.2-0.1-0.3,0.2-0.2,1.2"/>
	<path class="st92" d="M116.3,102.6c0,0,0.2,0.1,0.3-0.3c0.1-0.8,0.2-1.5,0.4-2.3c0.2-0.1,0.3,0.2,0.2,1.2"/>
	<path class="st86" d="M111.1,103.6c0.3,0.4,0.1,0.6-0.3,0.7l-0.3,0.1c0,0-0.1,0.1-0.1,0.1c-0.7,0.5-0.6,0.1-0.9-0.1s-1,0-0.8-0.6
		c0-0.1-0.1,0-0.1,0c-0.1,0.7,0.6,0.5,0.9,0.7s0.5,0.3,0.9,0.1c0.2-0.1,0.2-0.2,0.4-0.3s0.4,0,0.6-0.1S111.3,103.7,111.1,103.6
		C111.1,103.4,111.1,103.6,111.1,103.6L111.1,103.6z"/>
	<path class="st3" d="M112,106c0,0-1.8,0.2-2.2,0.1s-1.8,0-1.8,0c0.5,0.5,1.2,0.8,2,0.9C110.9,107,111.8,106.5,112,106z"/>
	<path class="st93" d="M111.1,99.4c0.6-0.5,1.3-0.8,2-1c0.7,0.1,1.4,0.4,2,0.9C113.8,98.8,112.4,98.8,111.1,99.4z"/>
	<path class="st3" d="M111.2,101.3c0.4-0.6,1.1-1.1,1.8-1.2c0.8,0,1.5,0.5,1.9,1.1C113.5,101.3,111.7,101.2,111.2,101.3z"/>
	<g>
		<defs>
			<path id="SVGID_9_" d="M111.2,101.3c0.4-0.6,1.1-1.1,1.8-1.2c0.8,0,1.5,0.5,1.9,1.1C113.5,101.3,111.7,101.2,111.2,101.3z"/>
		</defs>
		<clipPath id="SVGID_10_">
			<use xlink:href="#SVGID_9_"  style="overflow:visible;"/>
		</clipPath>
		<g class="st94">
			<ellipse class="st93" cx="112.9" cy="100.7" rx="0.8" ry="0.8"/>
		</g>
	</g>
	<path d="M111.2,101.3c0.4-0.6,1.1-1.1,1.8-1.2c0.7,0,1.3,0.4,1.7,0.9c-0.5-0.4-1.1-0.6-1.7-0.7
		C112.3,100.5,111.7,100.8,111.2,101.3L111.2,101.3z"/>
	<path class="st93" d="M105.3,99.4c0.6-0.5,1.3-0.8,2-1c0.7,0.1,1.4,0.4,2,0.9C108,98.8,106.5,98.8,105.3,99.4z"/>
	<path class="st3" d="M105,101.3c0.4-0.6,1.1-1.1,1.8-1.2c0.8,0,1.5,0.5,1.9,1.1C107.3,101.3,105.5,101.2,105,101.3z"/>
	<g>
		<defs>
			<path id="SVGID_11_" d="M105,101.3c0.4-0.6,1.1-1.1,1.8-1.2c0.8,0,1.5,0.5,1.9,1.1C107.3,101.3,105.5,101.2,105,101.3z"/>
		</defs>
		<clipPath id="SVGID_12_">
			<use xlink:href="#SVGID_11_"  style="overflow:visible;"/>
		</clipPath>
		<g class="st95">
			<ellipse class="st93" cx="106.9" cy="100.8" rx="0.8" ry="0.8"/>
		</g>
	</g>
	<path d="M105,101.3c0.4-0.6,1.1-1.1,1.8-1.2c0.7,0,1.3,0.4,1.7,0.9c-0.5-0.4-1.1-0.6-1.7-0.7C106.1,100.5,105.5,100.8,105,101.3
		L105,101.3z"/>
	<path class="st86" d="M109.8,106.5c-0.6,0-1.2-0.1-1.8-0.3c0.1,0,1.4-0.1,1.8,0s2.2-0.2,2.2-0.2v0.1
		C111.3,106.4,110.5,106.6,109.8,106.5z"/>
	<path class="st7" d="M112.4,93.1c-0.2,1.7-1.1,3.3-2.5,4.3c-2.4,1.8-2.8,2.4-3.4,2.8c-1.3,1.1-2.2,2.7-2.3,4.4
		c-0.2,0.9-0.7-1.2-0.7-1.9s-0.4-3.5-0.4-3.5l-0.3,0.5c0,0-0.7-0.9,0.1-2.8s0.3-4.5,3.2-5.5s4.5-1.4,5.2-1.1s2.3,0.2,2.8,0.6
		c2.2,1.8,3.3,4.5,3.1,7.3c-0.3,2-0.6,3.8-0.7,4.7s-0.9,4.6-1,5.1c0.2-1.1,0.3-2.2,0.3-3.3c-0.2-1.1-0.7-5.6-1-6.6s-0.4-2.7-1.3-3.2
		S112.3,94.6,112.4,93.1z"/>
	<path class="st29" d="M196.7,58.6c16.6,2.1,33.4,4.2,48.8,10.8c9.1,3.8,17.8,9.5,22.8,18c3.6,6.3,4.9,13.6,5.5,20.8
		c1.9,24.2-0.1,47.7-0.6,72c-0.3,16.1-2,26.5-3.6,42.5s-7.4,32.5-20,42.4c-13.3,10.4-31.3,11.6-48.2,11.8
		c-46.6,0.6-93.2,3.6-139.2-3.6c-14.1-2.2-28.5-4.9-40.9-12.2c-4.9-2.9-9.5-6.6-12.5-11.4c-4.7-7.4-5.2-16.7-5.5-25.6
		c-1-25.6,1.9-51.1,1-76.7c-0.8-21-1.4-43,7.4-62.1C24.1,58.4,52.2,58.3,79.2,58C118.6,57.5,157.7,53.7,196.7,58.6z"/>
</g>
<g id="image1Top">
	<path class="st3" d="M196.7,58.6c16.6,2.1,33.4,4.2,48.8,10.8c9.1,3.8,17.8,9.5,22.8,18c3.6,6.3,4.9,13.6,5.5,20.8
		c1.9,24.2-0.1,47.7-0.6,72c-0.3,16.1-2,26.5-3.6,42.5s-7.4,32.5-20,42.4c-13.3,10.4-31.3,11.6-48.2,11.8
		c-46.6,0.6-93.2,3.6-139.2-3.6c-14.1-2.2-28.5-4.9-40.9-12.2c-4.9-2.9-9.5-6.6-12.5-11.4c-4.7-7.4-5.2-16.7-5.5-25.6
		c-1-25.6,1.9-51.1,1-76.7c-0.8-21-1.4-43,7.4-62.1C24.1,58.4,52.2,58.3,79.2,58C118.6,57.5,157.7,53.7,196.7,58.6z"/>
	<path class="st28" d="M143.2,193.3c-1.3,0-2.5-0.2-3.7-0.7c-1.9-0.7-3.2-2.4-3.6-4.4c-0.3-1.1-0.4-2.1-0.5-3.2
		c-0.1-1-0.1-2.3-0.1-3.9v-0.9c0-2.6,0.5-5.2,1.6-7.5c1-2.1,2.4-4.1,4.1-5.6c1.7-1.6,3.6-3.1,5.5-4.4l6.1-4.1c2-1.3,3.8-2.8,5.5-4.4
		c1.7-1.7,3.1-3.6,4.1-5.8c1.1-2.4,1.6-5.1,1.6-7.8c0.2-5.2-1.5-10.2-4.8-14.2c-3.2-3.8-7.5-5.7-13.1-5.7c-4.3,0.1-8.6,1.1-12.5,3
		c-0.2,3.8-0.6,7.7-1.2,11.5c-1.1,4.5-3.3,7.1-6.8,8c-1,0.2-2.1,0.3-3.1,0.3c-2.5,0.1-5-1-6.6-3c-1.7-2-2.6-4.5-2.6-7.1
		c0-3.6,0.9-7.1,2.8-10.2c1.8-3,4.4-5.5,7.5-7.3c3.2-1.9,6.7-3.3,10.3-4.2c3.8-1,7.7-1.5,11.6-1.4c6.1-0.1,12.1,1.2,17.5,3.8
		c5.2,2.5,9.5,6.4,12.5,11.3c3.2,5.1,4.8,11.1,4.7,17.1c0,3-0.5,5.9-1.7,8.6c-1,2.5-2.5,4.7-4.4,6.6c-1.9,1.8-3.9,3.5-6,5.1
		c-2.2,1.6-4.3,3.1-6.5,4.5c-2.2,1.4-4.2,2.8-6,4.3c-1.8,1.4-3.3,3.1-4.4,5c-1.1,1.9-1.7,4-1.7,6.1
		C149.4,189.7,147.3,193.3,143.2,193.3z M153.8,214.3c0.1,3.3-1.3,6.5-3.8,8.7c-2.5,2.3-5.8,3.5-9.2,3.4c-2.8,0.1-5.4-1.2-7-3.5
		c-1.8-2.5-2.7-5.4-2.6-8.5c-0.1-3.2,1.1-6.3,3.3-8.6c2.1-2.3,5.1-3.6,8.2-3.6c3.1,0,6,1.3,7.9,3.6
		C152.7,208.1,153.8,211.1,153.8,214.3L153.8,214.3z"/>
</g>
</svg>
